<svg width="67" height="140" viewBox="0 0 67 140" fill="none" xmlns="http://www.w3.org/2000/svg">
<g clip-path="url(#clip0_2011_87)">
<path fill-rule="evenodd" clip-rule="evenodd" d="M6.76948 92.6518C7.18114 89.8274 7.1354 87.0492 6.81522 84.271C6.49504 81.4465 6.03765 78.7147 5.35155 75.9365C4.29954 71.9081 3.06457 68.528 2.51569 68.1576C3.11031 76.4921 4.57398 84.6414 6.76948 92.6518ZM50.2222 102.375C50.2222 102.375 50.085 102.375 50.0392 102.375C49.3074 108.441 48.1639 114.46 47.9352 120.665C48.2097 120.387 48.4384 120.063 48.6213 119.739C50.085 117.192 51.5029 114.599 52.9666 112.006C53.424 111.219 53.7899 110.34 53.424 109.46C52.9666 108.395 52.372 107.422 51.9146 106.404C51.4572 105.339 51.0455 104.228 50.5881 103.163C50.4509 102.885 50.3594 102.607 50.2222 102.329V102.375ZM57.9522 35.1437C57.9522 35.1437 57.8607 35.2363 57.815 35.2826C60.5594 43.3856 62.3432 51.7201 64.4015 60.0083C64.493 59.8694 64.5387 59.7768 64.5387 59.6842C64.5387 57.5079 64.493 55.4243 64.4015 53.2481C64.4015 52.1831 64.31 51.1644 64.2185 50.0995C64.0813 48.4789 63.9441 46.8583 63.7154 45.2377C63.4867 43.7097 63.258 42.1354 62.8921 40.6537C62.389 38.8942 61.154 37.5514 59.7361 36.3938C59.1414 35.9771 58.5926 35.5604 57.9979 35.1437H57.9522ZM47.1576 7.63974C47.1576 7.63974 47.1576 7.54713 47.2034 7.50083C43.5442 4.35224 39.3361 2.36121 34.4877 1.99079C30.5084 1.71297 26.8035 2.82424 23.3273 4.81526C23.4645 4.90787 23.6017 4.90787 23.6932 4.90787C25.1568 4.95417 26.712 4.90787 28.1757 5.13939C30.1425 5.50981 32.1093 5.78763 34.1676 5.64872C37.8725 5.3709 41.5317 5.88023 45.0536 6.9915C45.7855 7.22301 46.4715 7.45453 47.1576 7.68604V7.63974ZM35.0824 136.223C35.4483 135.945 35.677 135.852 35.8599 135.667C37.0492 134.556 38.2384 133.445 39.4276 132.241C40.3882 131.315 40.8913 130.157 40.4339 128.768C40.0222 127.472 39.5191 126.175 39.1989 124.832C38.5586 122.008 38.0554 119.137 38.0554 116.22C38.0554 115.942 37.964 115.664 37.9182 115.387H37.7353C36.0429 122.147 34.259 128.907 35.1281 136.223H35.0824ZM39.7935 9.07513C39.7935 9.07513 39.7021 9.26034 39.6563 9.35295C39.9308 9.53816 40.1595 9.81598 40.4339 9.95488C42.4922 11.1125 44.2303 12.6868 45.9227 14.3074C47.8895 16.1595 49.6276 18.2894 51.0455 20.6045C52.1433 22.4104 53.1495 24.2625 54.1101 26.1146C54.7962 27.4574 55.345 28.8465 55.9854 30.1892C56.0769 30.3745 56.2598 30.5597 56.4428 30.6986C57.6778 31.3931 58.9127 32.0414 60.102 32.6896C60.5594 32.9674 60.971 33.2452 61.4284 33.523C61.4284 33.523 61.5199 33.4304 61.5656 33.3841C61.4284 32.9211 61.3369 32.5044 61.1997 32.0877C60.4679 29.8651 59.7818 27.5963 59.0042 25.3737C58.3639 23.6142 57.5406 21.901 56.763 20.2341C55.711 18.0116 54.3845 15.9743 52.5549 14.3537C50.5881 12.6405 48.4384 11.4366 45.9227 10.6957C43.8644 10.1864 41.8061 9.67707 39.7935 9.12143V9.07513ZM34.5792 80.4279C34.5792 80.4279 34.7164 80.4279 34.8079 80.4279C35.4483 78.761 36.2259 77.1404 36.729 75.3809C37.3693 73.2972 37.8725 71.2136 38.2841 69.0837C38.6501 66.8148 38.9702 64.546 39.0617 62.2308C39.1075 59.6379 38.9245 56.9986 38.6958 54.452C38.4214 52.0442 38.0097 49.6828 37.4608 47.3676C37.0034 45.284 36.3631 43.293 35.6312 41.3019C34.8537 39.1257 34.0303 36.9958 33.1155 34.9121C32.0178 32.4581 30.5999 30.1892 29.0447 28.013C28.9075 27.8278 28.7703 27.6426 28.5873 27.4111C28.5416 27.4111 28.4958 27.4111 28.4501 27.4574C34.5792 44.5894 37.5066 62.1382 34.6707 80.3816L34.5792 80.4279ZM29.4106 42.9688C29.4106 42.691 29.4106 42.5984 29.3649 42.5058C28.9075 40.8852 28.5416 39.2646 28.0384 37.6903C26.712 33.1063 25.2483 28.5686 23.373 24.1699C22.4582 21.9936 21.5434 19.8637 20.5829 17.7338C19.9883 16.3447 19.2564 14.9556 18.6161 13.6128C18.1129 12.5941 17.5641 11.6681 17.0609 10.6957C16.878 10.3253 16.6493 10.2327 16.3748 10.6031C16.1461 10.9272 15.8717 11.2051 15.643 11.5755C14.8654 12.7331 14.8197 14.0758 15.0484 15.3723C15.46 17.6875 15.8717 20.0026 16.5578 22.2715C17.7013 26.2072 19.2564 30.004 21.4062 33.523C23.2815 36.7179 25.5685 39.4961 28.2671 41.9965C28.6331 42.3206 28.999 42.5984 29.4564 42.9688H29.4106ZM18.9362 91.448C18.9362 91.448 18.799 91.4943 18.7533 91.5406C18.7533 91.6795 18.799 91.8184 18.8448 91.9573C19.2564 93.3927 19.6681 94.8281 20.034 96.2635C20.4457 98.1156 20.8116 99.9214 21.1317 101.773C21.3604 103.301 21.5891 104.829 21.6349 106.404C21.7264 108.487 21.8178 110.571 21.6806 112.701C21.5434 114.877 21.086 117.007 20.8116 119.183C20.4457 121.637 20.9031 123.953 22.2295 126.036C24.0591 128.861 26.2089 131.361 28.6331 133.63C28.999 134 29.4564 134.324 29.9595 134.741C29.9595 134.463 29.9595 134.371 29.9595 134.278C29.6851 133.259 29.2734 132.194 29.0447 131.13C28.1299 127.333 27.7183 123.443 27.4438 119.6C27.1694 116.127 26.8492 112.701 26.2089 109.275C25.66 106.311 24.8367 103.44 23.6932 100.709C22.6869 98.2082 21.4062 95.893 20.217 93.4853C19.8968 92.7907 19.4394 92.1425 19.0277 91.4943L18.9362 91.448ZM39.2904 78.8999C39.2904 78.8999 39.1532 78.8999 39.1075 78.8536C38.9702 79.0851 38.8788 79.3166 38.7873 79.5481C37.964 81.215 37.3236 82.9282 36.3631 84.4562C34.8994 86.9566 33.39 89.4569 33.0698 92.4666C32.7496 95.2448 32.3837 97.9767 32.1093 100.755C31.9263 102.561 31.7891 104.366 31.6976 106.172C31.5147 109.552 31.3317 112.979 31.1945 116.359C31.1487 117.702 31.1945 119.091 31.286 120.48C31.3317 121.915 31.4689 123.351 31.5604 124.74C31.5604 125.295 31.6976 125.851 31.7434 126.499C31.8806 126.36 31.9263 126.36 31.9263 126.36C31.9721 125.99 32.0635 125.573 32.1093 125.203C32.6582 121.591 33.4815 118.026 34.5335 114.553C35.0824 112.701 35.7227 110.849 36.2716 108.95C36.7747 107.098 37.3236 105.246 37.7353 103.348C38.2841 100.755 38.3299 98.1156 38.4214 95.43C38.4214 94.5966 38.4671 93.6705 38.5586 92.837C38.6958 90.7534 38.833 88.6698 39.016 86.5399C39.1075 85.0119 39.1989 83.4839 39.2447 81.9559C39.2447 80.9372 39.2904 79.9185 39.3819 78.8999H39.2904ZM9.51386 79.1777C9.51386 79.1777 9.42238 79.3166 9.42238 79.3629C9.74256 81.6317 10.2 83.8543 10.4287 86.1694C10.7031 89.318 10.2 92.374 9.51386 95.4763C9.10221 97.2358 8.91925 99.0879 9.37665 100.801C9.97126 102.931 10.7031 105.061 11.5264 107.052C12.5327 109.506 13.7219 111.868 14.9569 114.229C15.5972 115.525 16.3748 116.776 17.1067 118.026C17.1524 118.118 17.2896 118.211 17.3811 118.211C17.4726 118.211 17.5641 118.072 17.5641 117.933C18.1129 115.757 18.4331 113.488 18.4788 111.219C18.4788 109.784 18.4788 108.302 18.3416 106.867C18.2501 105.524 18.1587 104.228 17.93 102.885C17.5641 100.755 17.1067 98.6712 16.6035 96.5876C15.8259 93.1612 14.9569 89.7811 13.6304 86.5399C12.6242 84.0395 11.2977 81.7707 9.87978 79.5018C9.7883 79.4555 9.65108 79.3629 9.51386 79.224V79.1777ZM47.4321 59.4527C47.4321 59.4527 47.5693 59.4527 47.615 59.4527C47.615 59.1749 47.615 58.9433 47.5693 58.6655C47.4321 57.7395 47.2949 56.7671 47.1576 55.7947C46.8375 53.7111 46.563 51.5349 46.1056 49.4975C45.6025 47.0898 45.0079 44.682 44.2303 42.3206C43.2698 39.3109 42.2178 36.3475 40.9828 33.4304C40.1137 31.3005 38.9245 29.3095 37.8267 27.2722C36.0886 24.2162 33.9846 21.438 31.6061 18.9376C28.816 15.928 25.66 13.3813 22.0923 11.3903C21.8178 11.2514 21.5434 11.1125 21.1317 10.8809C21.2232 11.1588 21.269 11.2977 21.3147 11.3903C22.0923 12.872 22.7784 14.4463 23.6932 15.8817C24.5165 17.2244 25.477 18.5672 26.4833 19.8174C27.9012 21.5769 29.5479 23.2438 30.92 25.0496C32.0635 26.5313 33.1156 28.1519 34.1218 29.7725C35.677 32.3192 36.9577 35.0047 38.0097 37.7829C38.7873 39.8202 39.4734 41.9039 40.1595 43.9412C40.9828 46.4416 42.3092 48.7104 43.4985 51.0255C44.459 52.8777 45.3738 54.7761 46.2428 56.6745C46.7002 57.6469 47.0662 58.5729 47.4778 59.5453L47.4321 59.4527ZM10.5659 19.3081C10.3829 19.5396 10.2 19.7248 10.1085 19.91C9.37665 21.5769 8.55333 23.2438 7.91297 24.957C6.86096 27.9204 5.85469 30.8375 5.07711 33.8472C4.39102 36.3012 3.97936 38.8479 3.52196 41.3482C3.339 42.4595 3.15605 43.6634 3.97936 44.682C4.57398 45.4229 5.21433 46.1637 5.94617 46.7657C8.55333 48.7104 11.0233 50.7014 13.3103 53.0629C15.0026 54.8224 16.5578 56.6745 18.2044 58.5266C18.4788 58.8044 18.7075 59.1285 18.9362 59.4064C19.0277 59.2212 18.982 59.1285 18.9362 58.9896C18.3416 57.1375 17.7013 55.3317 17.1524 53.4796C15.9174 49.0808 14.6825 44.7283 13.6304 40.2833C12.7614 36.4864 12.121 32.6896 11.4349 28.8928C10.8861 25.8368 10.6116 22.7345 10.6574 19.6322C10.6574 19.5859 10.6574 19.4933 10.5201 19.3544L10.5659 19.3081ZM50.6796 54.915C50.6796 54.915 50.5424 54.915 50.4966 54.9613C50.4966 55.2854 50.4966 55.6558 50.5424 55.9799C50.9083 59.6842 51.3657 63.4347 51.6859 67.1389C51.8688 69.13 51.8688 71.1673 51.9146 73.1583C51.9146 75.705 51.9146 78.2979 51.9146 80.8909C51.8688 83.2986 51.5487 85.7064 51.5487 88.1605C51.5487 91.2164 51.7773 94.2261 52.4177 97.2358C53.0581 100.199 53.9271 103.07 55.2536 105.756C55.2993 105.894 55.4365 105.941 55.6195 106.172C55.9854 105.246 56.2598 104.505 56.5343 103.672C57.5406 100.709 58.5468 97.6989 59.5531 94.6892C60.2392 92.6981 60.3307 90.7534 59.7818 88.7161C58.867 85.0119 57.9979 81.3076 57.1746 77.6034C56.58 74.8715 56.0311 72.0934 55.3908 69.4078C54.4303 65.2868 53.2868 61.2585 51.6859 57.369C51.32 56.5356 50.9998 55.7021 50.6796 54.8687V54.915ZM42.2635 56.1652C42.2635 56.1652 42.172 56.1652 42.1263 56.2115C42.2635 57.4616 42.4007 58.7581 42.4922 60.0083C42.5837 61.49 42.6294 62.9717 42.6751 64.4997C42.7666 66.8148 42.8581 69.13 42.8581 71.4451C42.8581 73.3898 42.7209 75.2883 42.6751 77.2793C42.6294 78.9925 42.5837 80.752 42.5379 82.4189C42.5379 83.0208 42.5379 83.5765 42.4922 84.1784C42.3092 87.1881 42.0348 90.1515 41.8518 93.1612C41.7146 95.43 41.5774 97.7451 41.4859 100.014C41.3487 103.163 41.2115 106.265 41.1657 109.413C41.1657 111.312 41.2115 113.21 41.3487 115.062C41.5317 117.378 41.7146 119.646 42.1263 121.915C42.4007 123.49 42.9038 125.064 43.3155 126.592C43.3612 126.731 43.5442 126.87 43.6814 127.009C43.8186 126.87 43.9559 126.823 43.9559 126.684C44.1388 125.666 44.4133 124.647 44.459 123.628C44.5962 121.406 44.5047 119.137 44.642 116.915C44.7792 115.016 45.0994 113.118 45.3281 111.219C45.5567 109.321 45.8312 107.422 46.1056 105.524C46.3801 103.765 46.6545 102.005 46.8832 100.199C47.2034 97.4673 47.4778 94.7818 47.7065 92.0499C47.9352 89.5495 48.2097 87.1418 48.3011 84.6414C48.4384 81.8633 48.3011 79.1314 48.0267 76.3532C47.6608 72.9731 47.0204 69.6393 46.1056 66.3055C45.1908 63.1106 44.0016 59.962 42.6294 56.906C42.5379 56.5819 42.4007 56.3504 42.2635 56.0726V56.1652ZM14.9569 28.013C14.9569 28.013 14.8654 28.013 14.8197 28.0593C14.8197 28.1982 14.8197 28.3834 14.8197 28.5223C15.7345 33.06 16.6035 37.5977 17.6098 42.1354C18.2044 44.821 18.9362 47.4602 19.7596 50.0532C20.7201 53.2944 21.8178 56.4893 22.8699 59.7305C24.1963 63.8051 25.477 67.8798 26.8035 71.9544C28.1299 75.9365 29.0905 80.0111 29.9595 84.0858C30.0967 84.5951 30.1425 85.1045 30.2797 85.6138C30.3254 85.6138 30.4169 85.6138 30.4626 85.6138C30.5999 84.6877 30.6913 83.7154 30.8286 82.7893C31.1487 80.4742 31.5604 78.2053 31.7434 75.8902C32.0178 72.9731 32.2465 70.056 32.2922 67.1389C32.338 64.4071 32.1093 61.7215 32.0178 59.0359C31.9263 56.7208 31.6061 54.452 30.9658 52.2294C29.9595 48.7104 27.6268 46.0248 25.1111 43.5245C23.6017 42.0428 22.1838 40.5148 20.9488 38.8016C19.8053 37.2273 18.799 35.5141 17.7928 33.8009C17.0609 32.5507 16.512 31.2079 15.8717 29.9114C15.5058 29.2632 15.2771 28.6149 14.9569 27.9204V28.013ZM2.79013 48.6641C2.79013 48.6641 2.65291 48.7104 2.56143 48.803C2.51569 50.6551 2.37847 52.5072 2.42421 54.3593C2.42421 55.9336 2.56143 57.5542 2.88161 59.1285C3.5677 62.6013 5.16859 65.6572 6.81522 68.6669C7.95871 70.7506 9.28516 72.6953 10.6116 74.6863C11.8466 76.4921 13.1273 78.2053 14.4538 79.9185C16.3291 82.4189 18.2959 84.734 20.0797 87.2807C21.5434 89.318 22.8699 91.448 24.1506 93.6705C25.7972 96.495 27.0322 99.5047 27.947 102.607C28.0384 102.885 28.1299 103.116 28.2671 103.394C28.3129 103.394 28.4044 103.394 28.4501 103.394C28.4501 103.024 28.4044 102.653 28.3586 102.283C28.1757 98.9953 28.0384 95.7541 27.7183 92.4666C27.4896 89.8737 27.1236 87.327 26.5748 84.734C25.7972 80.8909 24.9281 77.0478 23.2358 73.4824C22.2295 71.3525 21.269 69.2226 20.0797 67.1852C19.0277 65.3331 17.8385 63.6199 16.512 61.953C14.7739 59.7768 13.0358 57.6006 11.069 55.6095C8.91925 53.4796 6.54078 51.6275 4.20806 49.6365C3.75066 49.2197 3.24752 48.9419 2.74439 48.6178L2.79013 48.6641ZM61.9316 83.7154C61.9316 83.7154 62.023 83.7154 62.0688 83.7154C62.2517 82.8819 62.4347 82.0485 62.5262 81.1687C62.8464 79.224 63.2123 77.2793 63.441 75.3346C63.7154 73.112 63.7612 70.8432 63.1208 68.6669C62.5262 66.7222 61.9773 64.7775 61.4742 62.7865C60.6509 59.4527 59.8733 56.1189 59.0957 52.785C58.6383 50.9792 58.2266 49.1734 57.7693 47.3676C57.4948 46.2563 57.2204 45.1451 56.9002 44.0338C56.3056 41.8576 55.6652 39.6813 54.9791 37.5514C54.2473 35.3289 53.5155 33.1063 52.6007 30.9301C51.8231 29.0317 50.8626 27.087 49.902 25.2811C48.9872 23.5216 47.9352 21.8547 46.7917 20.2804C45.0079 17.8727 42.9038 15.789 40.5254 13.9832C37.3693 11.5755 33.8931 9.72337 29.9595 8.88992C27.9927 8.47319 25.9802 8.38059 24.0133 8.19538C23.8761 8.19538 23.7389 8.19538 23.556 8.24168C23.556 8.28798 23.5102 8.33428 23.4645 8.38059C23.6017 8.42689 23.6932 8.5195 23.8304 8.5658C25.3398 9.53816 26.9407 10.4642 28.4044 11.5292C31.6976 13.8906 34.4877 16.8077 36.9577 20.0026C38.2384 21.6695 39.4276 23.3827 40.4339 25.1885C41.8518 27.5963 43.1325 30.004 44.276 32.5507C45.4195 35.0974 46.2428 37.7366 47.2949 40.3296C48.3469 42.8299 49.4904 45.3303 50.7253 47.738C52.372 51.0255 54.0643 54.2667 55.345 57.6932C56.9002 61.7678 58.0437 65.9814 59.0042 70.2412C59.919 74.2233 60.6509 78.2516 61.5199 82.2337C61.5656 82.6967 61.7486 83.1597 61.8858 83.6691L61.9316 83.7154ZM66.597 55.2391C66.597 56.3504 66.5513 57.4616 66.597 58.5729C66.6885 59.8694 66.5055 61.1659 66.5513 62.4624C66.5513 63.7588 66.5513 65.0553 66.5055 66.3518C66.3683 68.3428 66.2311 70.3801 66.0024 72.3712C65.8194 74.2696 65.545 76.2143 65.2248 78.1127C64.9504 79.9185 64.5845 81.7244 64.2643 83.4839C63.9899 84.9193 63.7612 86.3546 63.441 87.79C63.1208 89.2717 62.6634 90.6608 62.2975 92.1425C61.9773 93.3001 61.7486 94.5502 61.3827 95.7078C61.0168 96.9117 60.6509 98.1156 60.2392 99.2731C59.6446 101.125 59.0042 102.977 58.3181 104.783C57.7235 106.311 57.1746 107.885 56.4428 109.367C55.2993 111.821 54.1558 114.275 52.8294 116.637C51.5487 118.952 50.1307 121.267 48.6671 123.49C46.9289 126.036 45.0994 128.49 43.2698 130.944C41.3944 133.445 39.1532 135.482 36.8205 137.519C36.1344 138.121 35.3568 138.584 34.625 139.14C33.9389 139.649 33.2528 139.557 32.5667 139.14C30.1882 137.658 28.0384 135.945 26.1174 134C24.4707 132.38 23.0528 130.62 21.6806 128.768C19.1649 125.481 16.9237 121.962 14.8654 118.35C13.9049 116.59 12.8071 114.924 11.9838 113.118C10.7946 110.617 9.74256 108.024 8.64481 105.431C8.14167 104.274 7.73002 103.116 7.31836 101.959C6.81522 100.477 6.31208 98.9027 5.85469 97.3747C5.44303 96.0782 5.07711 94.7818 4.71119 93.439C4.4825 92.6518 4.29954 91.8647 4.11658 91.0312C3.84214 89.7811 3.52196 88.4846 3.29326 87.2344C3.06457 86.1231 2.79013 85.0582 2.60717 83.9932C2.24125 82.2337 1.92107 80.4742 1.64664 78.7147C1.50942 78.0201 1.46368 77.2793 1.3722 76.5384C1.23498 75.4272 1.05202 74.3622 0.86906 73.2509C0.86906 72.9731 0.86906 72.6953 0.82332 72.4175C0.686101 71.0747 0.640362 69.6856 0.503142 68.2965C0.411663 67.1389 0.365923 65.9351 0.228704 64.7775C-0.137213 61.5826 0.0457454 58.3414 0.0457454 55.1465C0.0457454 53.6648 0.182965 52.1831 0.274444 50.7014C0.411663 48.9882 0.548882 47.2287 0.777581 45.5618C1.05202 43.6171 1.3722 41.6724 1.69237 39.7276C2.05829 37.8292 2.37847 35.9308 2.83587 34.0787C3.20178 32.4581 3.70492 30.8375 4.2538 29.2632C4.75694 27.7352 5.26007 26.1609 5.85469 24.6792C6.54078 23.0123 7.22688 21.2991 8.05019 19.6785C8.96499 17.7801 10.017 15.928 11.1148 14.1684C12.0295 12.7331 13.0358 11.3903 14.1336 10.1401C15.5972 8.5195 17.0609 6.9452 18.7075 5.55611C20.7658 3.7966 23.0071 2.36121 25.5685 1.52776C26.8035 1.11103 27.9927 0.601703 29.2734 0.416491C30.9658 0.0460681 32.6124 0.0460681 34.259 -0.000234811C36.0886 -0.0465377 37.8267 0.462794 39.5648 0.925823C42.6294 1.75927 45.2366 3.37988 47.7523 5.27829C49.8105 6.85259 51.5029 8.70471 53.1495 10.6957C55.6652 13.7517 57.632 17.1781 59.2787 20.7435C60.4222 23.2901 61.5656 25.8831 62.2975 28.5686C62.6177 29.7725 63.0751 30.9301 63.441 32.0877C63.7612 33.2452 63.9899 34.4028 64.2185 35.5604C64.493 36.7643 64.7674 37.9681 64.9961 39.172C65.2248 40.3759 65.4078 41.6261 65.5907 42.8762C65.8652 44.7284 66.0939 46.5342 66.3226 48.3863C66.3226 48.7104 66.3226 49.0345 66.3226 49.3586C66.4598 51.3034 66.5513 53.2944 66.6885 55.2391C66.6885 55.2391 66.6732 55.2545 66.6428 55.2854L66.597 55.2391Z" fill="#1a1a1a"/>
</g>
<defs>
<clipPath id="clip0_2011_87">
<rect width="66.6427" height="139.464" fill="#1a1a1a"/>
</clipPath>
</defs>
</svg>
