<svg width="199" height="31" viewBox="0 0 199 31" fill="none" xmlns="http://www.w3.org/2000/svg">
<g clip-path="url(#clip0_40_436)">
<path d="M33.3164 19.4948C33.3164 12.8634 38.5425 8.06959 45.9733 8.06959C50.7095 8.06959 54.4657 10.067 56.0989 13.7423L51.0361 16.3789C49.8112 14.3015 48.0148 13.3428 45.9733 13.3428C42.6254 13.3428 40.0123 15.5799 40.0123 19.4948C40.0123 23.4098 42.6254 25.6469 45.9733 25.6469C48.0148 25.6469 49.8112 24.768 51.0361 22.6108L56.0989 25.3273C54.4657 28.8428 50.7095 30.9201 45.9733 30.9201C38.5425 30.8402 33.3164 26.1263 33.3164 19.4948Z" fill="white"/>
<path d="M56.9155 8.86856H60.4268V3.51546H66.9594V8.86856H72.5938V13.8222H66.9594V22.8505C66.9594 24.768 68.0209 25.8067 69.8174 25.8067C70.7973 25.8067 71.7772 25.4871 72.4304 25.0077L74.2269 29.5619C72.9204 30.5206 70.879 31 68.9192 31C63.6114 31 60.4268 28.3634 60.4268 23.0902V13.8222" fill="white"/>
<path d="M100.031 8.38918V30.5206H93.8248V27.884C92.11 29.8015 89.5786 30.8402 86.8022 30.8402C81.0862 30.8402 77.0849 27.7242 77.0849 20.8531V8.38918H83.6176V19.9742C83.6176 23.6495 85.3324 25.3273 88.1904 25.3273C91.2117 25.3273 93.4165 23.4098 93.4165 19.3351V8.38918H100.031Z" fill="white"/>
<path d="M125.508 17.8969V30.5206H119.384V27.7242C118.159 29.7217 115.791 30.8402 112.524 30.8402C107.217 30.8402 104.032 27.9639 104.032 24.1289C104.032 20.2938 106.89 17.4974 113.749 17.4974H118.975C118.975 14.701 117.261 13.1031 113.749 13.1031C111.381 13.1031 108.85 13.9021 107.217 15.1804L104.849 10.7062C107.298 8.94845 110.973 8.06959 114.648 8.06959C121.507 8.06959 125.508 11.1856 125.508 17.8969ZM118.975 23.5696V21.3325H114.484C111.381 21.3325 110.483 22.451 110.483 23.8892C110.483 25.4871 111.871 26.5258 114.158 26.5258C116.281 26.5258 118.24 25.567 118.975 23.5696Z" fill="white"/>
<path d="M130.816 0H137.348V30.5206H130.816V0Z" fill="white"/>
<path d="M142.901 8.38918H149.434V30.5206H142.901V8.38918Z" fill="white"/>
<path d="M142.901 0H149.434V5.35309H142.901V0Z" fill="white"/>
<path d="M173.523 25.567V30.5206H153.353V26.6856L164.867 13.3428H153.598V8.38918H173.115V12.2242L161.601 25.567H173.523Z" fill="white"/>
<path d="M198.837 21.2526H181.689C182.342 24.049 184.71 25.7268 188.14 25.7268C190.508 25.7268 192.222 25.0077 193.856 23.5696L197.367 27.2448C195.244 29.5619 192.141 30.8402 188.058 30.8402C180.219 30.8402 175.156 26.0464 175.156 19.4149C175.156 12.7835 180.3 7.98969 187.241 7.98969C194.182 7.98969 199 12.384 199 19.4948C199 20.0541 198.918 20.7732 198.837 21.2526ZM181.689 17.4974H192.876C192.386 14.701 190.263 12.8634 187.323 12.8634C184.22 12.9433 182.097 14.701 181.689 17.4974Z" fill="white"/>
<path d="M33.2347 30.5206L20.0878 1.75773H20.0062H13.3102H13.1469L0 30.5206H0.244973H7.18588H7.83915L16.5765 9.98711L25.2323 30.5206H33.2347Z" fill="white"/>
</g>
<defs>
<clipPath id="clip0_40_436">
<rect width="199" height="31" fill="white"/>
</clipPath>
</defs>
</svg>
