<?xml version="1.0" encoding="utf-8"?>
<!-- Generator: Adobe Illustrator 21.0.2, SVG Export Plug-In . SVG Version: 6.00 Build 0)  -->
<svg version="1.1" id="Ebene_1" xmlns="http://www.w3.org/2000/svg" xmlns:xlink="http://www.w3.org/1999/xlink" x="0px" y="0px"
	 viewBox="0 0 337 53" style="enable-background:new 0 0 337 53;" xml:space="preserve">
<style type="text/css">
	.st0{fill:#FDFCFD;}
	.st1{fill:#454545;}
	.st2{fill:#840285;}
	.st3{fill:#830384;}
	.st4{fill:#830484;}
	.st5{fill:#830284;}
	.st6{fill:#474747;}
	.st7{fill:#4A4A4A;}
	.st8{fill:#494949;}
	.st9{fill:#464646;}
	.st10{fill:#FAFAFA;}
	.st11{fill:#F7F1F7;}
	.st12{fill:#8E2290;}
	.st13{fill:#8C007B;}
	.st14{fill:#6C126A;}
	.st15{fill:#601B5F;}
	.st16{fill:#8A6088;}
	.st17{fill:#AC7CAE;}
	.st18{fill:#761876;}
	.st19{fill:#7F0678;}
	.st20{fill:#7A038E;}
	.st21{fill:#FBF9FB;}
	.st22{fill:#F8F8F8;}
</style>
<g>
	<g>
		<path class="st0" d="M104.4,27.6c0-0.1,0.1-0.1,0.1-0.2c0.2-0.5,0.5-1,0.7-1.5c3.9,0,7.7,0,11.4,0c0.7,1.9,1.4,3.8,2.1,5.7
			c0,0.1,0,0.3,0.1,0.4c2.8,0,5.5,0,8.3,0c-0.1-0.2-0.1-0.4-0.2-0.6c-0.3-0.9-0.6-1.7-0.9-2.6c-1-2.6-1.9-5.2-2.9-7.8
			c-0.7-1.9-1.4-3.8-2.1-5.7c-0.8-2-1.6-4.1-2.3-6.1c-0.7-1.9-1.4-3.9-2.2-5.8c-0.3-0.7-0.6-1.4-0.8-2c-3.1,0-6.1,0-9.2,0
			c-0.3,0.8-0.6,1.7-0.9,2.5c-1,2.6-1.9,5.1-2.9,7.7c-0.6,1.5-1.2,3-1.7,4.5c-0.5,1.3-0.9,2.7-1.4,4.1c-0.2,0.5-0.4,1-0.6,1.6
			c-0.1,0.2-0.1,0.4-0.2,0.7c-0.1,0-0.1,0.1-0.1,0.2l0,0c-0.4,1-0.8,2-1.2,3c-0.7,2-1.5,4-2.2,6c-0.1,0.2-0.1,0.4-0.2,0.6
			c0.2,0,0.3,0.1,0.4,0.1c2.4,0,4.7,0,7.1,0c0.2,0,0.4-0.1,0.6-0.2c0.4-1.2,0.8-2.4,1.2-3.6C104.3,28,104.4,27.8,104.4,27.6
			L104.4,27.6z M219.6,5c-0.1,0.1-0.1,0.2-0.2,0.3c-1.3,2.9-2.6,5.8-3.9,8.7c-0.4,0.9-0.8,1.7-1.2,2.7c-0.5-1-0.9-1.9-1.3-2.7
			c-0.4-1-0.8-1.9-1.2-2.9c-1.1-2.4-2.2-4.8-3.3-7.3l0,0c-0.1-0.3-0.3-0.6-0.4-0.9l0,0c-0.2-0.6-0.4-1.1-0.6-1.7
			c-0.4,0-0.8,0-1.1,0.1c-2.7,0-5.4,0-8.1,0c0,0.9,0,1.7,0,2.5c0,0.2,0,0.5,0,0.7c0,8.6,0,17.1,0,25.7c0,0.2,0,0.5,0,0.7
			c0,0.3,0,0.7,0,1c2.5,0,4.9,0,7.4,0c0-0.4,0-0.8,0-1.2c0-5,0-9.9,0-14.9c0-1.2,0-2.4,0-3.6c0-0.2,0-0.3,0-0.5
			c0.1,0.2,0.3,0.4,0.4,0.6c0.4,0.8,0.7,1.5,1.1,2.3c0.1,0.4,0.3,0.9,0.4,1.3c0.7,1.7,1.4,3.5,2.2,5.2c0.1,0.4-0.3,1,0.4,1.1
			c-0.1,0.3-0.2,0.6-0.4,1c0,0.4,0,1,0,1.7c0.3-0.1,0.5-0.1,0.7-0.1c0.2,0.1,0.3,0.2,0.5,0.4c2.1-0.2,4.2-0.3,6.3,0
			c0.1-0.2,0.2-0.4,0.3-0.6c0.4-0.2,0.8-0.4,1.3-0.6c-0.4-0.2-0.5-0.3-0.7-0.4c0.1-0.4,0.2-0.7,0.3-1.1c0.1,0,0.2,0,0.3-0.1
			c0.1,0.1,0.2,0.2,0.4,0.4c0.2,0,0.5-0.1,0.9-0.1c0,2.8,0,5.5,0,8.2c0.2,0,0.3,0.1,0.4,0.1c0.1,0,0.3,0,0.4,0
			c0.3,0.8,0.9,1.1,1.7,1.1c0.2,0.2,0.4,0.4,0.6,0.5c2.5,0,5,0,7.5,0c0-0.2,0-0.4,0-0.6l0,0c0.1,0,0.3,0.1,0.4,0.1
			c0,0.3,0.1,0.6,0.1,1c0.3,0,0.5-0.1,0.8-0.1c0-0.7,0-1.4,0-1.8c0.4-0.4,0.6-0.7,0.9-1.1c0-8.7,0-17.5,0-26.2
			c0.3-0.1,0.5-0.2,0.8-0.3c-0.4-1.1-0.7-2.2-1.1-3.4c-0.3,0.7-0.4,1.3-0.7,1.9c0.7,0.5,0.6,1.2,0,1.8c0,9,0,18,0,26.9
			c-0.1,0-0.3-0.1-0.4-0.1c0-9.8,0-19.6,0-29.2c0.2-0.4,0.3-0.8,0.4-1.2c-0.6,0-1.1,0-1.6,0c-0.2,0.1-0.4,0.3-0.5,0.4
			c-2.1,0-4.2,0-6.2,0c-0.2-0.2-0.5-0.3-0.7-0.5c-0.3,0.2-0.6,0.4-0.9,0.5c-1-0.7-1.4-0.6-2.1,0.2c0,1,0,1.9,0,2.9
			c0,0.2,0,0.4,0,0.5C219.7,4.6,219.6,4.8,219.6,5C219.5,5,219.6,5,219.6,5z M233.4,31c-0.7,0.1-0.3,0.7-0.4,1.1
			c0,0,0.1,0.1,0.2,0.2c0.1-0.1,0.2-0.1,0.3-0.2C233.5,31.6,233.5,31.3,233.4,31c0.1,0,0.3,0,0.4,0c0,0.4,0,0.9,0.1,1.3
			c0.7,0.2,1.4,0.3,2,0.5c-0.1,0.4-0.7,0.5-0.3,0.9c0.5-0.1,1-0.1,1.5-0.2c0.1-0.2,0.1-0.5,0.2-0.7c1.1,0,2.2,0,3.2,0
			c0.4-0.2,0.7-0.4,1-0.5c0.3,0.2,0.6,0.4,0.9,0.5c0.3-0.2,0.5-0.3,0.7-0.4c0.1,0.3,0.2,0.5,0.3,0.8c0.3-0.4,0.4-0.8,0-1.2
			c-0.1-0.1-0.1-0.4-0.2-0.6c0-0.1,0-0.2,0-0.3c0.1,0,0.1,0,0.2,0c0.3,0,0.7,0,1,0c0-0.1,0.1-0.2,0.1-0.3c-0.3-0.2-0.6-0.4-0.9-0.6
			c0-0.1,0.1-0.3,0.1-0.4c0.2-0.1,0.4-0.1,0.8-0.2c-0.1-0.4-0.2-0.7-0.3-1c0-0.1,0-0.3,0.1-0.4c0-0.1,0.1-0.2,0.1-0.2
			c0-0.1,0-0.1,0-0.2c0.6,0,0.4,0.5,0.4,0.8c-0.1,0.5,0,0.9,0.4,1.2c0-0.6,0-1.3,0-1.9c1.1-0.3,1.6-1,1.9-1.8c2.1,0,4.3,0,6.4,0
			c0.1,0.5,0.2,1.1,0.3,1.6c0.1,0,0.1,0,0.2,0c0-0.4,0.1-0.8,0.1-1.3c0.1-0.1,0.3-0.2,0.4-0.3c0.3,0,0.6,0,0.9,0l0.1,0.1l0.1-0.1
			c0.1,0,0.3,0,0.4,0c0,0.1,0.1,0.2,0.1,0.3c-0.2,0-0.5,0.1-0.7,0.1c-0.1,0.2-0.1,0.5-0.2,0.6c-0.1,0.2-0.2,0.3-0.4,0.6
			c0.8,0,1.3,0,1.9,0c0.2,0.3,0.3,0.7,0.5,1c0.4,1.1,0.8,2.1,1.2,3.2c0.3,0.1,0.6,0.2,0.9,0.2c2.2,0,4.3,0,6.5,0
			c0.3,0,0.5,0,0.9-0.1c-0.2-0.4-0.3-0.6-0.5-0.9c-0.6-1.6-1.1-3.2-1.7-4.8c-0.7-2-1.5-3.9-2.2-5.9c-0.9-2.5-1.8-5.1-2.8-7.6
			c-0.3-0.7-0.6-1.5-1-2.2c-0.4-1.1-0.8-2.3-1.3-3.4l0,0c-0.2-0.5-0.3-0.9-0.5-1.4c-0.5-1.5-1.1-3-1.6-4.5c-2.9,0-5.7,0-8.6,0
			c-0.2,0-0.4,0-0.7,0c-0.1,0.3-0.1,0.6-0.2,0.8l0,0c-0.2,0.5-0.5,1-0.7,1.5c-0.7,1.7-1.3,3.4-1.9,5.1c0,0.1-0.1,0.2-0.1,0.2l0,0
			c-0.5,0-1.1-0.5-1.5,0.2c0,0.4,0,0.8,0,1.3c0.1,0,0.1,0,0.2,0c0.1,0.4,0.2,0.9,0.3,1.3l0,0c-0.1,0-0.3,0-0.4,0.1
			c-0.3,0.8-0.9,1.3-1.5,1.8c-0.1,0.1-0.2,0.1-0.3,0.2c0.3,0.5,0.6,1,0.9,1.4c0,0.1,0,0.1-0.1,0.1c-0.1,0.1-0.3,0.1-0.4,0.2
			c-0.3,0.7-0.6,1.4-0.5,2.2c0,0.1,0,0.1,0,0.2c-0.3,0.1-0.5,0.1-0.8,0.2c0-0.2-0.1-0.4-0.1-0.6c-0.1-0.1-0.2-0.1-0.3-0.2
			c-0.1,0.1-0.3,0.3-0.4,0.4c0.1,0.1,0.1,0.2,0.2,0.3c0.2,0,0.4,0.1,0.6,0.1c-0.1,0.3-0.3,0.6-0.5,1.1c0,0.4,0,1,0,1.6
			c-0.3,0.1-0.5,0.1-0.7,0.2c0.1,0.4,0.3,0.7,0.4,1.1v0.1c-0.1,0-0.3,0.1-0.4,0.1c-0.8,0.6-1,1.6-1.3,2.4c0.2,0.3,0.3,0.6,0.4,0.8
			l0,0c-0.3,0-0.4,0.1-0.4,0.4s0,0.6,0,0.8c0,0.1,0,0.1-0.1,0.2c-0.7-0.1-0.8,0.6-1.3,0.9c0.2,0.3,0.4,0.6,0.6,0.8v0.1
			c-0.3,0-0.4,0.1-0.4,0.4c0,0.3,0,0.6,0,0.8l0,0c-0.1,0-0.3-0.1-0.4-0.1c0-0.4,0.1-0.7,0.1-1c-0.3-0.1-0.6-0.2-0.9-0.3
			c-0.1-0.3,0.1-0.7-0.3-1.1c-0.1,0.5-0.4,1,0.3,1.1c0.3,0.8,0.6,1.6,0.9,2.4l0,0c-0.5,0-0.9-0.1-1.4-0.1c-0.1-0.3,0.1-0.6-0.3-0.9
			C233.5,30.4,233.5,30.7,233.4,31z M182.1,11c0,0.3,0,0.5,0,0.8c0,0.2,0,0.3,0,0.5c-0.2,0.1-0.4,0.2-0.7,0.2c-3.5,0-7.1,0-10.6,0
			c-0.2,0-0.4-0.2-0.6-0.3c0-3.7,0-7.3,0-11c-0.2,0-0.4,0-0.6,0c-2.4,0-4.8,0-7.3,0c0,0.4,0,0.7,0,1c0,9.3,0,18.5,0,27.8
			c0,0.3,0,0.6,0,0.9c0,0.3,0,0.7,0,1c2.7,0,5.2,0,7.8,0c0-4.5,0-8.9,0-13.3c0.1-0.1,0.2-0.2,0.3-0.3c3.8,0,7.6,0,11.5,0
			c0,0.3,0.1,0.6,0.1,0.8c0,3.9,0,7.8,0,11.7c0,0.3,0.1,0.7,0.1,1c2.6,0,5.1,0,7.7,0c0.1-0.3,0.2-0.6,0.2-0.8c0-9.6,0-19.2,0-28.8
			c0-0.3,0-0.7,0-1.1c-0.4,0-0.6,0-0.8,0c-2.4,0-4.7,0-7.2,0c0,0.4,0,0.7,0,1.1c0,2.2,0,4.4,0,6.6c0,0.6,0.1,1.1,0.1,1.7
			C182.1,10.7,182.1,10.9,182.1,11z M150.8,25.9c-0.1,0-0.2,0.1-0.2,0.1c-0.8,0.2-1.7,0.4-2.5,0.6c-1.9,0.1-3.7-0.2-5.5-0.9
			c-0.7-0.6-1.4-1.1-2.1-1.7c-0.4-0.6-0.8-1.3-1.2-1.9c-0.3-0.5-0.5-1-0.7-1.5c-0.1-0.5-0.2-1-0.3-1.5c-0.1-0.4-0.1-0.7-0.2-1.1
			c0-1,0-1.9,0-2.9c0.1-0.3,0.2-0.6,0.2-0.9c0.2-1.7,0.8-3.3,1.8-4.7c0.9-1.2,2-1.9,3.3-2.5c2.3-0.7,4.5-0.7,6.8,0
			c1.3,0.7,2.5,1.4,3.8,2.1c0.1,0.1,0.3,0.2,0.4,0.3c0,0,0,0.1,0.1,0.1c0.3,0.2,0.5,0.5,0.8,0.7c0.1,0.1,0.2,0.1,0.3,0.2
			c0.3,0,0.6,0,0.9,0c0-0.1,0.1-0.3,0.1-0.4c0-2.2,0-4.4,0-6.6c0-0.1-0.1-0.3-0.2-0.4c0,0-0.1,0-0.2,0c-0.2,0.1-0.2,0-0.3,0
			s-0.1,0-0.2-0.1c-0.2-0.2-0.5-0.3-0.7-0.4c-2.5-1.2-5.2-1.7-8-1.9c-3.2-0.2-6.3,0.3-9.2,1.7c-3.6,1.7-5.9,4.6-7.2,8.4
			c-0.4,1.2-0.6,2.5-0.7,3.7c-0.4,3.9,0,7.7,2,11.3c1.7,3.1,4.4,5.1,7.8,6.2c1.2,0.4,2.5,0.6,3.7,0.7c2.9,0.3,5.7,0.2,8.5-0.8
			c0.8-0.3,1.6-0.5,2.3-0.8c0.1,0,0.1,0,0.2,0c0.6-0.3,1.1-0.5,1.7-0.8l0,0c0.4,0,0.4-0.3,0.4-0.6c0-2.1,0-4.3,0-6.4
			c0-0.1-0.1-0.2-0.2-0.3c-0.2,0-0.4,0-0.6,0c-1.6,1.1-3.1,2.1-4.7,3.2C150.9,25.9,150.8,25.9,150.8,25.9z M326.1,15.6
			c-0.3-0.4-0.6-0.9-0.9-1.3c-0.4-0.7-0.9-1.4-1.3-2.1c-0.3-0.5-0.6-1-0.9-1.5c-2-3.2-4-6.4-6-9.6c-3,0-6,0-8.9,0
			c-0.2,0-0.4,0-0.6,0c0,10.3,0,20.5,0,30.7c2.4,0,4.8,0,7.2,0c0-0.2,0.1-0.4,0.1-0.6c0-6.3,0-12.6,0-18.9c0-0.4,0-0.7,0-1.1
			c0.3,0.1,0.4,0.3,0.5,0.4c0.8,1.3,1.6,2.6,2.5,3.9c0.4,0.7,0.9,1.4,1.3,2.1c0.6,1,1.2,2,1.7,3c0.1,0.2,0.2,0.3,0.3,0.5l0,0
			c0.6,1,1.2,1.9,1.8,2.9c1.3,2.2,2.6,4.3,3.9,6.5c0.2,0.4,0.4,0.7,0.6,1.1c0,0,0,0.1,0.1,0.1c0.2,0.1,0.4,0.2,0.6,0.2
			c2.3,0,4.5,0,6.8,0c0.1,0,0.3-0.1,0.5-0.1c0-0.4,0-0.7,0-1.1c0-1.5,0-3,0-4.5c0-8,0-16.1,0-24.1c0-0.3-0.1-0.7-0.2-1
			c-2.3,0-4.5,0-6.8,0c-0.1,0-0.2,0-0.4,0.1c0,4,0,7.9,0,11.8c0,1.4,0,2.8,0,4.2c-0.3,0-0.6,0-0.9,0
			C326.9,16.8,326.5,16.2,326.1,15.6L326.1,15.6z M87.7,13.8L87.7,13.8c1-0.7,1.8-1.6,2.1-2.8c0.5-1.3,0.7-2.5,0.4-3.9
			c-0.4-2-1.4-3.5-3.2-4.4c-1.7-0.9-3.5-1.3-5.5-1.3c-0.2-0.1-0.5-0.1-0.7-0.1c-4.7,0-9.3,0-14,0c-0.3,0-0.5,0-0.8,0
			c0,0.2,0,0.3,0,0.4c0,0.4,0,0.8,0,1.2c0,9.1,0,18.1,0,27.2c0,0.5,0,0.9,0,1.4c0,0.2,0,0.4,0,0.6c0.3,0,0.4,0,0.6,0
			c4.6,0,9.2,0,13.8,0c0.3,0,0.7-0.1,1-0.1c1.6-0.1,3.2-0.2,4.7-0.9c0.8-0.4,1.7-0.7,2.4-1.2c1.6-1,2.6-2.4,3.3-4.2
			c0.4-1.2,0.5-2.5,0.4-3.7c-0.1-2-0.9-3.6-2.4-4.8c-1.1-1-2.5-1.4-4-1.9c0.6-0.4,1-0.8,1.5-1.1C87.5,13.9,87.6,13.8,87.7,13.8z
			 M292.3,1.3c0,0.5-0.1,1.1-0.1,1.6c0,0.2,0,0.3,0,0.5v0.1c0,4.6,0,9.2,0,13.8v0.1c0,0.2,0,0.3,0,0.5c-0.1,0.2-0.1,0.4-0.2,0.8
			c-0.9-1.4-1.7-2.8-2.6-4.2c-0.6-0.9-1.2-1.7-1.8-2.6c-0.2-0.4-0.4-0.7-0.6-1.1c-0.1-0.2-0.2-0.5-0.4-0.7c-0.8-1.2-1.5-2.4-2.3-3.6
			c-1.1-1.7-2.2-3.4-3.2-5.1c-3.2,0-6.4,0-9.5,0c0,0.1,0,0.3,0,0.4c0,0.6,0,1.2,0,1.7c0,0.1,0,0.2,0,0.4c0,0.4-0.1,0.8-0.1,1.2
			c0,7.6,0,15.3,0,22.9c0,1.2,0,2.4,0,3.6c0,0.2,0.1,0.4,0.2,0.6c2.4,0,4.8,0,7.2,0c0-0.4,0-0.7,0-1s0-0.6,0-1c0-5.9,0-11.7,0-17.6
			c0-0.4,0-0.8,0-1.3c0.1,0,0.1,0,0.2,0c2.2,3.5,4.3,7,6.5,10.5c2,3.2,4,6.5,5.9,9.7c0.2,0.2,0.3,0.4,0.4,0.6c2.6,0,5.1,0,7.6,0
			c0-10.3,0-20.5,0-30.7c-0.3,0-0.4,0-0.6,0c-2.1,0-4.3,0-6.4,0C292.5,1.3,292.4,1.3,292.3,1.3z M47.3,33.5c1-0.6,1.7-1.4,2.3-2.3
			c1-1.4,1.5-3,1.8-4.6c0.1-0.8-0.1-1.6-0.1-2.5c-0.1-1.1-0.4-2.2-1-3.2c-0.2-0.3-0.4-0.5-0.5-0.8c-0.5-1.2-1.4-2-2.5-2.7
			c0-0.1-0.1-0.1-0.1-0.1c-0.2-0.2-0.5-0.3-0.7-0.5c-2.2-1.8-8-1.7-10.3,0.2c-0.1,0.1-0.3,0.1-0.4,0.2c-1.3,0.8-2.3,2-3,3.4
			c-0.7,1-1,2.2-1.1,3.4c-0.2,1.1-0.2,2.3,0.1,3.4c0.4,1.9,1.2,3.6,2.7,5c0,0.1,0,0.1,0.1,0.1c0.1,0.1,0.2,0.2,0.4,0.3
			c0.7,0.6,1.3,1.2,2.2,1.4c0.5,0.6,1.2,0.6,1.9,0.8c2.2,0.7,4.3,0.3,6.5-0.4c0.1,0,0.2-0.2,0.4-0.3s0.4-0.2,0.6-0.2
			C46.7,33.9,47,33.7,47.3,33.5z M41.5,43.1c-2.5-0.3-5-0.7-7.3-1.8c-2.7-1.3-5-3.1-6.8-5.5c-1.2-1.7-2.1-3.6-2.7-5.6
			c-0.4-1.5-0.4-3-0.7-4.4c-0.1-0.6,0.2-1.3,0.2-2c0.1-2.7,1-5.1,2.3-7.4s3.1-4.1,5.3-5.6c2.1-1.4,4.4-2.3,6.9-2.7
			c1-0.2,1.9-0.2,2.9-0.3c0-2.3,0-4.5,0-6.6c-8.5,0-17,0-25.4,0c0,16.2,0,32.2,0,48.3c8.5,0,17,0,25.4,0
			C41.5,47.4,41.5,45.3,41.5,43.1z M6.5,1.3c0,16.2,0,32.2,0,48.3c2.1,0,4.1,0,6,0c0-16.1,0-32.2,0-48.3C10.5,1.3,8.6,1.3,6.5,1.3z
			 M3.7,1.2c-0.5,0-1,0-1.5,0s-1,0-1.5,0c0,16.2,0,32.3,0,48.3c1,0,2,0,3,0C3.7,33.4,3.7,17.4,3.7,1.2z M312.5,49.4
			c0-2.2,0-4.3,0-6.4c0-0.4-0.2-0.8-0.4-1.2c-0.8-1.4-2.6-1.4-3.6-0.9c-0.6,0.3-1.2,0.7-1.8,1c-1.9-2-3.5-1.6-5.3-0.2
			c-0.1-0.3-0.1-0.5-0.2-0.7c-1,0-1.8,0-2.7,0c0,2.8,0,5.6,0,8.4c0.9,0,1.8,0,2.7,0c0-2.1,0-4.1,0-6c1-0.4,1.9-0.8,2.9,0.1
			c0,1.9,0,3.9,0,5.9c1,0,1.9,0,2.8,0c0-2,0-4,0-6c1-0.5,2-0.9,3,0.2c0,1.8,0,3.8,0,5.8C310.7,49.4,311.6,49.4,312.5,49.4z
			 M333.5,49.4c1.1,0,2,0,3,0c0-3.8,0-7.5,0-11.3c-1,0-1.9,0-2.9,0c0,1.4,0,2.7,0,4c-1.5,0-2.9,0-4.3,0c0-1.4,0-2.7,0-4
			c-1,0-1.9,0-2.8,0c0,3.8,0,7.5,0,11.2c1,0,1.9,0,2.9,0c0-1.7,0-3.2,0-4.8c1.5,0,2.8,0,4.2,0C333.5,46.2,333.5,47.7,333.5,49.4z
			 M295.9,38.9c-2.1-0.9-4-1.2-6.1-0.8c-0.8,0.2-1.6,0.5-2.3,1c-1.4,0.8-2.1,2.2-2.3,3.7c-0.4,3.1,1.1,5.9,4.5,6.6
			c2.1,0.4,4.3,0,6.3-0.7c0-1.9,0-3.7,0-5.4c-1.2-0.2-4.5-0.1-5.2,0.1c0,0.6,0,1.2,0,1.9c0.8,0,1.6,0,2.4,0c0,0.8,0,1.5,0,2.3
			c-0.4,0-0.7,0-1,0c-1.7-0.2-3.2-0.7-3.7-2.6c-0.5-1.9,0-4,2.2-4.7c1.4-0.5,2.9-0.1,4.1,0.7c0.4,0.2,0.7,0.5,1.2,0.8
			C295.9,40.6,295.9,39.7,295.9,38.9z M71.6,43.3c1.4-1.8,3-3.3,4.4-5.2c-1.3,0-2.3,0-3.3,0c-1.5,1.6-2.6,3.4-4.3,5.1
			c0-1.9,0-3.4,0-5.1c-1,0-1.9,0-2.8,0c0,3.8,0,7.5,0,11.3c1,0,1.9,0,2.9,0c0-1.1,0-2.1,0-3.1c0-0.6,0.2-1,0.8-1.3
			c1.2,1.5,2.3,3,3.4,4.4c1.2,0,2.4,0,3.7,0C74.8,47.3,73.2,45.3,71.6,43.3z M247.8,41.1c-1.6-0.9-3.9-0.6-5.1,0.9
			c-1,1.2-1.2,2.6-0.9,4.1c0.4,2.5,2.3,3.5,4.8,3c0.5-0.1,0.9-0.3,1.5-0.5c-0.1,0.5-0.1,0.9-0.2,1.4c-0.4,0.3-0.7,0.6-0.9,0.8
			c-1.5,0.3-2.8,0.1-4.2-0.5c0,0.8,0,1.5,0,2.2c1.7,0.4,3.4,0.6,5.1,0.2c1.5-0.4,2.8-1.1,2.8-3.3c0.1-2.6,0.1-5.3,0.1-7.9
			c0-0.1-0.1-0.2-0.1-0.3C249.7,41,248.7,40.8,247.8,41.1z M315.1,37.6c0,4,0,7.9,0,11.9c1-0.2,2.1,0.3,2.9-0.4
			c0.1,0,0.2,0.1,0.3,0.1c2.2,1.3,5.1,0,5.6-2.6c0.2-1.1,0.2-2.1,0-3.1c-0.4-2.6-3.1-3.4-5-2.4c-0.3,0.2-0.6,0.3-1.1,0.5
			c0-1.4,0-2.7,0-4C317,37.6,316.1,37.6,315.1,37.6z M201.5,49.4c0-1,0-1.9,0-2.8c0-1.1,0-2.2,0-3.3c0-0.9-0.4-1.6-1.1-2.2
			c-1.1-0.7-2.2-0.6-3.3-0.2c-0.4,0.2-0.8,0.4-1.4,0.7c0-1.4,0-2.7,0-4.1c-0.9,0-1.8,0-2.7,0c0,4,0,7.9,0,11.8c0.9,0,1.7,0,2.7,0
			c0-2,0-4,0-6c1.5-0.7,1.8-0.7,2.8,0c0.6,1.9,0.1,4,0.3,6C199.7,49.4,200.6,49.4,201.5,49.4z M175.4,45.8c2.1,0,4.2,0,6.4,0
			c-0.1-1-0.1-1.8-0.3-2.6c-0.2-0.7-0.6-1.4-1.3-1.9c-1.6-1-4.4-1-6,0.4c-1.6,1.3-1.8,3-1.4,4.8c0.2,1.1,0.8,2,1.9,2.5
			c2.3,1.1,4.6,0.8,6.8,0.1c0-0.8,0-1.4,0-2.2c-0.4,0.2-0.8,0.3-1.1,0.4c-1.2,0.6-2.4,0.6-3.6,0.3C176,47.3,175.6,46.7,175.4,45.8z
			 M267,46.8c-0.4,0.2-0.7,0.2-1,0.4c-1.1,0.7-2.4,0.6-3.6,0.4c-0.9-0.2-1.4-0.8-1.4-1.8c2,0,4.1,0,6.2,0c0-0.7,0-1.3-0.1-2
			c-0.2-1.5-1.1-2.6-2.5-2.9c-0.8-0.2-1.8-0.2-2.6-0.1c-2.2,0.2-3.9,2-3.9,4.6c0.1,2.4,1.5,4,3.9,4.3c1.1,0.1,2.3,0,3.4-0.1
			c0.6-0.1,1.1-0.3,1.6-0.5C267,48.2,267,47.6,267,46.8z M235.7,49.6c1.2,0.1,2.4-0.2,3.3-1.1c1.6-1.5,1.6-3.7,1.1-5.2
			c-0.4-1-1.1-1.8-2.2-2.3c-1.1-0.5-2.2-0.5-3.3-0.4c-1.7,0.2-3,1.1-3.5,2.8c-0.5,1.6-0.4,3.2,0.7,4.6
			C232.8,49.4,234.2,49.7,235.7,49.6z M137.1,49.6c2.5,0.2,4.3-1,4.8-3.3c0.4-1.6,0.1-3-1-4.3c-0.7-0.9-1.7-1.3-2.7-1.4
			c-1.5-0.2-3,0-4.2,0.9c-1.8,1.4-1.8,4.2-1.1,5.6c0.2,0.4,0.5,0.8,0.8,1.2C134.7,49.4,135.9,49.7,137.1,49.6z M219.3,49.6
			c2.9,0.1,4.5-1.4,4.9-4c0.2-1.6-0.5-3.8-2.4-4.6c-1.3-0.5-2.6-0.6-3.9-0.3c-1.1,0.3-2.1,0.9-2.6,2c-0.6,1.3-0.6,2.6-0.3,3.9
			c0.2,1,0.8,1.8,1.8,2.4C217.5,49.5,218.4,49.7,219.3,49.6z M88.8,49.4c1,0,1.9,0,2.8,0c0-2,0-4,0-6c0.9-0.4,1.7-0.7,2.7-0.1
			c0.6,1.9,0.1,4.1,0.4,6.1c0.9,0,1.8,0,2.7,0c0-2.1,0-4.2,0-6.2c0-0.9-0.5-1.8-1.4-2.2c-1-0.5-2-0.5-3,0c-0.4,0.2-0.8,0.4-1.2,0.6
			c-0.1-0.2-0.1-0.4-0.2-0.6c-0.9,0-1.8,0-2.7,0C88.8,43.8,88.8,46.5,88.8,49.4z M212.7,49.4c0-0.9,0-1.7,0-2.6c0-1.2,0-2.5-0.1-3.7
			c-0.2-1.8-1.4-2.7-3.3-2.5c-0.8,0.1-1.5,0.5-2.2,0.9c-0.1,0.1-0.2,0.1-0.3,0.1c0-0.3-0.1-0.5-0.1-0.7c-0.9,0-1.8,0-2.6,0
			c0,2.8,0,5.6,0,8.4c0.9,0,1.8,0,2.7,0c0-2,0-4,0-6c0.9-0.5,1.8-0.8,2.8-0.1c0,0.3,0.1,0.7,0.2,1.1c0,1.2,0,2.3,0,3.5
			c0,0.5,0,1,0,1.6C210.9,49.4,211.8,49.4,212.7,49.4z M274.7,43.3c0.4,1.9,0,4,0.2,6c0.9,0,1.8,0,2.7,0c0-2.1,0.1-4,0-6
			c-0.1-1.9-1.4-2.9-3.3-2.7c-0.9,0.1-1.6,0.6-2.4,1.1c-0.1-0.3-0.1-0.5-0.1-0.7c-0.9,0-1.8,0-2.6,0c0,2.8,0,5.6,0,8.4
			c0.9,0,1.8,0,2.7,0c0-2,0-4,0-6C272.8,43,273.6,42.6,274.7,43.3z M83.5,41c0,2.1,0,4,0,6c-0.4,0.2-0.7,0.3-1,0.4
			c-1.1,0.3-1.9-0.2-2-1.4c0-0.9,0-1.8,0-2.8c0-0.8,0-1.5,0-2.3c-1,0-1.8,0-2.7,0c0,2,0,3.9,0,5.8c0,0.3,0.1,0.7,0.2,1
			c0.3,0.8,0.8,1.5,1.6,1.6c1,0.2,2.1,0.3,3.1-0.4c0.2-0.2,0.5-0.3,0.8-0.4c0.1,0.3,0.2,0.5,0.3,0.6c0.9,0,1.7,0,2.5,0
			c0-2.8,0-5.6,0-8.4C85.2,41,84.4,41,83.5,41z M99.6,42.9c-0.1,1.7,0.3,2.5,1.8,3c0.8,0.3,1.6,0.4,2.4,0.5c0.8,0.2,0.8,0.3,0.7,1.1
			c-1.7,0.5-3.3,0-4.9-0.8c0,0.8,0,1.5,0,2.3c1.9,0.8,3.9,0.9,5.8,0.3c1.6-0.5,2.5-1.6,2.2-3.3c-0.5-1-1.2-1.6-2.3-1.8
			c-0.9-0.1-1.8-0.4-2.7-0.7c-0.2-0.7,0.2-1,0.7-1c1-0.1,1.9-0.1,2.8,0.3c0.3,0.2,0.7,0.3,1.2,0.4c0-0.8,0-1.4,0-2.1
			c-1-0.6-2.2-0.7-3.3-0.7C102.1,40.6,100.5,41,99.6,42.9z M119.2,42.6c0.9,0,1.7-0.1,2.4,0s1.4,0.4,2.2,0.6c0-0.8,0-1.4,0-2
			c-1.4-0.7-2.8-0.7-4.3-0.6c-1.5,0.2-2.7,0.8-3.3,2.2c-0.3,1.6,0.5,2.7,2,3.2c0.7,0.2,1.4,0.3,2.2,0.4c0.5,0.1,1,0.2,0.8,1
			c-1.7,0.6-3.3,0.1-5-0.7c0,0.8,0,1.5,0,2.2c1.7,0.8,3.5,0.7,5.2,0.5c0.6-0.1,1.2-0.3,1.6-0.7c0.9-0.6,1.4-1.4,1.2-2.5
			c-0.2-1-0.9-1.7-2-1.9c-0.8-0.2-1.6-0.3-2.4-0.5c-0.2-0.1-0.4-0.2-0.7-0.3C119.1,43.3,119.1,43.1,119.2,42.6z M165.2,49.4
			c1,0,2,0,3,0c0-3.1,0-6,0-9.1c1.2,0,2.3,0,3.4,0c0-0.7,0-1.4,0-2.1c-3.3,0-6.6,0-9.9,0c0,0.8,0,1.4,0,2.2c1.2,0,2.3,0,3.5,0
			c0,1.6,0,3,0,4.5C165.2,46.4,165.2,47.8,165.2,49.4z M144.2,42.9c0,2.2,0,4.3,0,6.4c1,0,1.8,0,2.8,0c0-2.2,0-4.3,0-6.5
			c0.7,0,1.4,0,2.1,0c0-0.7,0-1.3,0-1.9c-0.8,0-1.5,0-2.4,0c0.2-0.4,0.2-0.8,0.4-1c0.8-0.7,1.7-0.3,2.6-0.2c0-0.7,0-1.2,0-1.9
			c-1-0.3-2-0.3-2.9-0.2c-1,0.2-2,0.6-2.4,1.7c-0.2,0.5-0.2,1-0.3,1.6c-0.3,0-0.7,0.1-1,0.1c0,0.6,0,1.2,0,1.8
			C143.4,42.8,143.7,42.9,144.2,42.9z M153.5,42.8c0.8,0,1.4,0,2,0c0-0.7,0-1.3,0-1.9c-0.8,0-1.5,0-2.2,0c0.1-0.4,0.2-0.8,0.3-1
			c0.9-0.7,1.7-0.3,2.6-0.3c0-0.6,0-1.2,0-1.9c-1-0.3-2-0.3-2.9-0.1c-1.4,0.3-2.3,1.1-2.5,2.6c0,0.2,0,0.4-0.1,0.6
			c-0.4,0.1-0.7,0.1-1,0.2c0,0.6,0,1.2,0,1.8c0.4,0.1,0.7,0.1,1.1,0.2c0,2.2,0,4.3,0,6.4c0.9,0,1.8,0,2.7,0
			C153.5,47.2,153.5,45.1,153.5,42.8z M191.2,48.9c0-0.3,0-0.7,0-1.1c0-0.4,0-0.7,0-1.3c-0.5,0.4-0.9,0.6-1.2,0.9
			c-1,0.7-2.8,0.5-3.5-0.3c-0.8-0.9-0.5-3.3,0.5-4.1c0.1-0.1,0.3-0.2,0.5-0.2c0.8-0.1,1.5-0.2,2.3,0.2c0.5,0.3,0.9,0.6,1.5,0.9
			c0-0.9,0-1.7,0-2.4c-1.3-0.7-2.6-0.9-4-0.7c-1.8,0.3-3.3,1.1-3.9,3c-0.5,1.7-0.2,3.8,1.2,4.9C186,49.9,189.3,50.1,191.2,48.9z
			 M109.6,40.9c-0.4,0-0.8,0.1-1.1,0.1c0,0.7,0,1.2,0,1.9c0.4,0,0.7,0,1.1,0.1c0,0.5,0,1,0,1.5c0,1.1,0,2.1,0.1,3.2
			c0.1,1,0.7,1.7,1.7,1.9c1.1,0.3,2.3,0.2,3.5,0c0-0.7,0-1.3,0-2c-0.4,0.1-0.7,0.2-1,0.2s-0.7,0-1-0.1c-0.6-0.9-0.8-3.4-0.4-4.9
			c0.8,0,1.6,0,2.4,0c0-0.6,0-1.2,0-1.9c-0.9,0-1.7,0-2.6,0c0-0.8,0-1.5,0-2.2c-0.9,0-1.8,0-2.7,0C109.6,39.4,109.6,40.1,109.6,40.9
			z M126.1,42.9c0,0.5,0,0.8,0,1.2c0,1.1,0,2.1,0,3.2c0.1,1.2,0.6,2,1.7,2.2c1.1,0.2,2.3,0.2,3.4,0c0-0.7,0-1.3,0-1.9
			c-0.6,0.1-1,0.1-1.5,0.1s-0.9-0.3-0.9-0.8c-0.1-1.3,0-2.7,0-4c0.9,0,1.7,0,2.5,0c0-0.7,0-1.3,0-2c-0.9,0-1.7,0-2.5,0
			c0-0.8,0-1.5,0-2.2c-0.9,0-1.8,0-2.7,0c0,0.8,0,1.5,0,2.2c-0.4,0.1-0.7,0.1-1,0.1c0,0.6,0,1.2,0,1.8
			C125.4,42.9,125.7,42.9,126.1,42.9z M228.9,49.4c0-4,0-7.9,0-11.8c-0.9,0-1.7,0-2.6,0c0,4,0,7.9,0,11.8
			C227.2,49.4,228,49.4,228.9,49.4z M253.5,41c0,2.9,0,5.6,0,8.4c0.9,0,1.8,0,2.7,0c0-2.8,0-5.6,0-8.4C255.2,41,254.4,41,253.5,41z
			 M256.2,37.6c-1,0-1.8,0-2.7,0c0,0.7,0,1.4,0,2c0.9,0,1.8,0,2.7,0C256.2,38.9,256.2,38.3,256.2,37.6z M222.1,32.7
			c-0.2,0.6-0.4,1-0.6,1.6c0.3,0,0.6,0,0.8,0C222.6,32.9,222.6,32.9,222.1,32.7z M230.4,34.3c0-0.3,0-0.6,0-0.9
			C230,33.7,230,34,230.4,34.3z M240.3,10.9c0.1,0,0.2,0,0.3,0c0-0.2,0-0.5,0-0.7c-0.1,0-0.2,0-0.3,0
			C240.3,10.4,240.3,10.7,240.3,10.9z M240.6,11.9c-0.1,0-0.2,0-0.3,0c0,0.2-0.3,0.5,0.3,0.8C240.6,12.4,240.6,12.1,240.6,11.9z
			 M234.8,28.3c0.1,0,0.2,0,0.3,0c0-0.2,0-0.5,0-0.7c-0.1,0-0.2,0-0.3,0C234.8,27.9,234.8,28.1,234.8,28.3z M237.2,21.9
			c-0.1,0-0.2,0-0.3,0c0.1,0.2,0.1,0.4,0.2,0.7c0.1,0,0.1,0,0.2,0C237.2,22.3,237.2,22.1,237.2,21.9z M241.1,10.8
			c0.1,0.1,0.1,0.1,0.2,0.2c0-0.1,0.1-0.2,0.1-0.3l-0.1-0.1C241.2,10.7,241.2,10.7,241.1,10.8z M240.6,34c-0.1,0-0.2,0-0.3,0
			c0,0.1,0.1,0.2,0.1,0.3c0.1,0,0.1,0,0.2,0C240.6,34.2,240.6,34.1,240.6,34z"/>
		<path class="st1" d="M41.5,43.1c0,2.1,0,4.2,0,6.4c-8.4,0-16.9,0-25.4,0c0-16,0-32.1,0-48.3c8.4,0,16.8,0,25.4,0
			c0,2.2,0,4.4,0,6.6c-0.9,0.1-1.9,0.1-2.9,0.3c-2.5,0.4-4.8,1.3-6.9,2.7c-2.2,1.5-4,3.3-5.3,5.6s-2.2,4.7-2.3,7.4
			c0,0.7-0.3,1.3-0.2,2c0.3,1.5,0.3,3,0.7,4.4c0.6,2.1,1.5,3.9,2.7,5.6c1.8,2.4,4,4.2,6.8,5.5C36.5,42.5,38.9,42.8,41.5,43.1z"/>
		<path class="st2" d="M219.8,4.4c0-0.2,0-0.4,0-0.5c0.1,0,0.1,0,0.2-0.1c0.2,0,0.4,0,0.6-0.1c0-0.4,0-0.7,0.1-1
			c0.3-0.4,0.6-0.7,0.9-1c0.4,0,0.8,0,1.2,0c0.1,0,0.3-0.2,0.4-0.4c2.4,0,4.8,0,7.2,0c0,10.3,0,20.5,0,30.7l0,0c-0.1,0-0.1,0-0.2,0
			c0-0.3,0-0.6-0.1-1.1c-0.1,0.5-0.2,0.7-0.2,0.9c-2.4,0-4.7,0-7,0c0-0.1-0.1-0.3-0.1-0.4c0-4.6,0-9.1,0-13.7c0-0.9-0.1-1.9-0.2-2.8
			c0-0.3,0-0.6,0.1-0.9c0.2-0.9,0.2-1.7-0.3-2.6c-1,0.3-0.9,1.4-1.4,1.8c0.1,0.5,0.1,0.8,0.1,1.2c-0.1,0.2-0.2,0.5-0.3,0.7
			c-0.3,0.9-0.7,1.8-1,2.7l0,0c-0.4,1-0.8,2-1.3,3c-0.2,0.4-0.4,0.8-0.6,1.2c-0.4,0.7-0.7,1.5-1,2.2c-0.3,0.1-0.5,0.3-0.8,0.4
			c-1.3,0-2.7,0-4,0c-0.3-0.2-0.5-0.3-0.7-0.4c0-0.2,0-0.5,0-0.8c-0.3-0.2-0.5-0.3-0.8-0.5l0,0c0.1-0.9-0.1-1.4-0.7-1.7
			c-0.1,0-0.1,0-0.2-0.1c-0.7-1.7-1.4-3.5-2.2-5.2c-0.2-0.4-0.3-0.9-0.4-1.3c0.2-0.5,0.3-0.9,0.5-1.4c-0.5-0.3-0.9-0.6-1.3-0.8
			c0-0.4-0.1-0.7-0.1-1.1c-0.1,0-0.1-0.1-0.2-0.1c-0.1,0.1-0.2,0.3-0.4,0.4c0,0.2,0,0.3,0,0.5c-0.1,0.4-0.2,0.7-0.2,1.1
			c0,5.7,0,11.5,0,17.2c0,0.4-0.1,0.7-0.1,1.2c-2.3,0-4.5,0-6.7,0c0-0.3,0-0.5-0.1-0.8l0,0c0.7-0.1,0.4-0.7,0.4-1
			c0-8.4,0-16.9,0-25.3c0-0.3,0-0.5-0.1-0.8c-0.2,0-0.3-0.1-0.4-0.1c-0.1,0-0.3,0-0.4,0c0-0.8,0-1.6,0-2.5c2.7,0,5.4,0,8.1,0
			c0.1,0.1,0.1,0.3,0.2,0.3c0.6,0.1,1.1,0.4,1.1,1.1c0,0.1,0.3,0.1,0.4,0.2l0,0c0.1,0.3-0.2,0.8,0.4,0.9l0,0c0,0.5,0,1,0,1.5
			c0.4,0.6,0.8,1.2,1,1.5c0.5,1.1,0.8,2.1,1.2,3c0.1,0.1,0.2,0.1,0.3,0.2c0.3,0.8,0.5,1.6,0.9,2.3c0.3,0.6,0.3,1.3,1.1,1.6
			c0.4,0.8,0.8,1.7,1.3,2.7c0.4-1,0.8-1.8,1.2-2.7c1.3-2.9,2.6-5.8,3.9-8.7c0.1-0.1,0.1-0.2,0.2-0.3l0,0C220,5,219.8,4.6,219.8,4.4z
			"/>
		<path class="st2" d="M321,20.8c-0.6-1-1.2-2-1.7-3c0.2-0.2,0.3-0.4,0.5-0.7c-0.3-0.4-0.6-0.7-0.9-1.1c-0.3-0.1-0.7-0.2-1-0.4
			c-0.8-1.3-1.6-2.6-2.5-3.9c-0.1-0.2-0.2-0.3-0.5-0.4c0,0.4,0,0.7,0,1.1c0,6.3,0,12.6,0,18.9c0,0.2-0.1,0.4-0.1,0.6
			c-0.3-0.1-0.6-0.2-0.9-0.2c-1.7,0-3.4,0-5.1,0c-0.3,0-0.6-0.1-1-0.1c0-10,0-19.9,0-29.8c0.1-0.2,0.2-0.4,0.4-0.6
			c2.9,0,5.9,0,8.9,0c2,3.2,4,6.4,6,9.6c0,0.3,0,0.6,0,0.9c0.3,0.2,0.6,0.4,0.9,0.5c0.4,0.7,0.9,1.4,1.3,2.1c0,0.2,0,0.5,0,0.8
			c0.3,0.2,0.6,0.3,0.9,0.5l0,0c0,0.3,0,0.6,0.1,0.8c0.4,0.7,0.9,1.5,1.4,2.2c0.1-0.1,0.2-0.1,0.3-0.1v0.1c0.1,0.1,0.1,0.3,0.2,0.3
			s0.3-0.1,0.4-0.2c0.3-0.4,0.3-0.8,0-1.3c-0.2-1.4,0.1-2.8,0-4.2c-0.1-4-0.2-8,0.2-12c2.3,0,4.5,0,6.8,0c0,9.9,0,19.9,0,29.8
			c0,0.2-0.1,0.5-0.1,0.8c-2.6,0-5.1,0-7.6,0c0,0,0-0.1-0.1-0.1c0-0.2,0-0.3,0.1-0.6c-0.2-0.2-0.5-0.3-0.7-0.5
			c-1.3-2.2-2.6-4.3-3.9-6.5c0-0.3,0-0.7,0-0.9c-0.3-0.4-0.4-0.7-0.6-1c-0.3-0.4-0.4-1-1.1-1l0,0C321.5,20.9,321.4,20.8,321,20.8z
			 M314.8,11.6h-0.1c0,6.5,0,13.1,0,19.6h0.1C314.8,24.7,314.8,18.1,314.8,11.6z M314.9,10.7L314.9,10.7L314.9,10.7L314.9,10.7z"/>
		<path class="st2" d="M287.7,11.8c0.6,0.9,1.2,1.7,1.8,2.6c0.9,1.4,1.7,2.7,2.6,4.2c0.1-0.3,0.1-0.5,0.2-0.8
			c0.1,0.2,0.1,0.3,0.2,0.5c0.2-0.3,0.4-0.5,0.4-0.5c-0.1-0.6-0.3-1-0.3-1.4c0-4.1,0-8.2,0-12.3c0-0.2,0-0.5,0.1-0.7
			c0.7-0.3,1.4,0.1,2-0.5c-0.6,0-1.3,0-2.1,0c0-0.6,0-1.2,0-1.7c2.1,0,4.3,0,6.4,0c0.1,0.2,0.3,0.5,0.4,0.6c0,9.9,0,19.8,0,29.9
			c-0.4,0-0.8-0.1-1.3-0.1c0.1-0.1,0,0.1-0.1,0.1c-1.8,0-3.6,0-5.3,0c-0.4-0.1-0.8-0.2-1.2-0.4c-2-3.2-4-6.5-5.9-9.7
			c-2.1-3.5-4.3-7-6.5-10.5c0,0-0.1,0-0.2,0c0,0.4,0,0.8,0,1.3c0,5.9,0,11.7,0,17.6c0,0.3,0,0.6,0,1c-0.6,0-0.2,0.7-0.7,0.8
			c-1.6,0-3.2,0-4.8,0c-0.5,0-1.1-0.1-1.6-0.2c0-0.2,0-0.5,0-0.7c0-8.7,0-17.3,0-26c0-0.4-0.1-0.8-0.1-1.1c0-0.1,0-0.2,0-0.4
			c0-0.6,0-1.2,0-1.7c0-0.1,0-0.2,0-0.4c3.1,0,6.3,0,9.5,0c1.1,1.7,2.2,3.4,3.2,5.1c0.8,1.2,1.5,2.4,2.3,3.6
			c0.1,0.2,0.3,0.5,0.4,0.7c0,0.3,0,0.7,0,1.1C287.3,11.8,287.5,11.8,287.7,11.8z M298.7,3.9c-0.1,0-0.2,0-0.3,0c0,0.4,0,0.7,0,1.1
			c0,6.6,0,13.2,0,19.8c0,1.8,0,3.7,0,5.5c0,0.2,0.1,0.4,0.2,0.8C299,30,299,4.6,298.7,3.9z"/>
		<path class="st2" d="M66,31.4c0-0.5,0-0.9,0-1.4c0-9.1,0-18.1,0-27.2c0-0.4,0-0.8,0-1.2c0.3,0,0.5,0,0.8,0c0,0.1,0,0.3,0,0.4
			c0,0.7,0.6,0.4,0.9,0.4c3.9,0,7.8,0,11.7,0c0.2,0,0.5,0,0.7,0c0.1,0,0.2-0.3,0.3-0.4c0-0.2,0-0.4,0.1-0.6c0.4,0,0.7,0,1,0
			c1.9,0,3.8,0.4,5.5,1.3c1.8,0.9,2.8,2.4,3.2,4.4c0.3,1.4,0.1,2.6-0.4,3.9c-0.1,0-0.2-0.1-0.3-0.1c-0.7,0.5-0.4,1.9-1.6,1.8
			c-0.1,0.4-0.1,0.7-0.2,1.1l0,0c-0.1,0.1-0.2,0.1-0.2,0.2c-0.5,0.4-1,0.7-1.5,1.1c1.5,0.5,2.9,0.9,4,1.9c1.5,1.3,2.3,2.9,2.4,4.8
			c0.1,1.3,0,2.5-0.4,3.7c-0.6,1.8-1.7,3.2-3.3,4.2c-0.7,0.5-1.6,0.8-2.4,1.2c-0.4,0-0.8,0-1.3,0c-0.2,0.1-0.4,0.3-0.6,0.4
			c-5.4,0-10.8,0-16.2,0c-0.3,0-0.6,0-0.8,0c-0.1,0-0.2,0.3-0.4,0.4C66.5,31.7,66.3,31.5,66,31.4z M81.4,7.7L81.4,7.7
			c0-0.7-0.6-0.5-1-0.5l0,0c0-0.1,0-0.3,0-0.3c-0.6-0.2-1-0.4-1.6-0.6c-0.4,0-0.9,0-1.5,0c-0.3,0.2-0.7,0.4-1,0.4
			c-0.6,0.1-1.2,0.1-1.8,0.1c-0.2,0-0.3,0.1-0.5,0.1h-0.1c-0.1,0-0.1,0-0.2,0c0,0-0.1,0-0.1,0.1c0,2,0,4,0,6l0.1,0.1
			c0.1,0.1,0.2,0.1,0.3,0.2l0,0c0,0.2,0.1,0.4,0.1,0.8c0.4-0.2,0.7-0.4,1.1-0.5c1.6,0,3.2,0,4.9,0c0.6-0.4,1.2-0.8,1.7-1.1
			c0.3-0.6,0.5-1,0.7-1.4c0-0.8,0-1.6,0-2.5c-0.3-0.1-0.6-0.3-0.9-0.5l0,0c0-0.1,0-0.2,0-0.3S81.5,7.7,81.4,7.7z M79.9,26.5
			c0.5-0.1,0.9-0.3,1.4-0.4c2.7-0.7,3.2-3,2.5-5.2c-0.4-1.3-1.5-1.9-2.8-2c-2-0.1-4.1-0.2-6.1-0.2c-0.3,0-0.5,0-0.8,0.1
			c0,2.6,0,5.2,0,7.8c0,0.3,0,0.7,0,1c0.3,0,0.5,0,0.7,0c0.1-0.3,0.1-0.5,0.2-0.9c0.4,0.2,0.7,0.3,1,0.4c0.1-0.1,0.1-0.2,0.2-0.2
			c1.3-0.1,2.7-0.1,4-0.2v-0.1C80.2,26.5,80,26.5,79.9,26.5z M73.6,26.1L73.6,26.1c0.1-2.4,0.1-4.9,0.1-7.3h-0.1
			C73.6,21.2,73.6,23.7,73.6,26.1z"/>
		<path class="st2" d="M162.5,31c0-0.3,0-0.6,0-0.9c0-9.3,0-18.5,0-27.8c0-0.3,0-0.6,0-1c2.5,0,4.9,0,7.3,0c0.1,0.2,0.3,0.4,0.4,0.6
			c0,3.1,0,6.3,0,9.4c0,0.3,0.1,0.7,0.2,1c0.2,0.1,0.4,0.3,0.6,0.3c3.5,0,7.1,0,10.6,0c0.2,0,0.4-0.1,0.7-0.2c0,0.1,0.1,0.1,0.1,0.2
			c0,0,0,0.1,0.1,0.1h0.1c0-0.5,0-1.1,0-1.6c0-0.1-0.2-0.2-0.3-0.3c0-0.6-0.1-1.1-0.1-1.7c0-2.2,0-4.4,0-6.6c0-0.3,0-0.7,0-1.1
			c2.5,0,4.8,0,7.2,0c0.1,0.2,0.3,0.5,0.4,0.7c0,9.8,0,19.6,0,29.4c0,0.1-0.1,0.3-0.1,0.4c-2.4,0-4.7,0-7,0
			c-0.1-0.2-0.1-0.4-0.2-0.6h-0.1c0,0.3,0,0.5,0,0.8c0-0.3-0.1-0.7-0.1-1c0-3.9,0-7.8,0-11.7c0-0.3,0-0.6-0.1-0.8c0-0.3,0-0.7,0-1
			c-0.3,0-0.5,0-0.7,0c-0.1,0.3-0.2,0.5-0.2,0.9c-0.4-0.1-0.6-0.3-0.8-0.3c-0.5,0.1-0.9,0.2-1.3,0.2c-2.5,0-4.9,0-7.4,0
			c-0.3,0-0.7,0.1-1,0.2c-0.1,0.1-0.2,0.2-0.3,0.3c-0.1,0.3-0.2,0.7-0.2,1c0,3.6,0,7.2,0,10.8c0,0.3,0,0.7,0,1c-1,0.5-5,0.5-5.6,0.2
			c-0.6,0.1-1.1,0.2-1.4,0.2C162.8,31.5,163.1,30.9,162.5,31z M163.5,30.9c0.3-0.7,0.3-26.3,0-27C163.2,4.6,163.2,30.1,163.5,30.9z"
			/>
		<path class="st3" d="M104.2,28.3c-0.4,1.2-0.8,2.4-1.2,3.6c-2.4,0-4.7,0-6.9,0c-0.4-0.2-0.6-0.3-0.9-0.5c0.7-2,1.5-4,2.2-6
			c0.8,0.2,0.6-0.8,1.2-0.9c0-0.7,0-1.4,0-2.1l0,0c0.1,0,0.2,0,0.3,0c0.2-0.4,0.4-0.8,0.6-1.1c0-0.4,0-0.8,0-1.2
			c0.5-1.4,0.9-2.7,1.4-4.1c0.6-1.5,1.2-3,1.7-4.5c1-2.6,1.9-5.1,2.9-7.7c0.3-0.8,0.6-1.6,0.9-2.5c3,0,6,0,9.2,0
			c0.3,0.6,0.5,1.3,0.8,2c0.7,1.9,1.4,3.9,2.2,5.8c0.8,2,1.6,4.1,2.3,6.1c0.7,1.9,1.4,3.8,2.1,5.7c1,2.6,1.9,5.2,2.9,7.8
			c0.3,0.9,0.6,1.7,0.9,2.6c-0.3,0.1-0.5,0.3-0.8,0.4c-1.9,0-3.8,0-5.8,0c-0.5,0-1,0.1-1.3-0.4c-0.1,0.1-0.2,0.1-0.2,0.2
			c-0.7-1.9-1.4-3.7-2.1-5.7c-3.8,0-7.6,0-11.4,0c-0.2,0.5-0.4,1-0.7,1.5c0,0.1-0.1,0.1-0.1,0.2l0,0C104.4,27.8,104.3,28,104.2,28.3
			z M114.7,20.2c-1.3-3.7-2.5-7.2-3.7-10.8c-0.1,0-0.1,0-0.2,0c-1.2,3.6-2.5,7.1-3.7,10.8C109.7,20.2,112.1,20.2,114.7,20.2z"/>
		<path class="st3" d="M238.5,22v-0.1c0.5-1.4,1.1-2.8,1.6-4.1c0.1-0.1,0.1-0.1,0-0.2c0.3-0.8,0.6-1.6,0.8-2.4l0.1-0.1
			c0.4-1.1,0.9-2.3,1.3-3.4l0,0c0.4-0.9,0.7-1.8,1.1-2.8l0,0c0.1,0,0.1,0,0.2,0c1-0.3,0.9-1.1,0.9-1.6c0.6-1.6,1.1-2.9,1.7-4.3
			c0-0.2,0-0.6,0-0.9l0,0c0.5-0.1,0.8-0.4,0.9-0.8c2.8,0,5.6,0,8.6,0c0.5,1.5,1.1,3,1.6,4.5c0,0.4,0,0.9,0,1.3c0.2,0,0.3,0,0.5,0.1
			l0,0c-0.2,0.9,0.3,1.7,0.5,2.5c0.5,0.1,0.1,1,0.8,0.9c0.3,0.7,0.7,1.4,1,2.2c0.9,2.5,1.8,5.1,2.8,7.6c0.7,2,1.5,3.9,2.2,5.9
			c0.6,1.6,1.1,3.2,1.7,4.8c0,0.2-0.1,0.5-0.2,0.7c-2,0-3.9,0-5.8,0c-0.1-0.1-0.2-0.4-0.4-0.4c-0.4-0.1-0.8,0-1.1,0
			c-0.3-0.2-0.5-0.4-0.6-0.5c0-0.6,0-1.1,0-1.5c-0.2-0.1-0.3-0.1-0.5-0.2c0-0.3,0-0.6-0.1-1c-0.3-0.2-0.5-0.5-0.8-0.7
			c0-0.6,0-1-0.1-1.5c-0.3,0-0.4,0-0.6,0c-0.1,0-0.3,0-0.4,0s-0.3,0-0.4,0s-0.1,0-0.2,0c-0.3,0-0.6,0-0.9,0c-0.4,0-0.7,0-1.1,0
			c-2.1,0-4.3,0-6.4,0c-0.7,0-1.5,0-2.2,0c-0.2,0.6-0.3,1.1-0.5,1.7c0,0-0.1,0.1,0,0.2c0,0.1-0.1,0.2-0.1,0.2c0,0.1,0,0.3-0.1,0.4
			c-0.2,0.4-0.3,0.8-0.5,1.3c0,0.1-0.1,0.3-0.1,0.4c-0.1,0.3-0.1,0.6-0.2,0.8c-0.1,0-0.1,0-0.2,0c-0.1-0.2-0.3-0.3-0.4-0.5
			c0,0.4-0.1,0.9-0.1,1.2c-0.7,0.4-1.2-0.1-1.7-0.3c-0.2,0.2-0.5,0.3-0.7,0.5c-1.2-0.3-2.5,0.4-3.8-0.3h-0.1v0.1
			c-0.3,0-0.6,0.1-1,0.1c0-0.5,0-0.9,0-1.3c0-0.1,0-0.2,0-0.3l0,0c0.1-0.4,0.3-0.9,0.4-1.3c0,0,0.1-0.1,0-0.1
			c0.2-0.4,0.4-0.8,0.6-1.2c0.1-0.1,0.1-0.3,0.2-0.4c0-0.1,0-0.1,0-0.2s0-0.1,0.1-0.2c0.1-0.4,0.3-0.9,0.4-1.3l0,0
			C237.7,24.3,238.1,23.2,238.5,22z M247,20.2c2.6,0,5,0,7.6,0c-1.2-3.7-2.5-7.3-3.8-11C249.5,13,248.3,16.5,247,20.2z"/>
		<path class="st4" d="M142.5,25.8c1.8,0.7,3.6,1,5.5,0.9c0.3,0.1,0.5,0.3,0.9,0.5c0.1-0.2,0.1-0.3,0.2-0.5c0.8,0,1.5,0,1.9-0.8
			c1.6-1.1,3.1-2.1,4.7-3.2c0.3,0.4,0.4,0.9,0.4,1.4c0,1.9,0,3.7,0,5.6c0,0.1,0,0.3,0,0.4l0,0c-0.5,0-1.1,0-1.6,0
			c0,0.3-0.1,0.6-0.1,0.8c-0.1,0-0.1,0-0.2,0c-0.4,0-0.8,0-1,0c-0.5,0.2-0.8,0.3-1,0.4c-0.1,0.1-0.2,0.2-0.3,0.4
			c-2.8,0.9-5.6,1-8.5,0.8c-1.3-0.1-2.5-0.3-3.7-0.7c-3.4-1.1-6.1-3-7.8-6.2c-2-3.5-2.4-7.3-2-11.3c0.1-1.3,0.3-2.5,0.7-3.7
			c1.2-3.8,3.5-6.6,7.2-8.4c2.9-1.4,6-1.9,9.2-1.7c2.7,0.2,5.4,0.7,8,1.9c0.3,0.1,0.5,0.3,0.7,0.4c0.1,0.2,0.3,0.5,0.4,0.7
			c0,2.3,0,4.6,0,6.9c-0.2,0-0.4,0-0.6,0.1c-0.1-0.1-0.2-0.1-0.3-0.2c0-0.2,0-0.4,0-0.6c-0.3,0-0.5,0-0.8,0c0,0-0.1,0-0.1-0.1
			c-0.1-0.1-0.3-0.2-0.4-0.3c-1.3-0.7-2.5-1.4-3.8-2.1c-0.1-0.1-0.1-0.3-0.3-0.4c-0.3-0.2-0.6-0.3-1-0.4c-1.6,0-3.3,0-5,0
			c-0.2,0.3-0.4,0.5-0.6,0.8c-1.2,0.7-2.4,1.4-3.3,2.5c-1,1.4-1.7,3-1.8,4.7c0,0.3-0.1,0.6-0.2,0.9c0-0.3-0.1-0.5-0.1-0.8
			c-0.2,0.4-0.3,0.7-0.5,1.1c0.1,0.1,0.2,0.2,0.3,0.3c-0.6,0.7-0.3,1.6-0.4,2.4c0.2,0.2,0.4,0.5,0.6,0.8c0-0.4,0-0.6,0-0.8
			c0.1,0.4,0.1,0.7,0.2,1.1c0.1,0.5-0.2,1,0.3,1.5c0.2,0.5,0.4,1,0.7,1.5c0.4,0.7,0.8,1.3,1.2,1.9c0,0.2,0,0.5,0,0.7
			C141,25.4,141.6,25.9,142.5,25.8z"/>
		<path class="st5" d="M51.3,24.1c0,0.8,0.2,1.7,0.1,2.5c-0.2,1.7-0.8,3.3-1.8,4.6c-0.7,0.9-1.4,1.7-2.3,2.3
			c-0.7-0.2-0.8-0.1-0.9,0.6c-0.2,0.1-0.4,0.2-0.6,0.2c-0.5,0-1.1-0.1-1.4,0.4c-0.5,0-0.9,0-1.2,0c-0.2,0.2-0.4,0.3-0.5,0.4
			c-1,0-1.9,0-2.7,0c-0.8-0.3-1.4-0.6-2.1-0.9c-0.2,0-0.5,0-0.9,0c-0.9-0.2-1.5-0.8-2.2-1.4c-0.1-0.1-0.2-0.2-0.4-0.3
			c-0.1,0-0.1-0.1-0.1-0.1c-0.1-0.7-0.9-2.3-1.4-2.6c-0.3-0.7-0.6-1.5-0.9-2.3c-0.1,0-0.2,0-0.4,0c-0.3-1.1-0.3-2.3-0.1-3.4
			c0.6-0.1,0.4-0.7,0.6-1.1c0.4-0.7,0.8-1.5,0.6-2.4c0.7-1.4,1.7-2.5,3-3.4c0.1-0.1,0.3-0.1,0.4-0.2c2.3-2,8-2,10.3-0.2
			c0,0.1,0.1,0.3,0.1,0.5c0.3,0,0.5,0,0.7,0c0.1,0,0.1,0,0.1,0.1c-0.1,0.2-0.1,0.4-0.2,0.6c0.5,0.3,0.9,0.5,1.3,0.7l-0.1,0.1
			c0.4,0.5,0.7,1,1.1,1.5c0.2-0.1,0.3-0.1,0.4-0.2c0.2,0.3,0.4,0.5,0.5,0.8c-0.1,0-0.3,0-0.3,0c0.1,0.5,0.2,0.9,0.3,1.3
			c0.1,0.1,0.2,0.2,0.3,0.3c0,0.6,0.1,1,0.1,1.5C51,24.1,51.2,24.1,51.3,24.1z"/>
		<path class="st1" d="M6.5,1.3c2,0,4,0,6,0c0,16.1,0,32.2,0,48.3c-2,0-4,0-6,0C6.5,33.5,6.5,17.4,6.5,1.3z"/>
		<path class="st1" d="M3.7,1.2c0,16.2,0,32.2,0,48.3c-1,0-1.9,0-3,0c0-16.1,0-32.2,0-48.3c0.5,0,1,0,1.5,0C2.7,1.2,3.2,1.2,3.7,1.2
			z"/>
		<path class="st6" d="M312.5,49.4c-0.9,0-1.7,0-2.7,0c0-2,0-4,0-5.8c-1-1.1-1.9-0.7-3-0.2c0,2,0,3.9,0,6c-0.9,0-1.8,0-2.8,0
			c0-2,0-4,0-5.9c-1-0.9-1.9-0.5-2.9-0.1c0,2,0,4,0,6c-1,0-1.8,0-2.7,0c0-2.8,0-5.5,0-8.4c0.8,0,1.7,0,2.7,0c0,0.2,0.1,0.4,0.2,0.7
			c1.9-1.3,3.4-1.7,5.3,0.2c0.6-0.3,1.2-0.7,1.8-1c1-0.5,2.8-0.5,3.6,0.9c0.2,0.4,0.4,0.8,0.4,1.2C312.5,45.1,312.5,47.2,312.5,49.4
			z"/>
		<path class="st7" d="M333.5,49.4c0-1.7,0-3.2,0-4.8c-1.4,0-2.8,0-4.2,0c0,1.6,0,3.1,0,4.8c-1,0-1.9,0-2.9,0c0-3.7,0-7.5,0-11.2
			c0.9,0,1.8,0,2.8,0c0,1.4,0,2.6,0,4c1.5,0,2.9,0,4.3,0c0-1.3,0-2.6,0-4c1,0,2,0,2.9,0c0,3.8,0,7.5,0,11.3
			C335.5,49.4,334.6,49.4,333.5,49.4z"/>
		<path class="st8" d="M295.9,38.9c0,0.9,0,1.7,0,2.8c-0.5-0.3-0.8-0.5-1.2-0.8c-1.3-0.9-2.7-1.2-4.1-0.7c-2.2,0.7-2.7,2.8-2.2,4.7
			s2,2.3,3.7,2.6c0.3,0,0.6,0,1,0c0-0.8,0-1.5,0-2.3c-0.8,0-1.6,0-2.4,0c0-0.7,0-1.3,0-1.9c0.7-0.2,4-0.3,5.2-0.1c0,1.8,0,3.6,0,5.4
			c-2,0.7-4.1,1.2-6.3,0.7c-3.4-0.7-4.9-3.5-4.5-6.6c0.2-1.5,0.9-2.9,2.3-3.7c0.7-0.4,1.5-0.8,2.3-1C291.9,37.7,293.8,38,295.9,38.9
			z"/>
		<path class="st6" d="M71.6,43.3c1.6,2,3.1,4,4.7,6.1c-1.3,0-2.4,0-3.7,0c-1.1-1.4-2.2-2.9-3.4-4.4c-0.6,0.3-0.8,0.7-0.8,1.3
			c0,1,0,2,0,3.1c-1,0-1.9,0-2.9,0c0-3.8,0-7.5,0-11.3c1,0,1.9,0,2.8,0c0,1.6,0,3.2,0,5.1c1.7-1.7,2.8-3.5,4.3-5.1c1,0,2,0,3.3,0
			C74.6,40,73.1,41.5,71.6,43.3z"/>
		<path class="st6" d="M247.8,41.1c1-0.3,1.9-0.2,2.9-0.2c0,0.1,0.1,0.2,0.1,0.3c0,2.6-0.1,5.3-0.1,7.9c0,2.2-1.4,3-2.8,3.3
			c-1.7,0.4-3.4,0.2-5.1-0.2c0-0.7,0-1.4,0-2.2c1.3,0.5,2.7,0.7,4.2,0.5c0.2-0.2,0.6-0.5,0.9-0.8c0.1-0.4,0.1-0.9,0.2-1.4
			c-0.6,0.2-1,0.4-1.5,0.5c-2.5,0.6-4.3-0.5-4.8-3c-0.3-1.4-0.1-2.9,0.9-4.1C243.9,40.5,246.2,40.2,247.8,41.1z M248,46.9
			c0-1.6,0-2.9,0-4.3c-0.4,0-0.8-0.1-1.2-0.1c-0.3,0-0.7,0.1-1,0.1c-1,0.9-1.4,2.4-1,3.6c0.2,0.5,0.5,0.8,1,0.8
			C246.5,47,247.2,47,248,46.9z"/>
		<path class="st7" d="M315.1,37.6c0.9,0,1.8,0,2.8,0c0,1.3,0,2.5,0,4c0.5-0.2,0.8-0.3,1.1-0.5c1.9-1.1,4.6-0.3,5,2.4
			c0.2,1.1,0.2,2.1,0,3.1c-0.5,2.6-3.4,3.9-5.6,2.6c-0.1-0.1-0.2-0.1-0.3-0.1c-0.9,0.8-1.9,0.2-2.9,0.4
			C315.1,45.5,315.1,41.6,315.1,37.6z M320.3,47.6c1.2-1.1,1.1-2.4,0.9-3.6c-0.1-1-1.2-1.6-2.2-1.3c-0.4,0.1-0.7,0.3-1,0.4
			c0,1.6,0,3,0,4.6C318.9,47.7,319.7,47.6,320.3,47.6z"/>
		<path class="st6" d="M201.5,49.4c-1,0-1.8,0-2.6,0c-0.3-2,0.2-4.1-0.3-6c-1.1-0.7-1.3-0.7-2.8,0c0,1.9,0,3.9,0,6c-1,0-1.8,0-2.7,0
			c0-3.9,0-7.8,0-11.8c0.9,0,1.7,0,2.7,0c0,1.3,0,2.6,0,4.1c0.5-0.3,0.9-0.5,1.4-0.7c1.1-0.5,2.2-0.5,3.3,0.2
			c0.8,0.5,1.1,1.3,1.1,2.2c0,1.1,0,2.2,0,3.3C201.5,47.5,201.5,48.4,201.5,49.4z"/>
		<path class="st7" d="M175.4,45.8c0.2,1,0.6,1.6,1.4,1.8c1.2,0.3,2.4,0.3,3.6-0.3c0.3-0.2,0.7-0.3,1.1-0.4c0,0.8,0,1.5,0,2.2
			c-2.3,0.8-4.6,1.1-6.8-0.1c-1-0.5-1.7-1.4-1.9-2.5c-0.3-1.8-0.1-3.5,1.4-4.8c1.6-1.3,4.4-1.4,6-0.4c0.7,0.4,1.1,1.1,1.3,1.9
			c0.2,0.8,0.2,1.6,0.3,2.6C179.6,45.8,177.5,45.8,175.4,45.8z M176.4,42.6c-0.4,0.5-1,0.7-0.9,1.5c1.2,0,2.4,0,3.7,0
			c-0.3-0.6-0.6-1-0.9-1.5C177.6,42.6,177,42.6,176.4,42.6z"/>
		<path class="st7" d="M267,46.8c0,0.8,0,1.4,0,2.2c-0.5,0.2-1,0.4-1.6,0.5c-1.1,0.1-2.3,0.2-3.4,0.1c-2.4-0.3-3.9-1.8-3.9-4.3
			c-0.1-2.6,1.7-4.4,3.9-4.6c0.9-0.1,1.8-0.1,2.6,0.1c1.4,0.4,2.3,1.4,2.5,2.9c0.1,0.6,0.1,1.2,0.1,2c-2.2,0-4.2,0-6.2,0
			c0,1,0.5,1.6,1.4,1.8c1.2,0.3,2.4,0.3,3.6-0.4C266.3,47,266.6,46.9,267,46.8z M261.8,42.6c-0.5,0.4-1,0.7-0.9,1.4
			c1.2,0,2.4,0,3.7,0c-0.3-0.5-0.5-1-0.8-1.4C263.1,42.6,262.5,42.6,261.8,42.6z"/>
		<path class="st8" d="M235.7,49.6c-1.6,0.1-3-0.3-4-1.6c-1.1-1.4-1.2-3-0.7-4.6c0.6-1.7,1.8-2.5,3.5-2.8c1.1-0.1,2.2-0.1,3.3,0.4
			s1.8,1.3,2.2,2.3c0.5,1.5,0.5,3.7-1.1,5.2C238.1,49.4,237,49.7,235.7,49.6z M236.8,47.5c0.9-1.5,0.8-2.9,0.3-4.3
			c-0.3-0.2-0.5-0.4-0.7-0.6c-0.6,0-1.1,0-1.7,0c-0.2,0.4-0.6,0.8-0.7,1.2c-0.1,0.8-0.1,1.7,0,2.5c0.1,0.9,0.7,1.3,1.6,1.3
			C236,47.7,236.4,47.6,236.8,47.5z"/>
		<path class="st8" d="M137.1,49.6c-1.2,0.1-2.4-0.3-3.4-1.2c-0.3-0.3-0.6-0.8-0.8-1.2c-0.7-1.5-0.7-4.3,1.1-5.6
			c1.3-1,2.7-1.1,4.2-0.9c1.1,0.1,2,0.6,2.7,1.4c1,1.2,1.3,2.7,1,4.3C141.4,48.6,139.6,49.8,137.1,49.6z M138.2,47.6
			c1.3-1.4,1.3-3.6-0.1-5c-0.5,0-1.1,0-1.5,0c-1.3,1.2-1.5,2.9-0.5,4.8C136.7,47.8,137.4,47.8,138.2,47.6z"/>
		<path class="st8" d="M219.3,49.6c-0.9,0-1.8-0.1-2.6-0.6c-0.9-0.5-1.6-1.3-1.8-2.4c-0.3-1.3-0.3-2.6,0.3-3.9
			c0.6-1.1,1.5-1.7,2.6-2c1.3-0.3,2.6-0.3,3.9,0.3c1.9,0.8,2.7,3,2.4,4.6C223.8,48.3,222.2,49.8,219.3,49.6z M220.3,42.7
			c-0.2,0-0.4-0.1-0.6-0.1c-1.2-0.1-1.6,0.1-2,1.3c-0.5,1.3-0.2,2.4,0.5,3.6c0.7,0.4,1.5,0.4,2.3,0.1
			C221.7,46,221.6,44.1,220.3,42.7z"/>
		<path class="st7" d="M88.8,49.4c0-2.8,0-5.6,0-8.4c0.9,0,1.8,0,2.7,0c0.1,0.2,0.1,0.3,0.2,0.6c0.4-0.2,0.8-0.4,1.2-0.6
			c1-0.5,2-0.5,3,0c0.9,0.4,1.4,1.3,1.4,2.2c0.1,2,0,4.1,0,6.2c-0.9,0-1.8,0-2.7,0c-0.3-2,0.3-4.2-0.4-6.1c-1-0.7-1.8-0.4-2.7,0.1
			c0,2,0,4,0,6C90.7,49.4,89.8,49.4,88.8,49.4z"/>
		<path class="st6" d="M212.7,49.4c-1,0-1.9,0-2.9,0c0-0.5,0-1.1,0-1.6c0-1.2,0-2.3,0-3.5c0-0.4-0.1-0.8-0.2-1.1
			c-1-0.7-1.9-0.4-2.8,0.1c0,2,0,3.9,0,6c-0.9,0-1.8,0-2.7,0c0-2.8,0-5.5,0-8.4c0.8,0,1.7,0,2.6,0c0,0.2,0.1,0.4,0.1,0.7
			c0.1,0,0.2-0.1,0.3-0.1c0.7-0.5,1.4-0.8,2.2-0.9c1.8-0.2,3,0.7,3.3,2.5c0.1,1.2,0.1,2.5,0.1,3.7C212.8,47.7,212.7,48.5,212.7,49.4
			z"/>
		<path class="st6" d="M274.7,43.3c-1.1-0.7-1.9-0.4-2.8,0c0,2,0,4,0,6c-0.9,0-1.8,0-2.7,0c0-2.8,0-5.5,0-8.4c0.9,0,1.7,0,2.6,0
			c0,0.2,0.1,0.5,0.1,0.7c0.8-0.5,1.5-1,2.4-1.1c1.9-0.2,3.2,0.8,3.3,2.7c0.1,2,0,4,0,6c-0.9,0-1.8,0-2.7,0
			C274.8,47.3,275.1,45.3,274.7,43.3z"/>
		<path class="st7" d="M83.5,41c1,0,1.8,0,2.7,0c0,2.8,0,5.6,0,8.4c-0.8,0-1.6,0-2.5,0c-0.1-0.2-0.2-0.4-0.3-0.6
			c-0.3,0.2-0.5,0.3-0.8,0.4c-1,0.6-2,0.6-3.1,0.4c-0.9-0.2-1.4-0.8-1.6-1.6c-0.1-0.3-0.2-0.7-0.2-1c0-1.9,0-3.8,0-5.8
			c0.9,0,1.7,0,2.7,0c0,0.7,0,1.5,0,2.3c0,0.9,0,1.8,0,2.8c0,1.1,0.9,1.7,2,1.4c0.3-0.1,0.6-0.3,1-0.4C83.5,45,83.5,43,83.5,41z"/>
		<path class="st8" d="M99.6,42.9c0.9-1.9,2.6-2.3,4.4-2.3c1.1,0,2.3,0.1,3.3,0.7c0,0.6,0,1.3,0,2.1c-0.4-0.2-0.8-0.3-1.2-0.4
			c-0.9-0.4-1.9-0.4-2.8-0.3c-0.5,0-0.9,0.3-0.7,1c0.9,0.2,1.8,0.5,2.7,0.7c1.1,0.2,1.9,0.7,2.3,1.8c0.3,1.7-0.5,2.9-2.2,3.3
			c-1.9,0.5-3.9,0.5-5.8-0.3c0-0.7,0-1.4,0-2.3c1.6,0.8,3.2,1.3,4.9,0.8c0.1-0.8,0-0.9-0.7-1.1c-0.8-0.2-1.6-0.3-2.4-0.5
			C99.9,45.4,99.5,44.6,99.6,42.9z"/>
		<path class="st8" d="M119.2,42.6c0,0.4-0.1,0.7-0.1,0.9c0.3,0.1,0.5,0.2,0.7,0.3c0.8,0.2,1.6,0.3,2.4,0.5c1.1,0.2,1.8,0.9,2,1.9
			c0.2,1.1-0.3,1.9-1.2,2.5c-0.5,0.3-1.1,0.6-1.6,0.7c-1.8,0.2-3.5,0.3-5.2-0.5c0-0.7,0-1.4,0-2.2c1.7,0.8,3.3,1.3,5,0.7
			c0.2-0.8-0.3-0.9-0.8-1c-0.7-0.1-1.5-0.2-2.2-0.4c-1.5-0.4-2.3-1.5-2-3.2c0.6-1.4,1.8-2,3.3-2.2s2.9-0.1,4.3,0.6c0,0.6,0,1.2,0,2
			c-0.7-0.2-1.4-0.5-2.2-0.6C120.9,42.5,120.1,42.6,119.2,42.6z"/>
		<path class="st9" d="M165.2,49.4c0-1.5,0-3,0-4.5s0-3,0-4.5c-1.2,0-2.3,0-3.5,0c0-0.8,0-1.5,0-2.2c3.3,0,6.5,0,9.9,0
			c0,0.7,0,1.3,0,2.1c-1.1,0-2.1,0-3.4,0c0,3.1,0,6,0,9.1C167.2,49.4,166.2,49.4,165.2,49.4z"/>
		<path class="st8" d="M144.2,42.9c-0.5,0-0.8-0.1-1.2-0.1c0-0.6,0-1.2,0-1.8c0.4,0,0.7-0.1,1-0.1c0.1-0.5,0.2-1.1,0.3-1.6
			c0.4-1.1,1.3-1.5,2.4-1.7c1-0.2,2-0.2,2.9,0.2c0,0.6,0,1.2,0,1.9c-0.9-0.1-1.9-0.5-2.6,0.2c-0.2,0.2-0.3,0.6-0.4,1
			c0.9,0,1.6,0,2.4,0c0,0.7,0,1.2,0,1.9c-0.7,0-1.3,0-2.1,0c0,2.2,0,4.3,0,6.5c-0.9,0-1.8,0-2.8,0C144.2,47.2,144.2,45.1,144.2,42.9
			z"/>
		<path class="st9" d="M153.5,42.8c0,2.3,0,4.4,0,6.5c-0.9,0-1.8,0-2.7,0c0-2.1,0-4.3,0-6.4c-0.4-0.1-0.7-0.1-1.1-0.2
			c0-0.6,0-1.1,0-1.8c0.3,0,0.6-0.1,1-0.2c0-0.2,0-0.4,0.1-0.6c0.2-1.5,1-2.3,2.5-2.6c1-0.2,2-0.1,2.9,0.1c0,0.6,0,1.2,0,1.9
			c-0.9-0.1-1.8-0.4-2.6,0.3c-0.1,0.3-0.2,0.6-0.3,1c0.8,0,1.5,0,2.2,0c0,0.7,0,1.2,0,1.9C154.9,42.8,154.3,42.8,153.5,42.8z"/>
		<path class="st8" d="M191.2,48.9c-1.9,1.1-5.1,1-6.7-0.3c-1.4-1.1-1.8-3.2-1.2-4.9c0.6-1.9,2-2.7,3.9-3c1.4-0.2,2.7-0.1,4,0.7
			c0,0.8,0,1.5,0,2.4c-0.6-0.3-1-0.6-1.5-0.9c-0.7-0.4-1.5-0.3-2.3-0.2c-0.2,0-0.3,0.1-0.5,0.2c-1,0.7-1.3,3.1-0.5,4.1
			c0.7,0.9,2.5,1,3.5,0.3c0.3-0.2,0.7-0.5,1.2-0.9c0,0.6,0,1,0,1.3C191.2,48.2,191.2,48.6,191.2,48.9z"/>
		<path class="st8" d="M109.6,40.9c0-0.8,0-1.5,0-2.2c0.9,0,1.7,0,2.7,0c0,0.7,0,1.4,0,2.2c0.9,0,1.7,0,2.6,0c0,0.7,0,1.2,0,1.9
			c-0.8,0-1.6,0-2.4,0c-0.4,1.5-0.2,4,0.4,4.9c0.3,0,0.6,0.1,1,0.1c0.3,0,0.6-0.1,1-0.2c0,0.7,0,1.3,0,2c-1.2,0.2-2.3,0.3-3.5,0
			c-1-0.2-1.6-0.9-1.7-1.9c-0.1-1.1-0.1-2.1-0.1-3.2c0-0.5,0-1,0-1.5c-0.4,0-0.7,0-1.1-0.1c0-0.6,0-1.2,0-1.9
			C108.8,41,109.2,40.9,109.6,40.9z"/>
		<path class="st8" d="M126.1,42.9c-0.4,0-0.7,0-1.1-0.1c0-0.6,0-1.2,0-1.8c0.3,0,0.6-0.1,1-0.1c0-0.7,0-1.4,0-2.2
			c0.9,0,1.8,0,2.7,0c0,0.7,0,1.4,0,2.2c0.9,0,1.7,0,2.5,0c0,0.7,0,1.3,0,2c-0.8,0-1.6,0-2.5,0c0,1.4,0,2.7,0,4
			c0,0.5,0.4,0.8,0.9,0.8s1-0.1,1.5-0.1c0,0.6,0,1.2,0,1.9c-1.1,0.2-2.3,0.3-3.4,0c-1.1-0.2-1.7-1-1.7-2.2c0-1.1,0-2.1,0-3.2
			C126.1,43.7,126.1,43.4,126.1,42.9z"/>
		<path class="st10" d="M220.1,3.8c-0.1,0-0.1,0.1-0.2,0.1c0-1,0-1.9,0-2.9c0.7-0.8,1-0.8,2.1-0.2c0.3-0.1,0.5-0.3,0.9-0.5
			c0.2,0.2,0.5,0.3,0.7,0.5c2,0,4.1,0,6.2,0c0.1-0.1,0.3-0.2,0.5-0.4c0.5,0,0.9,0,1.6,0c-0.2,0.4-0.3,0.8-0.4,1.2
			c0,9.6,0,19.4,0,29.2c0.1,0,0.3,0.1,0.4,0.1c0,0.7,0,1.3,0,2c-0.3,0-0.5,0.1-0.8,0.1c-0.1-0.3-0.1-0.6-0.1-1
			c-0.1,0-0.3-0.1-0.4-0.1c0-10.2,0-20.4,0-30.7c-2.4,0-4.8,0-7.2,0c-0.7,0-1.4,0-2.1,0C220.7,2.1,220.4,2.9,220.1,3.8z"/>
		<path class="st7" d="M228.9,49.4c-0.9,0-1.7,0-2.6,0c0-3.9,0-7.8,0-11.8c0.8,0,1.7,0,2.6,0C228.9,41.5,228.9,45.4,228.9,49.4z"/>
		<path class="st10" d="M231.7,31.2c0-9.2,0-18.1,0-27.1c0.6-0.6,0.7-1.3,0-1.8c0.2-0.7,0.4-1.2,0.7-1.9c0.4,1.2,0.7,2.2,1.1,3.4
			c-0.3,0.1-0.6,0.2-0.8,0.3c0,8.7,0,17.5,0,26.2C232.4,30.4,232.1,30.7,231.7,31.2z"/>
		<path class="st1" d="M253.5,41c0.9,0,1.8,0,2.7,0c0,2.8,0,5.6,0,8.4c-0.9,0-1.7,0-2.7,0C253.5,46.6,253.5,43.8,253.5,41z"/>
		<path class="st11" d="M219.8,17.8c0.3-0.9,0.7-1.8,1-2.7c0.1-0.2,0.2-0.4,0.3-0.7c0.4-0.8,0.8-1.6,1.2-2.7c0,0.6,0,1,0,1.4
			c-0.4,0-0.4,0.3-0.4,0.6c0,1,0,2,0,3.1c0,0.2-0.1,0.4-0.1,0.5c-0.1,0-0.1,0-0.2,0c-0.1-0.3-0.2-0.5-0.3-0.8c-0.1,0-0.2,0-0.3,0
			c0,4.8,0,9.6,0,14.4c-0.1,0-0.3,0-0.4,0c-0.1,0-0.3,0-0.4,0c0-4.3,0-8.7,0-13C220.1,17.9,220,17.8,219.8,17.8z"/>
		<path class="st12" d="M189.7,31.4c0-9.8,0-19.6,0-29.4c-0.2-0.3-0.3-0.5-0.4-0.7c0.2,0,0.5,0,0.8,0c0,0.4,0,0.7,0,1.1
			c0,9.6,0,19.2,0,28.8c0,0.3-0.1,0.6-0.2,0.8C189.8,31.8,189.7,31.6,189.7,31.4z"/>
		<path class="st2" d="M81.5,1.4c-0.3,0-0.7,0-1,0c0,0.2,0,0.4-0.1,0.6c-4.5,0-9.1,0-13.6,0c0-0.1,0-0.3,0-0.4s0-0.3,0-0.4
			c4.7,0,9.3,0,14,0C81,1.3,81.3,1.4,81.5,1.4z"/>
		<path class="st13" d="M198.2,3.8c0.1,0,0.3,0,0.4,0c0,9.1,0,18.1,0,27.2l0,0c-0.1,0-0.3,0-0.4,0c0-0.2,0-0.5,0-0.7
			c0-8.6,0-17.1,0-25.7C198.1,4.3,198.2,4,198.2,3.8z"/>
		<path class="st14" d="M291.5,31.4c0.4,0.1,0.7,0.2,1.2,0.4c1.7,0,3.5,0,5.3,0c0.1,0,0.1-0.1,0.1-0.1c0.5,0,0.8,0.1,1.3,0.1
			c0-10,0-19.9,0-29.9c-0.1-0.2-0.2-0.4-0.4-0.6c0.2,0,0.3,0,0.6,0c0,10.2,0,20.5,0,30.7c-2.5,0-5,0-7.6,0
			C291.8,31.8,291.6,31.6,291.5,31.4z"/>
		<path class="st10" d="M243.2,31.2c0.1,0.2,0.1,0.4,0.2,0.6c0.4,0.4,0.2,0.8,0,1.2c-0.1-0.2-0.2-0.5-0.3-0.8
			c-0.2,0.1-0.4,0.3-0.7,0.4c-0.3-0.2-0.5-0.3-0.9-0.5c-0.3,0.1-0.6,0.3-1,0.5c-1,0-2.1,0-3.2,0c-0.1,0.3-0.1,0.5-0.2,0.7
			c-0.5,0.1-1,0.1-1.5,0.2c-0.4-0.4,0.2-0.5,0.3-0.9c-0.7-0.2-1.3-0.3-2-0.5c0-0.4,0-0.9-0.1-1.3l0,0c0.5,0,0.9,0.1,1.4,0.1
			c-0.1,0.3-0.1,0.6-0.2,1c2.6,0,5.2,0,7.8,0C243,31.7,243.1,31.5,243.2,31.2z"/>
		<path class="st15" d="M308.3,1.3c-0.1,0.2-0.2,0.4-0.4,0.6c0,9.9,0,19.8,0,29.8c0.4,0,0.7,0.1,1,0.1c1.7,0,3.4,0,5.1,0
			c0.3,0,0.6,0.1,0.9,0.2c-2.4,0-4.7,0-7.2,0c0-10.2,0-20.4,0-30.7C307.9,1.3,308.1,1.3,308.3,1.3z"/>
		<path class="st16" d="M327.8,31.8c2.5,0,5,0,7.6,0c0-0.3,0.1-0.5,0.1-0.8c0-9.9,0-19.9,0-29.8c0.1,0.3,0.2,0.7,0.2,1
			c0,8,0,16.1,0,24.1c0,1.5,0,3,0,4.5c0,0.3,0,0.7,0,1.1c-0.2,0-0.3,0.1-0.5,0.1c-2.3,0-4.5,0-6.8,0C328.2,32,328,31.9,327.8,31.8z"
			/>
		<path class="st13" d="M66.8,31.8c0.1-0.1,0.2-0.4,0.4-0.4c0.3-0.1,0.6,0,0.8,0c5.4,0,10.8,0,16.2,0c0.2-0.1,0.4-0.3,0.6-0.4
			c0.5,0,0.9,0,1.3,0c-1.5,0.8-3.1,0.8-4.7,0.9c-0.4,0-0.8-0.1-1.1-0.1C75.8,31.8,71.3,31.8,66.8,31.8z"/>
		<path class="st10" d="M219.8,17.8c0.1,0,0.3,0.1,0.4,0.1c0,4.4,0,8.7,0,13c-0.1,0-0.2,0-0.4-0.1c0-2.7,0-5.4,0-8.2
			c-0.4,0.1-0.7,0.1-0.9,0.1c-0.1-0.1-0.3-0.2-0.4-0.4c0-0.2,0-0.4,0-0.6c0.4,0,0.8,0,1.3,0c0-0.4,0-0.8,0-1.1
			c-0.1-0.4-0.2-0.9-0.4-1.4c0.1-0.1,0.3-0.4,0.4-0.6C219.8,18.4,219.8,18.1,219.8,17.8L219.8,17.8z"/>
		<path class="st11" d="M218.6,21.8c0,0.2,0,0.4,0,0.6c-0.1,0-0.2,0-0.3,0.1c-0.1,0.3-0.2,0.7-0.3,1.1c0.2,0.1,0.4,0.2,0.7,0.4
			c-0.5,0.2-0.9,0.4-1.3,0.6c-0.1,0.2-0.2,0.4-0.3,0.6c-2.1-0.3-4.2-0.1-6.3,0c-0.2-0.1-0.3-0.2-0.5-0.4c-0.2,0-0.4,0.1-0.7,0.1
			c0-0.6,0-1.2,0-1.7c0.1-0.4,0.3-0.7,0.4-1l0.1-0.1c0.1,0.2,0.2,0.5,0.4,0.7l0,0c0,0.1,0,0.1,0,0.2c-0.5,0.6-0.5,0.6,0,1
			c0-0.3,0.1-0.6,0.1-0.9c0.2,0.3,0.4,0.6,0.6,0.9c0,0.2,0.1,0.4,0.1,0.6c1.9,0,3.7,0,5.6,0c0.1-0.2,0.1-0.4,0.1-0.6
			c0.3-0.7,0.7-1.5,1-2.2c0.2-0.4,0.4-0.8,0.6-1.2l0,0C218.6,21.1,218.6,21.5,218.6,21.8z"/>
		<path class="st15" d="M198.2,31c0.1,0,0.3,0,0.4,0c0,0.2,0,0.5,0.1,0.8c2.2,0,4.4,0,6.7,0c0-0.4,0.1-0.8,0.1-1.2
			c0-5.7,0-11.5,0-17.2c0-0.4,0.1-0.7,0.2-1.1c0,1.2,0,2.4,0,3.6c0,5,0,9.9,0,14.9c0,0.4,0,0.8,0,1.2c-2.5,0-4.9,0-7.4,0
			C198.2,31.6,198.2,31.3,198.2,31z"/>
		<path class="st17" d="M271.6,3.8c0,0.4,0.1,0.8,0.1,1.1c0,8.7,0,17.3,0,26c0,0.2,0,0.5,0,0.7c0,0.1,0,0.3,0,0.4
			c-0.1-0.2-0.2-0.4-0.2-0.6c0-1.2,0-2.4,0-3.6c0-7.6,0-15.3,0-22.9C271.5,4.5,271.5,4.1,271.6,3.8z"/>
		<path class="st1" d="M256.2,37.6c0,0.7,0,1.3,0,2c-0.9,0-1.8,0-2.7,0c0-0.7,0-1.3,0-2C254.3,37.6,255.2,37.6,256.2,37.6z"/>
		<path class="st15" d="M162.5,31c0.6,0,0.3,0.5,0.6,0.9c0.3-0.1,0.8-0.1,1.4-0.2c0.6,0.4,4.6,0.4,5.6-0.2c0-0.3,0-0.7,0-1
			c0-3.6,0-7.2,0-10.8c0-0.3,0.1-0.7,0.2-1c0,4.4,0,8.8,0,13.3c-2.6,0-5.2,0-7.8,0C162.5,31.6,162.5,31.3,162.5,31z"/>
		<path class="st18" d="M212.9,13.9c-0.8-0.3-0.8-1-1.1-1.6c-0.4-0.7-0.6-1.5-0.9-2.3c0-0.1-0.2-0.2-0.3-0.2c-0.4-1-0.8-1.9-1.2-3
			c-0.3-0.4-0.6-1-1-1.5c0-0.5,0-1,0-1.5c1.1,2.4,2.2,4.8,3.3,7.3C212.1,12,212.5,13,212.9,13.9z"/>
		<path class="st14" d="M292.5,1.3c0,0.5,0,1,0,1.7c0.8,0,1.4,0,2.1,0c-0.6,0.6-1.3,0.2-2,0.5c0,0.2-0.1,0.5-0.1,0.7
			c0,4.1,0,8.2,0,12.3c0,0.4,0.1,0.8,0.3,1.4c0,0-0.2,0.3-0.4,0.5c-0.1-0.2-0.1-0.4-0.2-0.5c0-0.2,0-0.3,0-0.5s0.1-0.4,0.1-0.6
			c0-4.2,0-8.5,0-12.7c0-0.2-0.1-0.4-0.1-0.6s0-0.3,0-0.5c0-0.5,0.1-1.1,0.1-1.6C292.4,1.3,292.5,1.3,292.5,1.3z"/>
		<path class="st10" d="M230.3,32c0.1,0,0.1,0,0.2,0c0,0.2,0,0.3,0,0.6c-2.5,0-5,0-7.5,0c-0.2-0.2-0.4-0.3-0.6-0.5l0,0h0.1h0.1
			C225.2,32,227.7,32,230.3,32z"/>
		<path class="st10" d="M244.5,27.6c0.2-0.5,0.3-1,0.5-1.7c0.7,0,1.5,0,2.2,0c-0.4,0.9-0.9,1.5-1.9,1.8c0,0.6,0,1.2,0,1.9
			c-0.4-0.4-0.5-0.8-0.4-1.2C245,28.1,245.1,27.6,244.5,27.6z"/>
		<path class="st18" d="M328.7,1.3c-0.4,4-0.2,8-0.2,12c0,1.4-0.2,2.8,0,4.2h-0.1h-0.1c0-1.4,0-2.8,0-4.2c0-3.9,0-7.8,0-11.8
			C328.4,1.3,328.5,1.3,328.7,1.3z"/>
		<path class="st18" d="M256.6,25.9c0.2,0,0.3,0,0.6,0c0,0.5,0,1,0.1,1.5c0.2,0.2,0.5,0.5,0.8,0.7c0,0.4,0,0.7,0.1,1
			c0.1,0.1,0.3,0.1,0.5,0.2c0,0.5,0,0.9,0,1.5c0.1,0.1,0.3,0.3,0.6,0.5c0.3,0,0.7,0,1.1,0c0.1,0,0.2,0.3,0.4,0.4c-0.6,0-1.3,0-1.9,0
			c-0.4-1.1-0.8-2.1-1.2-3.2c-0.1-0.4-0.3-0.7-0.5-1C256.9,27,256.7,26.4,256.6,25.9z"/>
		<path class="st15" d="M66.8,31.8c4.5,0,9,0,13.5,0c0.4,0,0.8,0.1,1.1,0.1c-0.3,0-0.7,0.1-1,0.1c-4.6,0-9.2,0-13.8,0
			c-0.2,0-0.3,0-0.6,0c0-0.3,0-0.4,0-0.6C66.3,31.5,66.5,31.7,66.8,31.8z"/>
		<path class="st14" d="M170.5,18.4c0.3-0.1,0.7-0.2,1-0.2c2.5,0,4.9,0,7.4,0c0.4,0,0.8-0.1,1.3-0.2c0.1,0.1,0.4,0.2,0.8,0.3
			c0.1-0.3,0.2-0.6,0.2-0.9c0.2,0,0.4,0,0.7,0c0,0.4,0,0.7,0,1C178.2,18.4,174.4,18.4,170.5,18.4z"/>
		<path class="st18" d="M31.8,27.6c0.2,0,0.3,0,0.4,0c0.3,0.8,0.6,1.5,0.9,2.3c0.5,0.3,1.4,1.9,1.4,2.6
			C32.9,31.2,32.1,29.5,31.8,27.6z"/>
		<path class="st14" d="M37.1,34.3c0.3,0,0.6,0,0.9,0c0.7,0.3,1.3,0.5,2.1,0.9c0.7,0,1.7,0,2.7,0c0.1-0.1,0.3-0.2,0.5-0.4
			c0.4,0,0.7,0,1.2,0c0.3-0.5,0.8-0.5,1.4-0.4c-0.1,0.1-0.2,0.3-0.4,0.3c-2.1,0.7-4.3,1.1-6.5,0.4C38.3,34.9,37.6,34.9,37.1,34.3z"
			/>
		<path class="st2" d="M292.2,3.4c0,0.2,0.1,0.4,0.1,0.6c0,4.2,0,8.5,0,12.7c0,0.2-0.1,0.4-0.1,0.6v-0.1
			C292.2,12.7,292.2,8.1,292.2,3.4L292.2,3.4z"/>
		<path class="st15" d="M243.2,31.2c-0.1,0.2-0.3,0.5-0.4,0.8c-2.6,0-5.2,0-7.8,0c0.1-0.3,0.1-0.6,0.2-1l0,0
			c0.1-0.2,0.2-0.4,0.3-0.5c0,0.4,0,0.8,0,1.3c0.4,0,0.7-0.1,1-0.1v-0.1h0.1c1.2,0.7,2.5,0,3.8,0.3c0.3-0.2,0.5-0.3,0.7-0.5
			c0.5,0.3,1,0.7,1.7,0.3c0-0.4,0.1-0.8,0.1-1.2c0.2,0.2,0.3,0.4,0.4,0.5C243.2,31.1,243.2,31.1,243.2,31.2z"/>
		<path class="st11" d="M242.4,11.7c-0.4,1.1-0.9,2.3-1.3,3.4c-0.3-0.4-0.6-0.9-0.9-1.4c0.1-0.1,0.2-0.1,0.3-0.2
			c0.7-0.4,1.2-1,1.5-1.8C242.1,11.7,242.3,11.7,242.4,11.7z"/>
		<path class="st18" d="M246.2,2.1c0,0.3,0,0.6,0,0.9c-0.5,1.4-1.1,2.7-1.7,4.3c0,0.5,0.1,1.3-0.9,1.6c0-0.1,0-0.1,0-0.2
			c0.6-1.7,1.3-3.4,1.9-5.1C245.7,3.1,246,2.6,246.2,2.1z"/>
		<path class="st18" d="M143.3,7.1c0.2-0.3,0.4-0.5,0.6-0.8c1.7,0,3.4,0,5,0c0.4,0.2,0.7,0.3,1,0.4c0.1,0.1,0.2,0.3,0.3,0.4
			C147.9,6.4,145.6,6.4,143.3,7.1z"/>
		<path class="st11" d="M243.5,8.9c-0.4,0.9-0.7,1.8-1.1,2.8c-0.1-0.4-0.2-0.9-0.3-1.3c-0.1,0-0.1,0-0.2,0c0-0.4,0-0.8,0-1.3
			C242.4,8.4,243,8.9,243.5,8.9z"/>
		<path class="st15" d="M170.3,12.3c-0.1-0.3-0.2-0.7-0.2-1c0-3.1,0-6.3,0-9.4c-0.1-0.2-0.3-0.4-0.4-0.6c0.2,0,0.3,0,0.6,0
			C170.3,4.9,170.3,8.6,170.3,12.3z"/>
		<path class="st11" d="M238.5,22c-0.4,1.1-0.9,2.3-1.3,3.4c-0.1-0.3-0.3-0.5-0.4-0.8c0.4-0.8,0.5-1.8,1.3-2.4
			C238.3,22.1,238.4,22.1,238.5,22z"/>
		<path class="st11" d="M240.2,17.8c-0.5,1.4-1.1,2.8-1.6,4.1c-0.1-0.3-0.2-0.7-0.4-1.1c0.2-0.1,0.4-0.1,0.7-0.2c0-0.6,0-1.1,0-1.6
			c0.2-0.5,0.3-0.8,0.5-1.1l0,0C239.7,17.9,239.9,17.9,240.2,17.8z"/>
		<path class="st19" d="M138,18.2c0,0.2,0,0.5,0,0.8c-0.2-0.3-0.4-0.5-0.6-0.8c0.1-0.8-0.3-1.7,0.4-2.4c-0.1-0.1-0.2-0.2-0.3-0.3
			c0.1-0.3,0.3-0.7,0.5-1.1c0,0.3,0.1,0.6,0.1,0.8C138,16.2,138,17.2,138,18.2z"/>
		<path class="st15" d="M118.7,31.6c0.1-0.1,0.2-0.1,0.2-0.2c0.3,0.5,0.9,0.4,1.3,0.4c1.9,0,3.9,0,5.8,0c0.3-0.2,0.6-0.3,0.8-0.4
			c0.1,0.2,0.1,0.4,0.2,0.6c-2.8,0-5.5,0-8.3,0C118.7,31.9,118.7,31.7,118.7,31.6z"/>
		<path class="st10" d="M256.6,25.9c0.2,0.6,0.3,1.1,0.5,1.7c-0.6,0-1.2,0-1.9,0c0.2-0.3,0.3-0.4,0.4-0.6s0.1-0.4,0.2-0.6
			c0.2,0,0.4-0.1,0.7-0.1c0-0.1-0.1-0.2-0.1-0.3C256.3,25.9,256.5,25.9,256.6,25.9z"/>
		<path class="st15" d="M271.7,32c0-0.1,0-0.3,0-0.4c0.5,0.1,1.1,0.2,1.6,0.2c1.6,0,3.3,0,4.8,0c0.5-0.1,0.1-0.9,0.7-0.8
			c0,0.3,0,0.6,0,1C276.5,32,274.1,32,271.7,32z"/>
		<path class="st15" d="M258.7,31.8c0.6,0,1.3,0,1.9,0c1.9,0,3.8,0,5.8,0c0.1-0.3,0.1-0.5,0.2-0.7c0.1,0.3,0.3,0.5,0.5,0.9
			c-0.4,0-0.7,0.1-0.9,0.1c-2.2,0-4.3,0-6.5,0C259.4,32,259.1,31.9,258.7,31.8z"/>
		<path class="st18" d="M205.6,11.8c0.1-0.1,0.2-0.3,0.4-0.4c0.1,0,0.1,0.1,0.2,0.1c0,0.3,0.1,0.7,0.1,1.1c0.4,0.2,0.8,0.5,1.3,0.8
			c-0.2,0.4-0.3,0.9-0.5,1.4c-0.4-0.8-0.7-1.5-1.1-2.3C205.9,12.2,205.7,12,205.6,11.8z"/>
		<path class="st18" d="M155.5,10.6c0.2,0,0.3,0,0.6-0.1c0-2.3,0-4.6,0-6.9c-0.1-0.2-0.2-0.4-0.4-0.7c0.1,0,0.1,0,0.2,0.1
			c0.1,0,0.2,0.1,0.3,0.1s0.1,0,0.2,0c0,1.6,0,3.2,0,4.7c0,0.9,0.1,1.8,0.1,2.7C156.1,10.6,155.8,10.6,155.5,10.6z"/>
		<path class="st15" d="M95.2,31.4c0.2,0.1,0.5,0.3,0.9,0.5c2.2,0,4.6,0,6.9,0c-0.2,0.1-0.4,0.2-0.6,0.2c-2.4,0-4.7,0-7.1,0
			c-0.1,0-0.2,0-0.4-0.1C95.1,31.7,95.2,31.5,95.2,31.4z"/>
		<path class="st15" d="M189.7,31.4c0.1,0.2,0.1,0.4,0.2,0.6c-2.6,0-5.1,0-7.7,0c0-0.3,0-0.5,0-0.8h0.1c0,0.2,0.1,0.4,0.2,0.6
			c2.3,0,4.7,0,7,0C189.6,31.6,189.6,31.5,189.7,31.4z"/>
		<path class="st14" d="M49.8,20.1c-0.1,0-0.2,0.1-0.4,0.2c-0.3-0.5-0.7-1-1.1-1.5l0.1-0.1c-0.4-0.2-0.8-0.5-1.3-0.7
			c0.1-0.2,0.1-0.4,0.2-0.6C48.4,18.1,49.3,19,49.8,20.1z"/>
		<path class="st18" d="M51.3,24.1c-0.2,0-0.3,0-0.6,0c0-0.5-0.1-0.9-0.1-1.5c0-0.1-0.2-0.2-0.3-0.3c-0.1-0.5-0.2-0.9-0.3-1.3
			c0,0,0.2,0,0.3,0C50.9,21.9,51.2,23,51.3,24.1z"/>
		<path class="st18" d="M87.7,13.8c0.1-0.3,0.1-0.7,0.2-1.1c1.2,0.1,0.9-1.4,1.6-1.8c0.1,0,0.2,0.1,0.3,0.1
			C89.4,12.2,88.6,13.1,87.7,13.8z"/>
		<path class="st14" d="M156.1,29.7c0-1.9,0-3.7,0-5.6c0-0.5-0.2-1-0.4-1.4c0.2,0,0.4,0,0.6,0c0,2,0,4,0,6
			C156.3,29,156.1,29.4,156.1,29.7z"/>
		<path class="st12" d="M156.1,29.7c0.1-0.3,0.2-0.6,0.2-1c0-2,0-4,0-6c0.1,0.1,0.2,0.2,0.2,0.3c0,2.1,0,4.3,0,6.4
			c0,0.3,0,0.6-0.4,0.6C156.1,30,156.1,29.8,156.1,29.7z"/>
		<path class="st18" d="M321.4,21.3c0.7,0,0.8,0.7,1.1,1c0.2,0.2,0.4,0.6,0.6,1c0,0.2,0,0.6,0,0.9C322.5,23.2,322,22.2,321.4,21.3z"
			/>
		<path class="st18" d="M259,10.6c-0.7,0.1-0.3-0.8-0.8-0.9c-0.2-0.8-0.7-1.6-0.5-2.5C258.1,8.3,258.5,9.4,259,10.6z"/>
		<path class="st17" d="M156.4,10.6c0-0.9-0.1-1.8-0.1-2.7c0-1.6,0-3.2,0-4.7c0.1,0.1,0.2,0.3,0.2,0.4c0,2.2,0,4.4,0,6.6
			C156.5,10.3,156.4,10.5,156.4,10.6z"/>
		<path class="st18" d="M318,15.7c0.3,0.1,0.6,0.2,1,0.4c0.3,0.3,0.6,0.7,0.9,1.1c-0.2,0.2-0.4,0.4-0.5,0.7
			C318.9,17.1,318.4,16.4,318,15.7z"/>
		<path class="st18" d="M98.6,22.4c0,0.7,0,1.3,0,2.1c-0.6,0.1-0.3,1.1-1.2,0.9C97.9,24.4,98.3,23.4,98.6,22.4z"/>
		<path class="st10" d="M220.7,31c0.1,0,0.3,0,0.4,0c0.4,0,0.8,0,1.3,0c0,0.3,0,0.7,0,1l0,0C221.6,32.1,221,31.7,220.7,31z"/>
		<path class="st18" d="M32.8,20.7c0.2,0.9-0.2,1.7-0.6,2.4c-0.2,0.3,0,1-0.6,1.1C31.8,22.9,32.1,21.8,32.8,20.7z"/>
		<path class="st18" d="M327.9,18.5c-0.1,0-0.2,0.1-0.3,0.1c-0.5-0.7-0.9-1.4-1.4-2.2c-0.1-0.2-0.1-0.5-0.1-0.8
			c0.4,0.6,0.8,1.2,1.2,1.7C327.5,17.7,327.7,18.1,327.9,18.5z"/>
		<path class="st10" d="M235.5,30.5c-0.1,0.2-0.2,0.4-0.3,0.5c-0.3-0.8-0.6-1.6-0.9-2.4l0,0c0.3,0.1,0.6,0.2,0.9,0.3
			c0,0.4-0.1,0.7-0.1,1c0.2,0,0.3,0.1,0.4,0.1C235.6,30.2,235.6,30.3,235.5,30.5z"/>
		<path class="st18" d="M151,25.9c-0.4,0.8-1.2,0.8-1.9,0.8c-0.1,0.2-0.1,0.3-0.2,0.5c-0.3-0.2-0.6-0.3-0.9-0.5
			c0.8-0.2,1.7-0.4,2.5-0.6c0.1,0,0.2-0.1,0.2-0.1C150.8,25.9,150.9,25.9,151,25.9z"/>
		<path class="st10" d="M236.8,26.9c0,0.1,0,0.1,0,0.2c-0.1,0.1-0.1,0.3-0.2,0.4c-0.2,0.4-0.4,0.8-0.6,1.2c-0.2-0.3-0.4-0.5-0.6-0.8
			C236,27.5,236,26.8,236.8,26.9z"/>
		<path class="st10" d="M222.1,32.7c0.5,0.3,0.5,0.3,0.2,1.6c-0.2,0-0.5,0-0.8,0C221.7,33.7,221.9,33.2,222.1,32.7z"/>
		<path class="st18" d="M142.5,25.8c-0.9,0.1-1.5-0.5-2.1-1c0-0.2,0-0.5,0-0.7C141.1,24.7,141.8,25.3,142.5,25.8z"/>
		<path class="st14" d="M208,2.9c-0.1-0.1-0.4-0.1-0.4-0.2c-0.1-0.7-0.5-1-1.1-1.1c-0.1,0-0.1-0.2-0.2-0.3c0.3,0,0.6,0,1.1-0.1
			C207.5,1.8,207.7,2.3,208,2.9z"/>
		<path class="st18" d="M151.8,31.7c0.1-0.1,0.2-0.3,0.3-0.4c0.3-0.1,0.5-0.2,1-0.4c0.2,0,0.6,0,1,0
			C153.4,31.2,152.6,31.5,151.8,31.7z"/>
		<path class="st11" d="M241.1,15.2c-0.3,0.8-0.6,1.6-0.8,2.4c-0.2-0.8,0.2-1.5,0.5-2.2C240.8,15.3,241,15.3,241.1,15.2z"/>
		<path class="st12" d="M154.4,30.9c0-0.2,0-0.5,0.1-0.8c0.6,0,1.1,0,1.6,0C155.5,30.4,154.9,30.6,154.4,30.9z"/>
		<path class="st10" d="M253.6,25.9c0.4,0,0.7,0,1.1,0c-0.1,0.1-0.3,0.2-0.4,0.3c0,0.4-0.1,0.8-0.1,1.3c-0.1,0-0.1,0-0.2,0
			C253.9,27,253.8,26.4,253.6,25.9z"/>
		<path class="st18" d="M99.5,20c0,0.4,0,0.8,0,1.2c-0.2,0.4-0.4,0.8-0.6,1.1c-0.1,0-0.2,0-0.3,0c0-0.1,0-0.1,0.1-0.2
			c0.1-0.2,0.1-0.4,0.2-0.7C99.1,21.1,99.3,20.6,99.5,20z"/>
		<path class="st11" d="M327.9,18.5c-0.2-0.4-0.4-0.7-0.6-1.1c0.3,0,0.6,0,0.9,0h0.1c0,0.2,0,0.3,0,0.5c0,0.3-0.1,0.5-0.1,0.7
			C328.1,18.6,328,18.6,327.9,18.5L327.9,18.5z"/>
		<path class="st10" d="M243.4,31c0.1-0.3,0.1-0.6,0.2-0.8c0.3,0.2,0.6,0.4,0.9,0.6c0,0.1-0.1,0.2-0.1,0.3
			C244.1,31,243.8,31,243.4,31z"/>
		<path class="st10" d="M243.8,29.7c0.2-0.4,0.3-0.8,0.5-1.3c0.1,0.3,0.2,0.6,0.3,1C244.2,29.6,244,29.6,243.8,29.7z"/>
		<path class="st18" d="M324,12.3c-0.3-0.2-0.5-0.3-0.9-0.5c0-0.3,0-0.6,0-0.9C323.4,11.3,323.7,11.8,324,12.3z"/>
		<path class="st14" d="M182.1,10.6c0.1,0.1,0.3,0.2,0.3,0.3c0,0.5,0,1.1,0,1.6c-0.1,0-0.1,0-0.1,0s-0.1,0-0.1-0.1s-0.1-0.1-0.1-0.2
			c0-0.2,0-0.3,0-0.5c0-0.3,0-0.5,0-0.8C182.1,10.9,182.1,10.7,182.1,10.6z"/>
		<path class="st10" d="M233.4,31c0,0.3,0.1,0.7,0.1,1.1c-0.1,0-0.2,0.1-0.3,0.2c-0.1-0.1-0.2-0.1-0.2-0.2
			C233.1,31.7,232.7,31.1,233.4,31L233.4,31z"/>
		<path class="st18" d="M326.1,15.6c-0.3-0.2-0.6-0.3-0.9-0.5c0-0.3,0-0.6,0-0.8C325.6,14.8,325.9,15.2,326.1,15.6z"/>
		<path class="st18" d="M247,1.3c-0.1,0.5-0.4,0.7-0.9,0.8c0-0.3,0.1-0.5,0.2-0.8C246.6,1.3,246.8,1.3,247,1.3z"/>
		<path class="st18" d="M287.7,11.8c-0.2,0-0.3,0-0.6,0c0-0.4,0-0.7,0-1.1C287.2,11.1,287.4,11.5,287.7,11.8z"/>
		<path class="st18" d="M257.7,7.2c-0.1,0-0.3,0-0.5-0.1c0-0.5,0-0.9,0-1.3C257.4,6.2,257.5,6.7,257.7,7.2z"/>
		<path class="st10" d="M230.4,34.3c-0.4-0.3-0.4-0.6,0-0.9C230.4,33.7,230.4,34,230.4,34.3z"/>
		<path class="st10" d="M234.3,28.6c-0.7-0.2-0.4-0.6-0.3-1.1C234.4,27.9,234.2,28.3,234.3,28.6L234.3,28.6z"/>
		<path class="st10" d="M236,28.8c-0.1,0.4-0.3,0.9-0.4,1.3c0-0.3,0-0.6,0-0.8C235.6,29,235.7,28.8,236,28.8z"/>
		<path class="st14" d="M46.4,34.1c0.1-0.7,0.2-0.8,0.9-0.6C47,33.7,46.7,33.9,46.4,34.1z"/>
		<path class="st10" d="M237.3,25.4c-0.1,0.4-0.3,0.9-0.4,1.3c0-0.3,0-0.6,0-0.8C236.8,25.6,237,25.4,237.3,25.4z"/>
		<path class="st14" d="M66.8,1.3c0,0.1,0,0.3,0,0.4c-0.3,0-0.5,0-0.8,0c0-0.1,0-0.2,0-0.4C66.3,1.3,66.6,1.3,66.8,1.3z"/>
		<path class="st11" d="M239.4,18c-0.2,0-0.4-0.1-0.6-0.1c-0.1-0.1-0.1-0.2-0.2-0.3c0.1-0.1,0.3-0.3,0.4-0.4
			c0.1,0.1,0.2,0.1,0.3,0.2C239.3,17.6,239.4,17.8,239.4,18L239.4,18z"/>
		<path class="st2" d="M292.3,1.3c0,0.5-0.1,1.1-0.1,1.6C292.3,2.4,292.3,1.8,292.3,1.3z"/>
		<path class="st18" d="M154.4,9.7c0.2,0,0.5,0,0.8,0c0,0.2,0,0.4,0,0.6C154.9,10.2,154.7,9.9,154.4,9.7z"/>
		<path class="st11" d="M240.3,10.9c0-0.2,0-0.5,0-0.7c0.1,0,0.2,0,0.3,0c0,0.2,0,0.5,0,0.7C240.5,10.9,240.4,10.9,240.3,10.9z"/>
		<path class="st11" d="M240.6,11.9c0,0.2,0,0.5,0,0.8c-0.6-0.2-0.3-0.5-0.3-0.8C240.4,11.9,240.5,11.9,240.6,11.9z"/>
		<path class="st17" d="M271.6,1.6c0,0.6,0,1.2,0,1.7C271.6,2.8,271.6,2.2,271.6,1.6z"/>
		<path class="st16" d="M327.1,30.6c0.2,0.2,0.5,0.3,0.7,0.5c0,0.2-0.1,0.4-0.1,0.6C327.5,31.3,327.3,31,327.1,30.6z"/>
		<path class="st10" d="M233.4,31c0-0.3,0.1-0.5,0.1-0.9c0.5,0.2,0.3,0.6,0.3,0.9l0,0C233.7,31,233.6,31,233.4,31L233.4,31z"/>
		<path class="st10" d="M234.8,28.3c0-0.2,0-0.5,0-0.7c0.1,0,0.2,0,0.3,0c0,0.2,0,0.5,0,0.7C235,28.3,234.9,28.3,234.8,28.3z"/>
		<path class="st16" d="M138.5,20.7c-0.5-0.4-0.2-1-0.3-1.5C138.3,19.8,138.4,20.3,138.5,20.7z"/>
		<path class="st11" d="M209.7,21.1c0.1,0,0.1,0,0.2,0.1c0.1,0.3,0.2,0.7,0.3,1l-0.1,0.1C209.3,22.1,209.7,21.5,209.7,21.1z"/>
		<path class="st11" d="M237.2,21.9c0,0.2,0,0.4,0.1,0.7c-0.1,0-0.1,0-0.2,0c-0.1-0.2-0.1-0.4-0.2-0.7
			C237,21.9,237.1,21.9,237.2,21.9z"/>
		<path class="st14" d="M208.4,3.8c-0.7,0-0.4-0.5-0.4-0.9C208.1,3.2,208.2,3.5,208.4,3.8z"/>
		<path class="st15" d="M47.2,17.3c-0.2,0-0.4,0-0.7,0c0-0.2-0.1-0.3-0.1-0.5C46.7,17,46.9,17.2,47.2,17.3z"/>
		<path class="st11" d="M241.1,10.8c0.1-0.1,0.1-0.2,0.2-0.2l0.1,0.1c0,0.1-0.1,0.2-0.1,0.3C241.2,10.9,241.2,10.9,241.1,10.8z"/>
		<path class="st10" d="M240.6,34c0,0.1,0,0.2,0,0.3c-0.1,0-0.1,0-0.2,0c0-0.1-0.1-0.2-0.1-0.3C240.4,34,240.5,34,240.6,34z"/>
		<path class="st2" d="M182.1,11c0,0.3,0,0.5,0,0.8C182.1,11.5,182.1,11.3,182.1,11z"/>
		<path class="st18" d="M321,20.8c0.3,0,0.4,0.2,0.3,0.5C321.3,21.1,321.1,20.9,321,20.8z"/>
		<path class="st15" d="M219.8,4.4c0,0.2,0.2,0.6-0.3,0.6C219.6,4.8,219.7,4.6,219.8,4.4z"/>
		<path class="st3" d="M98.9,21.6c-0.1,0.2-0.1,0.4-0.2,0.7C98.8,22,98.8,21.8,98.9,21.6z"/>
		<path class="st15" d="M104.2,28.3c0.1-0.2,0.1-0.5,0.2-0.7C104.4,27.8,104.3,28,104.2,28.3z"/>
		<path class="st18" d="M153.9,9.3c0.1,0.1,0.3,0.2,0.4,0.3C154.2,9.5,154.1,9.4,153.9,9.3z"/>
		<path class="st18" d="M34.5,32.7c0.1,0.1,0.2,0.2,0.4,0.3C34.8,32.8,34.7,32.7,34.5,32.7z"/>
		<path class="st7" d="M36.2,17.1c-0.1,0.1-0.3,0.1-0.4,0.2C35.9,17.3,36,17.2,36.2,17.1z"/>
		<path class="st11" d="M243.6,8.7c0,0.1,0,0.1,0,0.2c-0.1,0-0.1,0-0.2,0C243.5,8.8,243.5,8.7,243.6,8.7z"/>
		<path class="st10" d="M244.3,28c0-0.1,0.1-0.2,0.1-0.2C244.4,27.8,244.4,27.9,244.3,28z"/>
		<path class="st15" d="M104.4,27.6c0-0.1,0.1-0.1,0.1-0.2C104.5,27.5,104.5,27.5,104.4,27.6z"/>
		<path class="st15" d="M219.6,5c-0.1,0.1-0.1,0.2-0.2,0.3C219.5,5.2,219.5,5.1,219.6,5z"/>
		<path class="st18" d="M87.4,13.9c0.1-0.1,0.2-0.1,0.2-0.2C87.6,13.8,87.5,13.9,87.4,13.9z"/>
		<path class="st4" d="M150.8,25.9c-0.1,0-0.2,0.1-0.2,0.1S150.7,26,150.8,25.9z"/>
		<path class="st4" d="M156.1,3.1C156,3.1,156,3,155.9,3C156,3,156,3.1,156.1,3.1z"/>
		<path class="st10" d="M255.6,25.9c0.1,0,0.1,0,0.2,0l-0.1,0.1C255.6,26,255.6,25.9,255.6,25.9z"/>
		<path class="st20" d="M198.6,31c0-9.1,0-18.1,0-27.2c0.1,0,0.2,0,0.4,0.1c0,0.3,0.1,0.5,0.1,0.8c0,8.4,0,16.9,0,25.3
			C199,30.3,199.3,30.9,198.6,31z"/>
		<path class="st12" d="M222.4,32c0-0.3,0-0.7,0-1c0-3,0-6,0-9s0-5.9,0-8.9c0-0.4,0-0.8,0-1.4c-0.5,1-0.9,1.9-1.2,2.7
			c0-0.4-0.1-0.8-0.1-1.2c0.5-0.4,0.5-1.5,1.4-1.8c0.5,0.8,0.5,1.7,0.3,2.6c-0.1,0.3-0.1,0.6-0.1,0.9c0,0.9,0.2,1.9,0.2,2.8
			c0,4.6,0,9.1,0,13.7c-0.1,0.2-0.1,0.4-0.2,0.6L222.4,32L222.4,32z"/>
		<path class="st19" d="M220.1,3.8c0.3-0.8,0.7-1.7,1-2.5c0.8,0,1.4,0,2.1,0c-0.1,0.1-0.2,0.3-0.4,0.4c-0.4,0.1-0.8,0-1.2,0
			c-0.3,0.3-0.6,0.7-0.9,1c0,0.3,0,0.6-0.1,1C220.4,3.7,220.2,3.7,220.1,3.8z"/>
		<path class="st15" d="M222.6,32c0.1-0.2,0.1-0.4,0.2-0.6c0,0.1,0.1,0.3,0.1,0.4c2.4,0,4.7,0,7,0c0.1-0.2,0.1-0.5,0.2-0.9
			c0,0.5,0.1,0.8,0.1,1.1C227.7,32,225.2,32,222.6,32z"/>
		<path class="st15" d="M216.9,24.2c0,0.2-0.1,0.3-0.1,0.6c-1.8,0-3.7,0-5.6,0c0-0.2-0.1-0.4-0.1-0.6c0.1,0,0.2,0,0.3,0
			c0.2,0.1,0.5,0.3,0.7,0.4c1.3,0,2.7,0,4,0C216.4,24.4,216.7,24.3,216.9,24.2z"/>
		<path class="st11" d="M219.8,17.8c0,0.3,0,0.6,0,1c-0.1,0.2-0.3,0.4-0.4,0.6c0.2,0.5,0.3,1,0.4,1.4c-0.2,0-0.3,0-0.5,0
			c-0.1-0.2-0.1-0.4-0.1-0.6c-0.3,0.2-0.5,0.4-0.7,0.6l0,0C219,19.8,219.4,18.8,219.8,17.8z"/>
		<path class="st18" d="M210.1,22.2c-0.1-0.3-0.2-0.7-0.3-1c0.6,0.3,0.8,0.7,0.7,1.7C210.4,22.7,210.2,22.4,210.1,22.2z"/>
		<path class="st18" d="M211.3,24.2c-0.1,0-0.2,0-0.3,0c-0.2-0.3-0.4-0.6-0.6-0.9c0-0.1,0-0.1-0.1-0.2c0-0.1,0-0.1,0-0.2
			c0.3,0.2,0.5,0.3,0.8,0.5C211.3,23.7,211.3,23.9,211.3,24.2z"/>
		<path class="st19" d="M314.8,11.6c0,6.5,0,13.1,0,19.6h-0.1c0-6.5,0-13.1,0-19.6C314.7,11.6,314.8,11.6,314.8,11.6z"/>
		<path class="st14" d="M328.3,17.8c0-0.2,0-0.3,0-0.5h0.1c0.3,0.4,0.3,0.8,0,1.3C328.4,18.4,328.4,18.1,328.3,17.8z"/>
		<path class="st18" d="M328.3,17.8c0,0.3,0.1,0.5,0.1,0.8c-0.1,0.1-0.3,0.2-0.4,0.2c0,0-0.1-0.2-0.2-0.3c0.1,0,0.2,0,0.3,0
			C328.2,18.3,328.3,18.1,328.3,17.8z"/>
		<polygon class="st19" points="314.9,10.7 315,10.7 315,10.7 		"/>
		<path class="st20" d="M298.7,3.9c0.2,0.8,0.2,26.1,0,27.3c-0.1-0.4-0.2-0.6-0.2-0.8c0-1.8,0-3.7,0-5.5c0-6.6,0-13.2,0-19.8
			c0-0.4,0-0.7,0-1.1C298.6,3.9,298.6,3.9,298.7,3.9z"/>
		<path class="st21" d="M74,26.5c0-2.6,0-5.1,0-7.8c0.3,0,0.5-0.1,0.8-0.1c2,0.1,4.1,0.1,6.1,0.2c1.3,0.1,2.4,0.7,2.8,2
			c0.7,2.2,0.2,4.5-2.5,5.2c-0.5,0.1-0.9,0.3-1.4,0.4C78,26.5,76,26.5,74,26.5z"/>
		<path class="st21" d="M74,6.9c0.2,0,0.3-0.1,0.5-0.1c0.6,0,1.2,0.1,1.8,0.1C77.7,7,79,7.1,80.4,7.2l0,0c0.3,0.2,0.7,0.3,1,0.5l0,0
			c0.1,0.1,0.2,0.3,0.3,0.4l0,0c0,0.2,0.1,0.4,0.1,0.5c0.9,1.8,0.2,4.4-2.5,4.6c-1.7,0.1-3.5,0.1-5.2,0.2l0,0C74,11.2,74,9.1,74,6.9
			z"/>
		<path class="st19" d="M66.8,2.1c4.5,0,9.1,0,13.6,0c-0.1,0.1-0.1,0.4-0.3,0.4c-0.2,0.1-0.5,0-0.7,0c-3.9,0-7.8,0-11.7,0
			C67.4,2.5,66.9,2.7,66.8,2.1z"/>
		<path class="st18" d="M74,13.3c1.7,0,3.5-0.1,5.2-0.2c2.7-0.2,3.5-2.8,2.5-4.6c-0.1-0.2-0.1-0.3-0.1-0.5c0.3,0.2,0.6,0.3,0.9,0.5
			c0,0.9,0,1.7,0,2.5c-0.2,0.4-0.4,0.8-0.7,1.4c-0.5,0.3-1.1,0.7-1.7,1.1c-1.7,0-3.3,0-4.9,0c-0.4,0.2-0.7,0.3-1.1,0.5
			C74.1,13.7,74.1,13.5,74,13.3z"/>
		<path class="st12" d="M80.4,7.2C79,7.1,77.7,7,76.3,6.9c-0.6,0-1.2-0.1-1.8-0.1c0.6,0,1.2,0,1.8-0.1c0.4,0,0.7-0.2,1-0.4
			c0.5,0,1,0,1.5,0c0.6,0.2,1.1,0.4,1.6,0.6C80.4,6.9,80.4,7.1,80.4,7.2z"/>
		<path class="st14" d="M74,26.5c2,0,3.9,0,5.9,0c0.1,0,0.2,0.1,0.4,0.1v0.1c-1.3,0.1-2.7,0.1-4,0.2c-0.1,0-0.1,0.2-0.2,0.2
			c-0.3-0.1-0.6-0.3-1-0.4c-0.1,0.4-0.2,0.6-0.2,0.9c-0.2,0-0.4,0-0.7,0C74.1,27.2,74.1,26.8,74,26.5z"/>
		<path class="st14" d="M73.6,26.1c0-2.4,0-4.8,0-7.3h0.1C73.7,21.2,73.7,23.7,73.6,26.1C73.7,26.1,73.7,26.1,73.6,26.1z"/>
		<path class="st14" d="M73.8,13.1L73.7,13c0-2,0-4,0-6c0,0,0-0.1,0.1-0.1s0.1,0,0.2,0C73.8,9,73.8,11,73.8,13.1z"/>
		<path class="st12" d="M73.8,13.1c0-2.1,0-4.1,0.1-6.2H74c0,2.1,0,4.3,0.1,6.4C74,13.3,73.9,13.2,73.8,13.1z"/>
		<path class="st18" d="M81.4,7.7c-0.3-0.2-0.7-0.3-1-0.5C80.8,7.2,81.3,7,81.4,7.7z"/>
		<path class="st18" d="M81.6,8.1c-0.1-0.1-0.2-0.3-0.3-0.4c0.1,0,0.2,0,0.3,0C81.7,7.9,81.7,8,81.6,8.1z"/>
		<path class="st19" d="M163.5,30.9c-0.3-0.8-0.3-26.3,0-27C163.8,4.6,163.8,30.1,163.5,30.9z"/>
		<path class="st11" d="M114.7,20.2c-2.6,0-5,0-7.7,0c1.3-3.6,2.5-7.2,3.7-10.8c0.1,0,0.1,0,0.2,0C112.2,13,113.4,16.6,114.7,20.2z"
			/>
		<path class="st11" d="M247,20.2c1.3-3.7,2.5-7.2,3.8-11c1.3,3.7,2.6,7.3,3.8,11C252,20.2,249.6,20.2,247,20.2z"/>
		<path class="st7" d="M236.6,27.5c0.1-0.1,0.1-0.3,0.2-0.4C236.7,27.2,236.7,27.4,236.6,27.5z"/>
		<path class="st22" d="M248,46.9c-0.8,0-1.5,0.1-2.1,0.1c-0.5,0-0.8-0.4-1-0.8c-0.5-1.2-0.1-2.7,1-3.6c0.3,0,0.6-0.1,1-0.1
			s0.8,0.1,1.2,0.1C248,44,248,45.4,248,46.9z"/>
		<path class="st10" d="M320.3,47.6c-0.6,0-1.4,0.1-2.2,0.1c0-1.6,0-3,0-4.6c0.3-0.1,0.6-0.3,1-0.4c1-0.3,2,0.4,2.2,1.3
			C321.4,45.2,321.5,46.5,320.3,47.6z"/>
		<path class="st22" d="M176.4,42.6c0.6,0,1.2,0,2,0c0.3,0.4,0.5,0.9,0.9,1.5c-1.3,0-2.5,0-3.7,0C175.3,43.3,175.9,43.1,176.4,42.6z
			"/>
		<path class="st22" d="M261.8,42.6c0.6,0,1.3,0,2,0c0.3,0.5,0.5,0.9,0.8,1.4c-1.3,0-2.5,0-3.7,0C260.8,43.3,261.4,43,261.8,42.6z"
			/>
		<path class="st22" d="M236.8,47.5c-0.4,0.1-0.8,0.2-1.2,0.2c-1,0-1.5-0.4-1.6-1.3c-0.1-0.8-0.1-1.7,0-2.5c0.1-0.4,0.5-0.8,0.7-1.2
			c0.6,0,1.1,0,1.7,0c0.2,0.2,0.4,0.3,0.7,0.6C237.6,44.6,237.7,46,236.8,47.5z"/>
		<path class="st22" d="M138.2,47.6c-0.8,0.2-1.5,0.3-2.2-0.2c-1-1.8-0.9-3.6,0.5-4.8c0.5,0,1,0,1.5,0
			C139.4,44,139.5,46.2,138.2,47.6z"/>
		<path class="st22" d="M220.3,42.7c1.3,1.4,1.4,3.3,0.2,4.9c-0.8,0.3-1.5,0.3-2.3-0.1c-0.7-1.1-0.9-2.3-0.5-3.6
			c0.4-1.1,0.8-1.3,2-1.3C219.9,42.6,220.1,42.6,220.3,42.7z"/>
		<path class="st0" d="M222.4,13.1c0,3,0,5.9,0,8.9s0,6,0,9c-0.4,0-0.8,0-1.3,0c0-4.8,0-9.6,0-14.4c0.1,0,0.2,0,0.3,0
			c0.1,0.3,0.2,0.5,0.3,0.8c0.1,0,0.1,0,0.2,0c0-0.2,0.1-0.4,0.1-0.5c0-1,0-2,0-3.1C222,13.4,221.9,13.1,222.4,13.1z"/>
		<path class="st0" d="M218.6,20.8c0.2-0.2,0.4-0.4,0.7-0.6c0,0.2,0.1,0.3,0.1,0.6c0.1,0,0.3,0,0.5,0c0,0.3,0,0.6,0,1.1
			c-0.5,0-0.9,0-1.3,0C218.6,21.5,218.6,21.1,218.6,20.8z"/>
		<path class="st21" d="M210.5,23.1c0,0.1,0.1,0.1,0.1,0.2c0,0.3-0.1,0.5-0.1,0.9C210,23.7,210,23.7,210.5,23.1z"/>
	</g>
</g>
</svg>
