<svg xmlns="http://www.w3.org/2000/svg" width="195" height="69" viewBox="0 0 195 69">
  <g id="Gruppe_369" data-name="Gruppe 369" transform="translate(-129 -21)">
    <rect id="Rechteck_8" data-name="Rechteck 8" width="195" height="69" transform="translate(129 21)" fill="none"/>
    <path id="Pfad_1" data-name="Pfad 1" d="M502.791,4.5V16.29L496.445,4.5H485.022V39.869h11.352V28.079l6.135,11.79h11.633V4.5Z" transform="translate(-208.933 34.019)" fill="#fff"/>
    <path id="Pfad_2" data-name="Pfad 2" d="M193.9,10.731l10.506.018v21L184.507,4.5h-4.6l.053,35.314,4.495-.017V12.055L204.2,39.869h4.724l.018-35.35L193.9,4.5Z" transform="translate(14.709 34.019)" fill="#fff"/>
    <path id="Pfad_3" data-name="Pfad 3" d="M301.693,10.717l8.673.051V4.5h-15.53V39.87h6.857Z" transform="translate(-69.531 34.017)" fill="#fff"/>
    <path id="Pfad_4" data-name="Pfad 4" d="M43.21,21.146h-11.7L43.192,5.4ZM17.068,35.264A16.793,16.793,0,0,1,2.1,18.746,16.851,16.851,0,0,1,19.15,2.107,17.206,17.206,0,0,1,31.614,7.387L33.165,5.9A19.359,19.359,0,0,0,19.189,0,18.96,18.96,0,0,0,0,18.723,18.959,18.959,0,0,0,19.189,37.446a19.35,19.35,0,0,0,14.17-6.1l-1.513-1.488a17.164,17.164,0,0,1-11.073,5.454L29.39,23.864H43.21V36.535h3.156V1.221H42.558Z" transform="translate(146.576 37.352)" fill="#fff"/>
    <path id="Pfad_5" data-name="Pfad 5" d="M357.448,28.136a9.145,9.145,0,0,1-9.4-8.868,9.414,9.414,0,0,1,18.8,0,9.145,9.145,0,0,1-9.4,8.868m0-27.59A18.959,18.959,0,0,0,338.26,19.268a19.193,19.193,0,0,0,38.375,0A18.96,18.96,0,0,0,357.448.546" transform="translate(-101.36 36.948)" fill="#fff"/>
  </g>
</svg>
