<svg xmlns="http://www.w3.org/2000/svg" width="330" height="105" viewBox="0 0 330 105" fill="none"><path d="M329.569 56.2139C329.402 56.3861 329.224 56.5416 329.074 56.7249C325.364 61.2626 320.638 64.2618 315.045 65.9169C312.251 66.7444 309.38 67.1888 306.464 67.261C305.336 67.2887 304.203 67.311 303.081 67.2665C301.976 67.2221 300.86 67.1443 299.771 66.9722C297.455 66.6 295.15 66.1779 292.906 65.4392C290.063 64.5006 287.369 63.2565 284.886 61.5847C279.016 57.6302 275.006 52.2594 272.712 45.5835C272.017 43.5673 271.601 41.4901 271.257 39.3851C270.851 36.8691 270.718 34.3476 270.84 31.8094C271.201 24.2114 273.517 17.341 278.549 11.5148C282.265 7.21042 286.891 4.24455 292.234 2.37838C295.478 1.24535 298.827 0.578862 302.259 0.351146C304.742 0.184524 307.214 0.184524 309.685 0.478889C315.339 1.15649 320.538 3.00599 325.125 6.44396C326.32 7.33816 327.319 8.4212 328.297 9.53757C328.391 9.64865 328.469 9.7764 328.597 9.95413C325.725 12.2257 322.859 14.4918 320.01 16.7412C317.716 13.8253 314.739 12.0758 311.29 11.0316C309.419 10.4651 307.486 10.143 305.547 10.1707C298.077 10.2818 291.923 13.0977 287.536 19.3016C285.597 22.0453 284.414 25.1167 283.798 28.4158C283.492 30.0543 283.276 31.7094 283.287 33.3701C283.303 36.6414 283.698 39.8794 284.792 42.973C287.075 49.4047 291.323 53.9146 297.894 56.0973C299.238 56.5416 300.626 56.7416 302.009 56.9693C303.703 57.2525 305.397 57.1915 307.097 57.0304C308.991 56.8527 310.813 56.4305 312.59 55.7529C315.239 54.7477 317.478 53.1536 319.427 51.1264C319.821 50.7154 320.155 50.2433 320.543 49.7657C323.548 51.8707 326.558 53.9812 329.569 56.0862C329.569 56.1417 329.569 56.1751 329.569 56.2139Z" fill="black"></path><path d="M0.712433 1.14537C0.912379 1.12871 1.11788 1.10094 1.31783 1.10094C17.9189 1.10094 34.5145 1.10094 51.1156 1.10094C51.3155 1.10094 51.521 1.10094 51.7154 1.10094C51.8432 1.50638 51.882 10.5206 51.7598 11.3149C51.5155 11.3149 51.26 11.3149 51.01 11.3149C34.5034 11.3149 17.9967 11.3149 1.49 11.3149C1.23452 11.3149 0.973474 11.3426 0.717987 11.3593C0.712433 7.95465 0.712433 4.55001 0.712433 1.14537Z" fill="black"></path><path d="M0.712433 28.9046C0.951258 28.9046 1.19564 28.9102 1.43446 28.9102C17.9578 28.9102 34.4812 28.9102 51.0101 28.9102C51.2489 28.9102 51.4877 28.9102 51.7154 28.9102C51.8376 29.3267 51.8765 38.2743 51.7543 39.1185C34.7478 39.1185 17.7301 39.1185 0.712433 39.1185C0.712433 35.7139 0.712433 32.3092 0.712433 28.9046Z" fill="black"></path><path d="M0.712433 56.7693C0.912379 56.7527 1.11788 56.7249 1.31783 56.7249C17.9189 56.7249 34.5145 56.7249 51.1156 56.7249C51.3155 56.7249 51.521 56.7249 51.7154 56.7249C51.8432 57.1304 51.882 66.1446 51.7598 66.9388C51.5155 66.9388 51.26 66.9388 51.01 66.9388C34.5034 66.9388 17.9967 66.9388 1.49 66.9388C1.23452 66.9388 0.973474 66.9666 0.717987 66.9833C0.712433 63.5786 0.712433 60.174 0.712433 56.7693Z" fill="black"></path><path d="M204.958 104.284C204.569 104.179 204.18 104.068 203.791 103.962C201.514 103.368 200.248 101.868 200.048 99.5134C200.009 99.0357 199.987 98.5525 199.981 98.0749C199.976 95.8921 199.976 93.7094 199.976 91.5267C199.976 91.3267 199.976 91.1268 199.976 90.8879C200.564 90.8879 201.103 90.8879 201.714 90.8879C201.714 91.099 201.714 91.2989 201.714 91.4933C201.714 93.8982 201.708 96.3031 201.72 98.7081C201.72 99.169 201.758 99.6356 201.853 100.085C202.214 101.791 203.925 102.935 205.641 102.646C205.93 102.596 206.229 102.557 206.507 102.457C207.923 101.946 208.595 100.874 208.718 99.4245C208.757 98.9469 208.751 98.4637 208.751 97.9805C208.751 95.8366 208.751 93.6872 208.751 91.5433C208.751 91.3434 208.751 91.1434 208.751 90.8768C209.329 90.8268 209.873 90.8546 210.445 90.8602C210.462 91.0323 210.484 91.1767 210.484 91.3156C210.489 93.8483 210.501 96.3865 210.484 98.9191C210.467 100.68 209.856 102.174 208.379 103.229C207.801 103.646 207.168 103.934 206.468 104.079C206.218 104.129 205.974 104.212 205.73 104.279C205.474 104.284 205.213 104.284 204.958 104.284Z" fill="black"></path><path d="M232.056 104.284C231.667 104.179 231.278 104.068 230.89 103.962C228.612 103.368 227.346 101.868 227.146 99.5134C227.107 99.0358 227.085 98.5526 227.08 98.0749C227.074 95.8922 227.074 93.7094 227.074 91.5267C227.074 91.3267 227.074 91.1268 227.074 90.888C227.663 90.888 228.201 90.888 228.812 90.888C228.812 91.099 228.812 91.299 228.812 91.4933C228.812 93.8983 228.807 96.3032 228.818 98.7081C228.818 99.1691 228.857 99.6356 228.951 100.085C229.312 101.791 231.023 102.935 232.739 102.646C233.028 102.596 233.328 102.557 233.606 102.457C235.022 101.946 235.694 100.874 235.816 99.4246C235.855 98.9469 235.849 98.4637 235.849 97.9805C235.849 95.8366 235.849 93.6872 235.849 91.5433C235.849 91.3434 235.849 91.1434 235.849 90.9102C236.421 90.7935 236.971 90.8824 237.543 90.8491C237.56 91.0324 237.588 91.1768 237.588 91.3156C237.593 93.8483 237.61 96.3865 237.588 98.9191C237.571 100.68 236.96 102.174 235.483 103.229C234.905 103.646 234.272 103.934 233.572 104.079C233.322 104.129 233.078 104.212 232.834 104.279C232.573 104.284 232.311 104.284 232.056 104.284Z" fill="black"></path><path d="M170.506 0.667733C175.682 0.689949 180.709 1.49529 185.518 3.47254C191.9 6.09961 196.943 10.3151 200.448 16.2802C202.175 19.2128 203.347 22.3841 204.069 25.7166C204.391 27.1995 204.586 28.6991 204.752 30.2043C204.941 31.8871 204.991 33.5589 204.935 35.2418C204.797 39.2629 204.163 43.1897 202.669 46.9442C199.087 55.9362 192.739 62.1179 183.68 65.5226C181.697 66.2668 179.637 66.6834 177.565 67.0999C174.955 67.622 172.322 67.7997 169.673 67.7497C162.019 67.5998 155.016 65.4115 148.884 60.7738C143.319 56.5639 139.653 51.0098 137.726 44.3005C137.17 42.3788 136.815 40.4071 136.576 38.4298C136.248 35.725 136.248 33.0146 136.493 30.2931C136.72 27.7716 137.215 25.3056 137.953 22.9062C140.253 15.4138 144.768 9.60978 151.516 5.58864C154.899 3.57251 158.531 2.22287 162.402 1.45641C164.896 0.956545 168.345 0.662179 170.506 0.667733ZM170.695 10.6539C168.234 10.6095 165.89 10.9539 163.63 11.6814C159.387 13.0477 155.915 15.536 153.266 19.135C150.295 23.1673 148.928 27.7494 148.678 32.698C148.578 34.6364 148.667 36.5803 148.984 38.5076C149.339 40.6848 149.878 42.8175 150.789 44.8337C152.733 49.1325 155.61 52.5983 159.798 54.9032C161.78 55.9918 163.874 56.7527 166.079 57.1859C167.801 57.5247 169.556 57.608 171.322 57.5802C173.166 57.5525 174.982 57.2914 176.743 56.8082C181.669 55.453 185.652 52.6982 188.529 48.4605C191.178 44.556 192.339 40.1627 192.605 35.5028C192.7 33.8422 192.639 32.1759 192.428 30.5208C192.011 27.2162 191.034 24.0948 189.362 21.2067C187.324 17.6798 184.58 14.875 180.909 13.0311C177.676 11.4037 174.233 10.6706 170.695 10.6539Z" fill="black"></path><path d="M115.537 39.0574C111.033 39.0574 106.595 39.0574 102.13 39.0574C102.13 35.9194 102.13 32.8369 102.13 29.721C110.239 29.721 118.336 29.721 126.434 29.721C126.551 30.0932 126.595 61.8235 126.468 62.8399C125.268 63.3454 124.046 63.9063 122.785 64.3784C118.859 65.8613 114.793 66.8222 110.622 67.2721C108.678 67.4831 106.723 67.7331 104.757 67.6664C104.335 67.6497 103.907 67.7442 103.485 67.7497C101.485 67.7664 99.4971 67.6498 97.5087 67.4331C94.0652 67.0666 90.7272 66.2835 87.5281 64.9782C80.9965 62.3179 75.8256 58.0412 72.1877 51.9706C70.5715 49.2714 69.4496 46.3666 68.672 43.3174C68.1666 41.3401 67.7611 39.3518 67.6612 37.3134C67.5945 35.9638 67.4945 34.6197 67.5001 33.2701C67.5223 30.4486 67.9333 27.6716 68.6109 24.9334C70.7048 16.4968 75.5146 10.0763 82.9404 5.58863C86.0562 3.7058 89.4331 2.4839 92.9766 1.68967C94.7317 1.29533 96.4923 1.03985 98.2863 0.86767C100.169 0.68994 102.052 0.617737 103.935 0.68994C109.178 0.895441 114.243 1.91184 119.07 4.01127C121.475 5.05544 123.702 6.39952 125.729 8.06574C125.94 8.23792 126.14 8.43231 126.401 8.67113C123.796 11.487 121.219 14.2752 118.62 17.0855C118.525 17.0133 118.448 16.9745 118.386 16.9078C116.243 14.664 113.627 13.1921 110.739 12.1369C108.55 11.3371 106.301 10.8705 103.979 10.7039C98.7139 10.3318 93.8319 11.4759 89.4498 14.4696C86.1229 16.7412 83.7513 19.8181 82.1128 23.4783C81.102 25.7443 80.5299 28.127 80.2134 30.5764C79.9301 32.7869 79.9357 35.003 80.1189 37.2246C80.2689 39.0408 80.7132 40.8014 81.2742 42.5232C83.7457 50.0878 88.8444 54.881 96.559 56.8693C98.3418 57.3303 100.152 57.5358 101.996 57.558C104.818 57.5913 107.617 57.4247 110.389 56.8749C112.044 56.5472 113.638 56.014 115.226 55.4697C115.432 55.3975 115.543 55.292 115.526 55.0698C115.521 54.9754 115.526 54.8865 115.526 54.7921C115.526 49.7435 115.526 44.6892 115.526 39.6406C115.537 39.4851 115.537 39.3185 115.537 39.0574Z" fill="black"></path><path d="M243.086 66.1224C239.72 66.1224 236.394 66.1224 233.022 66.1224C224.402 44.3282 215.788 22.5396 207.146 0.701058C211.506 0.701058 215.794 0.701058 220.12 0.701058C220.192 0.873234 220.276 1.05096 220.342 1.2398C222.503 7.26041 224.663 13.281 226.818 19.2961C227.801 22.0453 228.785 24.7946 229.768 27.5439C231.167 31.4595 232.572 35.3751 233.972 39.2907C235.327 43.0841 236.682 46.8776 238.038 50.671C238.054 50.721 238.06 50.7932 238.093 50.8265C238.188 50.9209 238.293 51.0431 238.41 51.0653C238.482 51.0764 238.61 50.9376 238.665 50.8376C238.737 50.7154 238.771 50.5655 238.821 50.4266C240.37 46.1555 241.925 41.8789 243.475 37.6078C244.553 34.6364 245.619 31.6594 246.691 28.688C248.324 24.167 249.951 19.646 251.589 15.1305C252.839 11.6703 254.1 8.21571 255.35 4.75553C255.783 3.55585 256.21 2.35617 256.644 1.15649C256.699 1.00098 256.76 0.851017 256.821 0.695503C260.987 0.695503 265.13 0.695503 269.357 0.695503C260.598 22.5285 251.851 44.306 243.086 66.1224Z" fill="black"></path><path d="M80.0023 104.04C78.8304 100.502 77.6752 96.9919 76.4921 93.4151C76.4255 93.5539 76.37 93.6317 76.3366 93.7261C75.348 96.6309 74.3649 99.5356 73.3819 102.44C73.2041 102.963 73.0431 103.496 72.8709 104.04C72.371 104.04 71.8767 104.04 71.3269 104.04C69.955 99.6745 68.5832 95.2923 67.1891 90.8602C67.7334 90.8602 68.1888 90.8602 68.6498 90.8602C68.9497 90.8602 69.1275 91.0157 69.2219 91.2934C69.283 91.4878 69.3607 91.6766 69.4163 91.871C70.2272 94.5814 71.0325 97.2863 71.8378 99.9966C71.9656 100.435 72.0711 100.885 72.2155 101.424C72.2877 101.263 72.3266 101.18 72.3599 101.096C73.1764 98.6637 73.9984 96.2254 74.8093 93.7927C75.0148 93.1818 75.2147 92.5653 75.4202 91.9488C75.4646 91.8099 75.5146 91.6655 75.5702 91.5322C75.8312 90.8824 76.3533 90.6491 76.992 90.9102C77.1142 90.9602 77.2308 91.0879 77.2919 91.2101C77.4086 91.4378 77.4974 91.6878 77.5808 91.9321C78.5194 94.6981 79.458 97.464 80.3911 100.23C80.5133 100.596 80.6133 100.969 80.7521 101.43C80.8188 101.235 80.8632 101.119 80.8965 101.007C80.9687 100.741 81.0243 100.469 81.102 100.202C81.9185 97.4584 82.7349 94.7147 83.5569 91.971C83.8902 90.8602 83.8957 90.8602 85.0454 90.8602C85.2454 90.8602 85.4398 90.8602 85.7175 90.8602C84.3234 95.2979 82.9515 99.6634 81.5741 104.04C81.052 104.04 80.5577 104.04 80.0023 104.04Z" fill="black"></path><path d="M243.919 98.5192C243.919 100.38 243.919 102.185 243.919 104.023C243.336 104.023 242.809 104.023 242.275 104.023C242.159 103.646 242.125 91.5989 242.242 90.9157C244.197 90.8324 246.158 90.6713 248.085 91.1212C251.195 91.8433 251.279 95.4256 249.834 96.9419C249.373 97.4195 248.818 97.7361 248.213 97.9749C248.007 98.0527 247.802 98.136 247.585 98.2193C249.001 100.135 250.412 102.041 251.873 104.012C251.245 104.09 250.701 104.09 250.162 104.023C249.862 103.984 249.701 103.746 249.535 103.518C248.485 102.063 247.413 100.624 246.38 99.158C246.058 98.7025 245.68 98.4804 245.125 98.5248C244.753 98.5415 244.386 98.5192 243.919 98.5192ZM243.936 97.2251C244.786 97.2251 245.575 97.2418 246.363 97.214C246.691 97.2029 247.024 97.1252 247.335 97.0141C248.551 96.592 249.151 95.5756 249.024 94.2259C248.918 93.1596 248.14 92.4598 246.863 92.2931C246.846 92.2931 246.824 92.2876 246.808 92.2876C245.919 92.2654 245.036 92.2431 244.147 92.2209C244.08 92.2209 244.014 92.2654 243.936 92.2931C243.936 93.9316 243.936 95.5534 243.936 97.2251Z" fill="black"></path><path d="M130.222 104.018C129.783 104.018 129.339 104.046 128.906 104.007C128.728 103.99 128.528 103.857 128.406 103.712C127.912 103.112 127.434 102.502 126.973 101.879C126.284 100.963 125.607 100.041 124.946 99.1024C124.64 98.6748 124.285 98.4471 123.735 98.5082C123.335 98.5526 122.93 98.5193 122.474 98.5193C122.474 100.352 122.474 102.141 122.474 103.979C121.886 104.062 121.347 104.018 120.78 104.001C120.78 99.6134 120.78 95.2701 120.78 90.9435C120.825 90.9158 120.852 90.8769 120.886 90.8769C122.641 90.888 124.401 90.7214 126.14 91.0713C126.323 91.1101 126.501 91.149 126.679 91.199C128.012 91.5934 128.917 92.3987 129.172 93.8094C129.433 95.2424 129.006 96.4421 127.867 97.3585C127.601 97.5751 127.262 97.7084 126.945 97.8583C126.668 97.9916 126.379 98.1027 126.09 98.2249C127.512 100.141 128.906 102.018 130.3 103.89C130.272 103.929 130.244 103.973 130.222 104.018ZM122.474 97.2252C123.346 97.2252 124.152 97.2585 124.962 97.2141C125.357 97.1918 125.768 97.0863 126.134 96.9253C127.373 96.3976 127.962 94.8536 127.428 93.6095C127.273 93.2429 127.045 92.9208 126.69 92.743C126.345 92.5709 125.979 92.3654 125.612 92.3376C124.601 92.2598 123.585 92.2709 122.574 92.2487C122.546 92.2487 122.519 92.2932 122.474 92.3265C122.474 93.9372 122.474 95.559 122.474 97.2252Z" fill="black"></path><path d="M89.0554 90.8713C91.7602 90.8713 94.404 90.8713 97.0866 90.8713C97.0866 91.3156 97.0866 91.7489 97.0866 92.2487C94.9982 92.2487 92.9155 92.2487 90.7938 92.2487C90.7938 93.7483 90.7938 95.1813 90.7938 96.6975C92.4711 96.7308 94.1429 96.6975 95.8647 96.7197C95.8647 97.153 95.8647 97.5695 95.8647 98.0638C95.337 98.0638 94.7927 98.0694 94.2429 98.0694C93.6708 98.0694 93.0932 98.0694 92.5211 98.0694C91.9657 98.0694 91.4159 98.0694 90.8716 98.0694C90.7383 98.4748 90.7049 101.824 90.8271 102.624C91.8657 102.624 92.9099 102.624 93.9596 102.624C94.9927 102.624 96.0257 102.624 97.0921 102.624C97.0921 103.107 97.0921 103.54 97.0921 104.018C94.4206 104.018 91.7547 104.018 89.0554 104.018C89.0554 99.6356 89.0554 95.2812 89.0554 90.8713Z" fill="black"></path><path d="M172.061 102.629C174.21 102.629 176.276 102.629 178.387 102.629C178.387 103.112 178.387 103.557 178.387 104.029C175.704 104.029 173.055 104.029 170.361 104.029C170.361 99.6467 170.361 95.2979 170.361 90.9435C170.756 90.838 177.632 90.8102 178.398 90.9157C178.398 91.3267 178.398 91.7433 178.398 92.2265C177.893 92.2876 177.382 92.2487 176.871 92.2542C176.332 92.2598 175.799 92.2542 175.26 92.2542C174.744 92.2542 174.227 92.2542 173.705 92.2542C173.188 92.2542 172.672 92.2542 172.166 92.2542C172.039 92.6597 172 95.7866 172.105 96.6975C173.772 96.6975 175.443 96.6975 177.16 96.6975C177.16 97.1696 177.16 97.5806 177.16 98.0527C175.493 98.0527 173.822 98.0527 172.066 98.0527C172.055 99.5856 172.066 101.069 172.061 102.629Z" fill="black"></path><path d="M255.094 90.8713C257.799 90.8713 260.443 90.8713 263.125 90.8713C263.125 91.3156 263.125 91.7489 263.125 92.2487C261.037 92.2487 258.954 92.2487 256.833 92.2487C256.833 93.7483 256.833 95.1868 256.833 96.6975C258.51 96.7586 260.187 96.6698 261.903 96.7308C261.903 97.1585 261.903 97.5751 261.903 98.0527C260.243 98.0527 258.571 98.0527 256.916 98.0527C256.783 98.4915 256.749 101.885 256.866 102.618C258.938 102.618 261.015 102.618 263.131 102.618C263.131 103.107 263.131 103.546 263.131 104.018C260.459 104.018 257.788 104.018 255.089 104.018C255.094 99.6356 255.094 95.2812 255.094 90.8713Z" fill="black"></path><path d="M156.282 104.018C155.982 104.018 155.799 104.023 155.615 104.018C154.616 103.996 154.738 104.223 154.238 103.107C153.899 102.352 153.649 101.557 153.355 100.78C153.31 100.663 153.255 100.546 153.194 100.424C151.161 100.424 149.15 100.424 147.123 100.424C146.757 101.38 146.384 102.324 146.023 103.274C145.779 103.923 145.657 104.012 144.974 104.018C144.702 104.018 144.424 104.018 144.057 104.018C145.79 99.5856 147.518 95.2368 149.339 90.888C149.861 90.888 150.406 90.888 151.017 90.888C152.749 95.209 154.493 99.5579 156.282 104.018ZM152.649 99.158C152.527 98.797 152.433 98.4693 152.311 98.1471C151.661 96.442 151.005 94.7425 150.35 93.0374C150.3 92.9096 150.239 92.7819 150.161 92.6153C149.317 94.8202 148.495 96.9697 147.662 99.158C149.345 99.158 150.967 99.158 152.649 99.158Z" fill="black"></path><path d="M133.671 103.984C133.671 99.6023 133.671 95.2646 133.671 90.8935C136.343 90.8935 138.981 90.8935 141.652 90.8935C141.813 91.3101 141.73 91.7433 141.708 92.2543C139.592 92.2543 137.492 92.2543 135.365 92.2543C135.365 93.7817 135.365 95.2313 135.365 96.742C137.076 96.742 138.77 96.742 140.486 96.742C140.486 97.1863 140.486 97.564 140.486 98.0194C138.781 98.0194 137.093 98.0194 135.365 98.0194C135.365 99.5968 135.365 101.107 135.365 102.685C137.476 102.685 139.575 102.685 141.702 102.685C141.702 103.157 141.702 103.551 141.702 103.984C139.031 103.984 136.376 103.984 133.671 103.984Z" fill="black"></path><path d="M116.359 101.374C116.665 101.702 116.898 101.957 117.187 102.268C116.965 102.479 116.726 102.763 116.437 102.974C114.193 104.59 110.772 104.762 108.422 102.679C107.245 101.635 106.567 100.313 106.395 98.7303C106.284 97.7139 106.195 96.7031 106.451 95.6978C106.906 93.9038 107.811 92.4209 109.483 91.5211C110.722 90.8546 112.049 90.6491 113.449 90.7935C114.815 90.9324 115.932 91.5433 116.998 92.382C116.898 92.5431 116.815 92.6875 116.726 92.8208C116.32 93.3984 116.254 93.3928 115.637 93.0207C114.165 92.1265 112.588 91.9377 110.95 92.4542C110.15 92.7097 109.539 93.2595 109.05 93.926C108.267 94.9924 107.884 96.1865 107.989 97.5139C108.067 98.5081 108.167 99.4967 108.672 100.397C109.211 101.352 109.933 102.118 110.983 102.446C112.416 102.89 113.86 102.918 115.232 102.185C115.426 102.079 115.593 101.929 115.77 101.796C115.965 101.657 116.159 101.518 116.359 101.374Z" fill="black"></path><path d="M190.106 98.386C190.106 100.28 190.106 102.124 190.106 104.012C189.534 104.012 189.012 104.012 188.479 104.012C188.368 103.64 188.329 91.6878 188.445 90.888C191.095 90.888 193.755 90.888 196.454 90.888C196.454 91.3212 196.454 91.7488 196.454 92.2432C194.355 92.2432 192.272 92.2432 190.212 92.2432C190.067 92.6819 190.039 96.2143 190.162 96.9363C191.933 96.9363 193.716 96.9363 195.538 96.9363C195.538 97.4195 195.538 97.8417 195.538 98.3304C195.344 98.3415 195.149 98.3582 194.955 98.3582C193.55 98.3582 192.144 98.3582 190.734 98.3582C190.545 98.3582 190.345 98.3749 190.106 98.386Z" fill="black"></path><path d="M166.968 90.8935C166.968 91.3656 166.968 91.8044 166.968 92.2932C165.568 92.2932 164.185 92.2932 162.752 92.2932C162.752 96.2199 162.752 100.091 162.752 104.023C162.158 104.073 161.614 104.057 161.014 104.034C161.014 100.124 161.014 96.2532 161.014 92.3265C159.581 92.3265 158.204 92.3265 156.782 92.3265C156.782 91.8266 156.782 91.3767 156.782 90.8935C160.153 90.8935 163.53 90.8935 166.968 90.8935Z" fill="black"></path><path d="M217.932 92.3098C216.471 92.3098 215.077 92.3098 213.644 92.3098C213.644 91.8155 213.644 91.3823 213.644 90.9435C214.022 90.8324 222.847 90.788 223.903 90.8991C223.903 91.3434 223.903 91.7933 223.903 92.2931C222.492 92.2931 221.098 92.2931 219.648 92.2931C219.648 96.2254 219.648 100.097 219.648 104.018C219.07 104.018 218.548 104.018 217.954 104.018C217.899 103.396 217.937 102.757 217.932 102.118C217.926 101.468 217.932 100.824 217.932 100.174C217.932 99.5079 217.932 98.8414 217.932 98.1749C217.932 97.5251 217.932 96.8808 217.932 96.231C217.932 95.5812 217.932 94.9369 217.932 94.2871C217.932 93.6539 217.932 93.0096 217.932 92.3098Z" fill="black"></path></svg>