<?xml version="1.0" encoding="UTF-8"?>
<svg id="Ebene_1" xmlns="http://www.w3.org/2000/svg" version="1.1" viewBox="0 0 910.8 276.7">
  <!-- Generator: Adobe Illustrator 30.1.0, SVG Export Plug-In . SVG Version: 2.1.1 Build 136)  -->
  <defs>
    <style>
      .st0 {
        fill: #1a1a1a;
      }
    </style>
  </defs>
  <g>
    <path class="st0" d="M359.3,69.8c1.2,13,16,19.9,29.7,19.9s20.6-2.2,26-11.1h16.3c-7.9,15-25.6,21.2-41.6,21.2-31.4,0-46.8-15.4-46.8-33.5s15.4-33.5,46.8-33.5,43.7,9.6,43.7,35.5v1.6h-74.2ZM417.2,60.5c-2.5-11.4-13.7-17.7-28.2-17.7s-26.8,6.6-29.3,17.7h57.4Z"/>
    <path class="st0" d="M449.2,11.4h15.4v86.2h-15.4V11.4Z"/>
    <path class="st0" d="M496.6,25.5c0-11.6,9.2-15.6,24.8-15.6s8.9.6,13.4,1v9.3c-2.9-.1-5.7-.2-8.6-.2-10,0-14.2,1-14.2,6.1v8.7h22.8v9.3h-22.8v53.4h-15.4v-53.4h-16.5v-9.3h16.5v-9.3Z"/>
    <path class="st0" d="M586.4,32.7c31.4,0,46.8,15.4,46.8,33.5s-15.4,33.5-46.8,33.5-46.8-15.4-46.8-33.5,15.4-33.5,46.8-33.5ZM586.4,42.8c-22.3,0-30.5,12.1-30.5,23.5s8.2,23.5,30.5,23.5,30.5-12.1,30.5-23.5-8.2-23.5-30.5-23.5Z"/>
    <path class="st0" d="M648.5,34.9h15.4v11.5h.3c7.2-9.9,17.4-13.6,27.7-13.6s5.9.1,8.8.7v12.9c-3.8-.8-6.8-1.2-10.9-1.2-15.2,0-25.9,7.1-25.9,20.6v31.8h-15.4v-62.7Z"/>
    <path class="st0" d="M773.7,34.9h17.2l-42.2,73.5c-7.9,13.4-13.7,15.6-28,15.6s-7.5-.1-11.7-.5v-10.1c2.9.1,5.2.5,8.9.5,9.4,0,11.9-1.6,16.8-9.6l3.5-5.7-37.3-63.7h17.7l27.7,49.6,27.3-49.6Z"/>
    <path class="st0" d="M799.5,34.9h15.4v9.5h.3c7.5-8.7,19.9-11.6,31.6-11.6,19.4,0,33.9,6.5,33.9,22.1v42.7h-15.4v-40.3c0-9.2-7.2-14.5-23.9-14.5s-26.5,6.3-26.5,18.7v36.1h-15.4v-62.7Z"/>
  </g>
  <path class="st0" d="M910.8,23c0,3.5-1.3,6.4-4,8.9-2.7,2.4-5.9,3.7-9.6,3.7s-7-1.2-9.6-3.7c-2.7-2.4-4-5.4-4-8.9s1.3-6.4,4-8.9c2.7-2.4,5.9-3.7,9.6-3.7s7,1.2,9.6,3.7,4,5.4,4,8.9ZM909,23c0-3-1.2-5.6-3.4-7.7-2.3-2.1-5.1-3.2-8.3-3.2s-6,1.1-8.3,3.2c-2.3,2.1-3.4,4.7-3.4,7.7s1.1,5.6,3.4,7.7c2.3,2.1,5.1,3.2,8.3,3.2s6-1.1,8.3-3.2c2.3-2.1,3.4-4.7,3.4-7.7ZM906,29.4h-3.5l-5.2-5.1h-2.5v5.1h-2.6v-13.3h4.9c1,0,1.8,0,2.4.1.6,0,1.3.3,1.9.6.7.3,1.1.7,1.5,1.2.3.5.5,1.1.5,1.8s-.3,1.7-.9,2.3-1.4,1.1-2.4,1.5l6,5.8ZM900.4,20c0-.3,0-.7-.2-.9-.1-.3-.4-.5-.7-.7-.3-.2-.7-.3-1-.3s-.8,0-1.4,0h-2.3v4.5h2c.6,0,1.2,0,1.7-.1.5,0,.9-.2,1.2-.5.3-.2.6-.5.7-.8.1-.3.2-.7.2-1.1Z"/>
  <g>
    <path class="st0" d="M132.9,0c2,.1,4.1.5,6.1.4,5.3-.3,9.1,2.3,11.9,6.3,3.8,5.5,7.6,11.1,11.1,16.9,2.3,3.9,2.3,8.4,1.9,12.8-1.5,14.9-7.3,28.2-14.2,41.2-4.6,8.7-9.8,17.1-16.2,24.7-5.4,6.4-12.1,11.4-18.5,16.7-8.5,7.1-17.9,12.9-27.3,18.7,0,0-.2,0-.5-.1,2.2-2.3,4.3-4.8,6.7-7,8.2-7.6,16.5-15.1,24.8-22.7,3.5-3.2,7-6.4,10.1-10,2.6-3,4.7-6.4,6.8-9.7,5.4-8.6,10-17.5,13.2-27.1,1.8-5.3,3.2-10.7,4.4-16.2.9-4.1.2-8.3-1.5-12.3,0-.2-.2-.5-.4-.5-2.4-.9-4.6-2.3-7.5-1.9-2.3.3-4.8.2-7.2,0-6.9-.3-13.5,1.2-19.9,3.5-5.7,2-11.4,4.2-16.9,6.8-6.4,3.1-10.4,8.3-12,15.4-2.4,10.3-5.1,20.6-7.4,30.9-1.4,6.2-2.5,12.5-3.7,18.7.2-2.4.4-4.7.7-7.1,1.2-8.6,2.2-17.3,3.7-25.9,1.1-6.3,2.6-12.6,4-18.9,1.8-8.1,6.7-13.4,14-17.2,11-5.9,22.6-9.6,34.9-11.4,4.3-.6,8.5-1.1,12.8-.7,2.4.2,5,.2,6.3-2.4.4-.8.6-1.9.5-2.7-1-5.1-3.9-9.2-7.3-12.8-2.3-2.4-5.5-3-8.8-3.2-13.9-1-27.4,1-40.7,5-.4.1-.8.7-.9,1.2-1.4,5.6-2.9,11.3-4.2,16.9-.8,3.2-1.4,6.5-2.1,9.7,0,.2-.1.3-.4.5,1.1-8.1,2.2-16.3,3.3-24.4.2-1.4.5-2.8.8-4.1.3-1.3,1.2-2.1,2.5-2.5,8.6-2.4,17.3-3.8,26.1-4.7C123.8.6,126.1.3,128.5,0,129.9,0,131.4,0,132.9,0Z"/>
    <path class="st0" d="M0,87.2c.1-2.1.3-4.2.4-6.3.4-10.3,1.5-20.6,3.6-30.7,1.4-6.8,2.8-13.7,4.7-20.4,1.9-6.6,4.8-12.9,8.1-19,1-1.9,2.8-2.9,4.7-3.7,6.8-2.9,14-4.6,21.4-5.1,6.9-.5,13.7-1.1,20.6-1.1,7.9,0,15.7,1,23,4.1.2,0,.4.2,1,.5-3-.4-5.6-.9-8.2-1.1-5.6-.4-11.2-.9-16.8-.7-7.8.3-15.6,1.1-23.3,1.9-3.3.3-6.5,1.2-9.7,2.1-2.8.8-5.2,2.7-6.7,5.2-.5.9-.2,2.7.4,3.7,3.6,6.2,7.3,12.3,11.2,18.3,3.5,5.2,7.4,10.1,11.1,15.2.1.1.2.3.2.6-2.8-2.4-5.6-4.8-8.4-7.2-3.8-3.3-7.5-6.7-11.2-10-2.5-2.2-5.5-2.5-8.3-.9-1.3.7-2.2,2.2-3,3.6-4.2,7.3-6.3,15.3-7.8,23.4-1.2,6.8-1.9,13.7-2.5,20.5-.5,5.6-.3,11.3-.7,17-.6,11.1.3,22.1,1.9,33,1.5,9.9,4.2,19.7,6.9,29.5,3.8,13.9,10.1,26.8,17.2,39.2,5,8.7,11.1,16.7,17.2,24.8,5.8,7.7,12.1,15.1,18.4,22.5,2.2,2.5,4.9,4.6,7.5,6.8,1.6,1.3,3.5,1.6,5.5.7.2-.1.8,0,1,.3,2,3.3,4,6.6,6,9.9,0,.1.1.3.1.4-.2,0-.5,0-.7,0-3.6-.3-6.8-1.8-9.4-4.2-4.3-3.9-8.5-8.1-12.4-12.4-6.6-7.4-13.4-14.9-19.4-22.8-5.9-7.7-11.2-15.8-16.2-24-11.8-19.7-19.7-41.1-23.8-63.7-1.3-7.3-2-14.8-2.8-22.3-.4-3.6-.4-7.3-.6-11,0-.2-.1-.4-.2-.6,0-5.3,0-10.6,0-15.9Z"/>
    <path class="st0" d="M276.7,133c-2,9.5-6,17.8-11,25.7-6.1,9.7-12.8,18.9-21.4,26.5-7.4,6.7-15.4,12.6-24.3,17.2-5.8,3-11.4,6.4-17.4,9-5.7,2.6-11.8,4.3-17.7,6.6-2.8,1.1-5.6,2.5-8.3,3.9-.7.4-1.4,1.4-1.6,2.3-.6,2.5-1.3,5-1.4,7.5-.3,5.1-.4,10.3-.3,15.4,0,6.6.4,13.2,2.4,19.6.2.6.8,1.2,1.4,1.6,3.2,1.8,6.8,1.8,10.3,2,4.9.3,9.9.7,14.8.5,6.5-.2,12.9-1,19.3-1.5,6-.4,11.7-2.1,17.4-3.5,2.8-.7,4.7-2.4,6.5-4.5,7.6-9.2,13.4-19.5,18.6-30.3,8.4-17.5,13.2-36.2,17.7-55,1.2-5.2,1.9-10.5,2.8-15.7,0-.1,0-.2.2-.6-.1,2.5-.1,4.8-.4,7-.8,6.4-1.4,12.7-2.5,19-2,11.3-5,22.5-8.8,33.3-2.2,6.2-4.2,12.6-7.1,18.6-4.3,9-9.5,17.5-15.4,25.6-2.2,3-4.2,6.4-7.9,7.7-3.8,1.3-7.7,2.3-11.7,2.8-9,1.1-18,2.2-27.1,2.5-9.4.3-18.8-.4-28.2-.9-3.2-.1-4.2-1.4-4.3-4.6-.1-4.8-.2-9.5-.3-14.3,0-4.9-.1-9.7-.1-14.6,0-7.8.1-15.6.2-23.5,0-2.6.2-5.2.2-7.8,0-1,.6-.9,1.2-.9,7.8,0,15.3-1.3,22.8-3.3,11.1-2.9,21.3-8.2,31.1-14,4.8-2.8,9.7-5.5,14.1-8.8,4.2-3.2,7.9-7.1,11.6-10.9,7.6-7.7,13.2-16.8,18.2-26.2,2.1-4,3.9-8.2,5.9-12.4,0-.2.2-.4.4-.8Z"/>
    <path class="st0" d="M83,149.1c3.3,3.5,6.5,7.1,9.9,10.5,4.8,4.9,9.7,9.7,14.7,14.3,8.1,7.4,17.1,13.7,26.6,19.3,6,3.5,11.9,7.2,18.1,10.2,4.7,2.3,9.8,3.7,14.7,5.6.3.1.7.5.7.8,0,16.1,0,32.3-.1,48.4,0,4.3-.2,8.5-.4,12.8,0,1.8-2.2,3.9-4.6,4.2-2.6.4-5.2.7-7.9.8-7.4.3-14.9.7-22.3.6-9.4-.2-18.7-1.2-28-3.1-3.4-.7-6.5-2.1-9.4-3.8-1.3-.7-2.2-2.3-3.1-3.6-5.1-7.7-10.1-15.4-13.6-24-.9-2.2-1.6-4.4-2.2-6.7,1.1,2.1,2.2,4.3,3.3,6.4,3.3,6.2,7.3,12,12.3,17,6.2,6.3,13.8,10.1,22.6,11.3,7.4.9,14.8,1.7,22.2,2,7.6.3,15.1-.8,22.5-2.1.4,0,.9-.5,1.2-.8,1.8-2.2,2.3-4.8,2.6-7.5.5-5.2,1.1-10.5,1.3-15.7.3-6.2.4-12.5.2-18.8-.2-6.5-3.2-11.7-8.8-15.2-8-4.9-16.1-9.7-24.2-14.6-8-4.8-16.2-9.5-22.9-16.1-5.5-5.4-10.7-11.3-15.9-17.1-4-4.5-6.9-9.8-9.6-15.2Z"/>
    <path class="st0" d="M68.7,44.3c-2.2,1.7-4.4,3.3-6.5,5.1-4.4,3.7-8.9,7.3-13,11.4-4.5,4.6-6.6,10.7-8.8,16.7-2.3,6.4-3.2,13.1-4.1,19.8-1,7.8-1.4,15.7-2.3,23.5-.7,5.5,0,10.9.6,16.3.3,2.5,2.1,4.7,4.3,6.2,3.5,2.5,7.5,1.5,11.2,1.2,5-.3,9.9-1.7,15-1.2,3,.3,6.1.6,9.1.9.2,0,.5.6.4.8-3.8,10.6-5.6,21.6-6.7,32.8-.6,7.1-1.3,14.2-1.2,21.2,0,9.3,1.8,18.4,5.2,27.1.3.8.7,1.5,1.2,2.4-.4-.2-.6-.3-.7-.4-9.1-6.8-14.6-16.1-19.2-26.2-4.5-9.9-8.3-20.1-11.1-30.6-1.1-4.3-1.8-8.8-2.7-13.2,5.8,19.4,12.6,38.3,24,55.2.1,0,.3-.1.4-.2-.4-2-.8-4-1.1-6-1-6.9-1-13.9-.4-20.9.9-10.4,2.1-20.8,4.4-31,.5-2.2,1.3-4.3,1.9-6.5,0-.3-.3-.9-.6-1-3.7-1.4-7.6-.9-11.5-.7-4.7.2-9.3.7-14,.8-4.9.1-8.8-3.2-10.4-7.9-1.6-4.6-1.3-9.3-1.2-14,.2-13.2,1.9-26.4,4.2-39.4,2-11.4,6-22.2,14.5-30.7,2.6-2.6,6-4.6,9.2-6.7,3.1-2,6.4-3.6,9.5-5.3,0,.1.1.2.2.4Z"/>
    <path class="st0" d="M158.2,6.7c4.5-.5,9.1-1.1,13.6-1.4,5.6-.3,11.3-.5,16.9-.4,9.1.2,18,2.2,26.6,5,5.9,1.9,11.9,3.5,17.3,6.2,8.4,4.1,16.1,9.4,22.7,16.1,9.1,9.3,15.5,20.3,20.7,32.2,5.7,13,9.2,26.6,10.8,40.7.7,6.1,1.1,12.3.9,18.4-.2,7.7-1.2,15.3-1.9,23,0,0,0,0-.2.2-.2-2.2-.3-4.4-.5-6.6-.6-7.5-1.2-15-3.2-22.3-.1-.5-.2-1-.5-1.3-2.2-2.7-1.9-5.9-2-9-.4-11.5-2-22.8-5.2-33.9-3.3-11.2-8-21.7-15.7-30.7-3.6-4.2-7-8.6-11-12.5-2.8-2.7-6.3-4.6-9.5-6.9-8.6-6-18.4-9.2-28.4-12.1-4-1.2-8-2.4-12-3-8-1.2-16.1-1.5-24.1-1-3.5.2-7,.5-10.5.5-1.6,0-3.2-.6-4.8-.9,0,0,0-.2,0-.3Z"/>
  </g>
  <g>
    <path class="st0" d="M394.1,238.3c0,7.6-2.8,13.4-8.3,17.3-5.6,3.9-13,5.8-22.4,5.8s-5.2-.2-8.8-.5c-3.6-.3-6.7-.7-9.1-1.2v-10.5h.8c1.6.4,3.7.9,6.3,1.5,2.6.5,5.2.8,7.7.8,4,0,7.2-.4,9.7-1.2,2.4-.8,4.3-1.9,5.5-3.5,1.2-1.6,2-3.4,2.4-5.6.4-2.2.5-4.9.5-8v-52.6h-19.5v-9.2h35.2v66.9ZM395.1,160.5h-17.7v-11.4h17.7v11.4Z"/>
    <path class="st0" d="M502.2,236.7h-15.7v-7.2c-5.3,2.9-10.4,5.2-15.2,6.7s-10.2,2.3-16,2.3c-9.8,0-17.4-2.1-22.9-6.3-5.5-4.2-8.2-10.3-8.2-18.4v-42.4h15.7v37.2c0,3.3.2,6.1.7,8.5.4,2.4,1.4,4.4,2.8,6,1.5,1.7,3.5,3,5.8,3.7,2.4.8,5.9,1.2,10.4,1.2s8.5-.7,13.3-2.2c4.8-1.5,9.3-3.4,13.5-5.7v-48.7h15.7v65.3Z"/>
    <path class="st0" d="M669.2,236.7h-15.7v-37.2c0-2.8-.2-5.5-.5-8.1-.4-2.6-1.1-4.7-2.3-6.3-1.3-1.7-3.1-2.9-5.5-3.8-2.4-.9-5.8-1.3-10.4-1.3s-8.8.8-13.2,2.3c-4.4,1.5-8.8,3.5-13.2,5.9.2.9.3,1.9.4,3.1.1,1.2.2,2.4.2,3.5v41.8h-15.7v-37.2c0-2.9-.2-5.6-.5-8.2-.4-2.6-1.1-4.7-2.3-6.2-1.3-1.7-3.1-2.9-5.5-3.8-2.4-.8-5.8-1.3-10.4-1.3s-8.6.7-12.9,2.2c-4.3,1.5-8.6,3.4-12.9,5.7v48.7h-15.7v-65.3h15.7v7.2c4.9-2.8,9.8-5.1,14.7-6.7,4.9-1.6,10.1-2.4,15.6-2.4s11.7.9,16.2,2.8c4.4,1.9,7.7,4.5,9.9,7.8,6.3-3.7,12.1-6.4,17.4-8.1,5.2-1.7,10.8-2.5,16.8-2.5,10.2,0,17.8,2.2,22.7,6.5,4.9,4.3,7.3,10.4,7.3,18.2v42.4Z"/>
    <path class="st0" d="M771.9,236.7h-15.6v-7c-1.4.7-3.3,1.6-5.6,2.8-2.4,1.2-4.7,2.1-6.9,2.8-2.6.9-5.6,1.6-9,2.3-3.4.6-7.4.9-11.9.9-8.4,0-15.5-1.9-21.4-5.8-5.8-3.9-8.8-8.9-8.8-14.9s1.5-9,4.6-12c3-3.1,7.4-5.5,13-7.2,5.7-1.8,12.5-2.9,20.5-3.6,8-.6,16.5-1.1,25.6-1.4v-1.7c0-2.5-.6-4.6-1.9-6.2s-3-2.9-5.4-3.9c-2.2-.9-4.9-1.5-8-1.8-3.1-.3-6.4-.5-9.8-.5s-8.7.4-13.8,1.1c-5.1.8-10.3,1.9-15.7,3.3h-.8v-11.2c3.1-.6,7.5-1.2,13.3-1.9,5.8-.7,11.5-1.1,17.1-1.1s12.3.4,17.2,1.1c4.9.8,9.1,2.1,12.6,3.9,3.5,1.8,6.2,4.1,8,7,1.8,2.8,2.8,6.4,2.8,10.6v44.3ZM756.3,220.6v-18.2c-4.8.2-10.4.5-16.9.9-6.5.4-11.6,1-15.4,1.7-4.5.9-8.2,2.3-10.9,4.2-2.8,1.9-4.2,4.5-4.2,7.8s1.6,6.6,4.8,8.4c3.2,1.9,8.2,2.8,14.8,2.8s10.5-.8,15.1-2.3c4.6-1.5,8.8-3.3,12.7-5.4Z"/>
  </g>
  <path class="st0" d="M806.5,158.4c0,3.5-1.3,6.4-4,8.9s-5.9,3.7-9.6,3.7-7-1.2-9.6-3.7-4-5.4-4-8.9,1.3-6.4,4-8.9c2.7-2.4,5.9-3.7,9.6-3.7s7,1.2,9.6,3.7c2.7,2.4,4,5.4,4,8.9ZM804.6,158.4c0-3-1.2-5.6-3.4-7.7-2.3-2.1-5.1-3.2-8.3-3.2s-6,1.1-8.3,3.2c-2.3,2.1-3.4,4.7-3.4,7.7s1.1,5.6,3.4,7.7c2.3,2.1,5.1,3.2,8.3,3.2s6-1.1,8.3-3.2c2.3-2.1,3.4-4.7,3.4-7.7ZM801.6,164.7h-3.5l-5.2-5.1h-2.5v5.1h-2.6v-13.3h4.9c1,0,1.8,0,2.4.1.6,0,1.3.3,1.9.6.7.3,1.1.7,1.5,1.2.3.5.5,1.1.5,1.8s-.3,1.7-.9,2.3c-.6.6-1.4,1.1-2.4,1.5l6,5.8ZM796.1,155.3c0-.3,0-.7-.2-.9-.1-.3-.4-.5-.7-.7-.3-.2-.7-.3-1-.3-.4,0-.8,0-1.4,0h-2.3v4.5h2c.6,0,1.2,0,1.7-.1.5,0,.9-.2,1.2-.5.3-.2.6-.5.7-.8.1-.3.2-.7.2-1.1Z"/>
</svg>