<svg width="291" height="70" viewBox="0 0 291 70" fill="none" xmlns="http://www.w3.org/2000/svg" aria-label="FAZ Selection Logo">
                <path d="M230.755 68.0891L222.619 52.6158V68.0891H220.119V49.9661H223.795L231.907 65.3894V49.9661H234.407V68.0891H230.755Z" fill="#212529"/>
                <path d="M202.542 68.4141C197.42 68.4141 194.21 64.4895 194.21 59.0151C194.21 53.5407 197.42 49.6412 202.542 49.6412C207.664 49.6412 210.875 53.5407 210.875 59.0151C210.875 64.4895 207.664 68.4141 202.542 68.4141ZM202.542 66.2643C205.777 66.2643 208.326 63.6896 208.326 59.0151C208.326 54.3407 205.777 51.7909 202.542 51.7909C199.307 51.7909 196.758 54.3407 196.758 59.0151C196.758 63.6896 199.307 66.2643 202.542 66.2643Z" fill="#212529"/>
                <path d="M184.96 68.0891H182.461V49.9661H184.96V68.0891Z" fill="#212529"/>
                <path d="M166.183 52.1659H160.399V49.9661H174.466V52.1659H168.683V68.0891H166.183V52.1659Z" fill="#212529"/>
                <path d="M154.102 62.3148C153.318 66.3143 150.255 68.4141 146.407 68.4141C141.31 68.4141 138.344 64.5145 138.344 58.9901C138.344 53.3658 141.579 49.6412 146.603 49.6412C150.279 49.6412 153.245 51.8659 154.004 55.7405H151.578C151.039 53.4907 149.323 51.7909 146.481 51.7909C143.344 51.7909 140.893 54.2907 140.893 58.9901C140.893 63.5646 143.246 66.2643 146.554 66.2643C149.372 66.2643 151.112 64.6395 151.676 62.3148H154.102Z" fill="#212529"/>
                <path d="M118.291 49.9661H130.348V52.1659H120.79V57.6653H129.784V59.865H120.79V65.8893H130.348V68.0891H118.291V49.9661Z" fill="#212529"/>
                <path d="M100.908 65.8893H110.294V68.0891H98.4084V49.9661H100.908V65.8893Z" fill="#212529"/>
                <path d="M77.4968 49.9661H89.5543V52.1659H79.9965V57.6653H88.9906V59.865H79.9965V65.8893H89.5543V68.0891H77.4968V49.9661Z" fill="#212529"/>
                <path d="M61.6011 49.6412C64.787 49.6412 67.6543 51.091 68.3405 54.5906H65.9143C65.3016 52.4909 63.292 51.7909 61.503 51.7909C60.1306 51.7909 57.7289 52.4159 57.7289 54.4406C57.7289 56.0405 58.9788 56.8404 60.6208 57.2153L62.6794 57.6903C65.3996 58.2902 68.6591 59.3401 68.6591 62.9897C68.6591 66.5393 65.4242 68.4141 61.8951 68.4141C57.7044 68.4141 55.0577 66.0893 54.592 62.4647H57.0427C57.5084 64.9645 59.2239 66.2643 61.9442 66.2643C64.5664 66.2643 66.0858 64.9894 66.0858 63.2146C66.0858 61.3149 64.4929 60.515 62.2627 60.015L60.0571 59.5401C57.6309 58.9901 55.1802 57.6153 55.1802 54.5906C55.1802 51.141 58.7337 49.6412 61.6011 49.6412Z" fill="#212529"/>
                <path d="M88.1088 1.85231C87.8803 2.24868 87.5632 2.58191 87.1812 2.82745C86.8402 3.0765 86.4344 3.2168 86.0183 3.23434C85.2033 3.23434 84.4292 2.61348 83.6926 1.36824C83.1674 2.64505 82.3489 3.77453 81.3054 4.65497C80.4085 5.44771 79.2729 5.89319 78.0895 5.91423C78.2805 7.4471 78.359 8.994 78.3249 10.5409V11.474H77.179L76.3128 12.6911H78.3249V39.462H78.9557V36.5015C78.9557 34.6073 79.3036 33.0323 80.0027 31.7766C80.5586 30.6646 81.4145 29.7456 82.4683 29.1177V12.6841H84.9168L85.783 11.4669H82.4683V10.6146C82.4751 9.68151 82.3967 8.75197 82.233 7.83646C82.1273 7.15596 81.9295 6.49301 81.6396 5.86863C82.5331 6.67891 83.297 7.08581 83.9279 7.08581C84.8486 7.08581 85.7046 6.61227 86.4924 5.66519C87.3483 4.56377 87.9076 3.24837 88.1088 1.85231ZM35.2502 10.576C34.6978 11.4424 34.1078 11.8738 33.4735 11.8738C33.1564 11.8493 32.8631 11.7055 32.6448 11.4669C32.372 11.2179 32.1333 10.9303 31.9355 10.6146C31.6729 11.1021 31.2978 11.702 30.8101 12.421C30.3225 13.1401 29.8689 13.768 29.4494 14.3082C29.3096 13.5681 29.0129 12.87 28.5832 12.2597C28.0819 11.6037 27.4647 11.046 26.769 10.6181C26.3427 11.3091 25.8619 11.9615 25.3299 12.5649C24.7604 13.2418 24.1499 13.8802 23.4952 14.473C24.0238 14.4415 24.5387 14.6414 24.9138 15.0202C25.2753 15.4377 25.4595 15.9849 25.4254 16.5426V27.2937C25.4492 27.6761 25.3674 28.0549 25.1901 28.3881C24.9854 28.6758 24.7331 28.9248 24.4398 29.1177C25.0502 29.6299 25.6163 30.1911 26.1347 30.8014C26.7349 31.4539 27.2533 32.1835 27.6727 32.9727C28.1467 32.1203 28.7742 31.3697 29.5279 30.7629C30.3293 30.0718 31.2364 29.5141 32.2117 29.1212C31.632 29.0897 31.0659 28.9213 30.5544 28.6337C30.1622 28.3566 29.886 27.9356 29.7836 27.4586C29.6131 26.6729 29.5415 25.8696 29.5654 25.0663V15.5324C30.1622 16.0164 30.8954 16.2865 31.6559 16.3041C32.3174 16.2795 32.9381 15.9884 33.3917 15.4938C33.9816 14.8905 34.442 14.1644 34.7319 13.3646C35.0729 12.4807 35.2502 11.5371 35.2434 10.5865L35.2502 10.576ZM63.0197 16.6619C63.0095 16.2269 63.0504 15.7884 63.1391 15.364C63.2141 15.0448 63.3505 14.7396 63.5347 14.473C62.8833 13.9679 62.2695 13.4137 61.7 12.8104C60.8986 12.0001 60.2336 11.267 59.7084 10.6181L55.565 15.0413C55.5206 14.1503 55.2547 13.2839 54.7943 12.5263C54.2657 11.7581 53.587 11.1092 52.8027 10.6181C52.3764 11.3091 51.8956 11.9615 51.3636 12.5649C50.7941 13.2418 50.1836 13.8802 49.5289 14.473C50.0575 14.4415 50.5724 14.6414 50.9475 15.0202C51.309 15.4377 51.4932 15.9849 51.4591 16.5426V27.2937C51.4829 27.6761 51.4011 28.0549 51.2238 28.3881C51.0191 28.6758 50.7668 28.9248 50.4735 29.1177C51.0601 29.6088 51.5921 30.1595 52.0695 30.7593C52.6492 31.4328 53.1437 32.173 53.5495 32.9692C53.9588 32.1765 54.4567 31.4328 55.0296 30.7593C55.5138 30.149 56.0629 29.5983 56.6665 29.1177C56.3459 28.9704 56.0663 28.7389 55.8583 28.4478C55.6639 28.097 55.5752 27.6936 55.6025 27.2902V16.0936L56.0765 15.8095C56.5198 15.5043 57.0416 15.3324 57.577 15.3219C57.9351 15.3079 58.2829 15.4552 58.5251 15.7288C58.7808 16.062 58.907 16.483 58.8797 16.9039V27.655C58.8354 28.7284 59.0536 29.7947 59.5106 30.7593C60.0426 31.6714 60.7894 32.4325 61.6795 32.9692C62.0615 32.2817 62.5184 31.6433 63.0402 31.061C63.6268 30.363 64.2679 29.7105 64.9533 29.1142C64.4248 29.1458 63.9098 28.9459 63.5347 28.567C63.1732 28.1496 62.989 27.6024 63.0232 27.0447V16.6583L63.0197 16.6619ZM276.34 27.0482V16.6619C276.33 16.2269 276.371 15.7884 276.459 15.364C276.534 15.0448 276.671 14.7396 276.855 14.473C276.203 13.9679 275.59 13.4137 275.02 12.8104C274.219 12.0001 273.554 11.267 273.029 10.6181L268.885 15.0413C268.841 14.1503 268.575 13.2839 268.114 12.5263C267.586 11.7581 266.907 11.1092 266.123 10.6181C265.697 11.3091 265.216 11.9615 264.684 12.5649C264.114 13.2418 263.504 13.8802 262.849 14.473C263.378 14.4415 263.893 14.6414 264.268 15.0202C264.629 15.4377 264.813 15.9849 264.779 16.5426V27.2937C264.803 27.6761 264.721 28.0549 264.544 28.3881C264.339 28.6758 264.087 28.9248 263.794 29.1177C264.38 29.6088 264.912 30.1595 265.39 30.7593C265.969 31.4328 266.464 32.173 266.87 32.9692C267.279 32.1765 267.777 31.4328 268.35 30.7593C268.834 30.149 269.383 29.5983 269.987 29.1177C269.666 28.9704 269.386 28.7389 269.178 28.4478C268.984 28.097 268.895 27.6936 268.923 27.2902V16.0936L269.397 15.8095C269.84 15.5043 270.362 15.3324 270.897 15.3219C271.255 15.3079 271.603 15.4552 271.845 15.7288C272.101 16.062 272.227 16.483 272.2 16.9039V27.655C272.155 28.7284 272.374 29.7947 272.831 30.7593C273.363 31.6714 274.11 32.4325 275 32.9692C275.382 32.2817 275.839 31.6433 276.36 31.061C276.947 30.363 277.588 29.7105 278.273 29.1142C277.745 29.1458 277.23 28.9459 276.855 28.567C276.493 28.1496 276.309 27.6024 276.343 27.0447L276.34 27.0482ZM76.7493 5.91073C76.7698 5.34248 76.6334 4.78124 76.3537 4.28666C76.0229 3.77102 75.641 3.29397 75.2113 2.86603L74.6589 2.2592C73.7892 3.18524 72.8378 4.02709 71.8181 4.77423V1.36824C71.2248 1.94701 70.5359 2.41354 69.7856 2.74677C69.0354 3.09053 68.2476 3.33607 67.4394 3.47638C67.627 5.00924 67.7054 6.55615 67.6747 8.10305V11.4704H66.5323L65.6661 12.6876H67.6781V27.2937C67.702 27.6761 67.6201 28.0549 67.4428 28.3881C67.2382 28.6758 66.9858 28.9248 66.6926 29.1177C67.303 29.6299 67.8691 30.1911 68.3874 30.8014C68.9876 31.4539 69.506 32.1835 69.9255 32.9727C70.3995 32.1203 71.027 31.3697 71.7806 30.7629C72.582 30.0718 73.4891 29.5141 74.4645 29.1212C73.8847 29.0897 73.3186 28.9213 72.8071 28.6337C72.4149 28.3566 72.1387 27.9356 72.0364 27.4586C71.8659 26.6729 71.7943 25.8696 71.8181 25.0663V12.6841H74.2599L75.1261 11.4669H71.9716C73.6528 10.4111 74.8703 9.4465 75.6205 8.56606C76.3708 7.68914 76.7459 6.80168 76.7459 5.90722L76.7493 5.91073ZM71.8181 5.58451C72.9469 6.47547 73.513 7.32784 73.513 8.14163C73.5096 8.58711 73.3698 9.01856 73.1174 9.37985C72.7491 9.88145 72.3092 10.3269 71.8147 10.6988V5.58451H71.8181ZM113.392 10.576C112.84 11.4424 112.25 11.8738 111.616 11.8738C111.298 11.8493 111.005 11.7055 110.787 11.4669C110.514 11.2179 110.275 10.9303 110.077 10.6146C109.815 11.1021 109.44 11.702 108.952 12.421C108.464 13.1366 108.011 13.768 107.591 14.3082C107.452 13.5681 107.155 12.87 106.725 12.2597C106.224 11.6037 105.607 11.046 104.911 10.6181C104.485 11.3091 104.004 11.9615 103.472 12.5649C102.902 13.2418 102.292 13.8802 101.637 14.473C102.166 14.4415 102.681 14.6414 103.056 15.0202C103.417 15.4377 103.601 15.9849 103.567 16.5426V27.2937C103.591 27.6761 103.509 28.0549 103.332 28.3881C103.127 28.6758 102.875 28.9248 102.582 29.1177C103.192 29.6299 103.758 30.1911 104.277 30.8014C104.877 31.4539 105.395 32.1835 105.815 32.9727C106.289 32.1203 106.916 31.3697 107.67 30.7629C108.471 30.0718 109.378 29.5141 110.354 29.1212C109.774 29.0897 109.208 28.9213 108.696 28.6337C108.304 28.3566 108.028 27.9356 107.926 27.4586C107.755 26.6729 107.684 25.8696 107.707 25.0663V15.5324C108.304 16.0164 109.037 16.2865 109.798 16.3041C110.459 16.2795 111.08 15.9884 111.534 15.4938C112.124 14.8905 112.584 14.1644 112.874 13.3646C113.215 12.4807 113.392 11.5371 113.385 10.5865L113.392 10.576ZM147.553 10.576C147 11.4424 146.41 11.8738 145.776 11.8738C145.459 11.8493 145.165 11.7055 144.947 11.4669C144.674 11.2179 144.436 10.9303 144.238 10.6146C143.975 11.1021 143.6 11.702 143.112 12.421C142.625 13.1366 142.171 13.768 141.752 14.3082C141.612 13.5681 141.315 12.87 140.886 12.2597C140.384 11.6037 139.767 11.046 139.071 10.6181C138.645 11.3091 138.164 11.9615 137.632 12.5649C137.063 13.2418 136.452 13.8802 135.797 14.473C136.326 14.4415 136.841 14.6414 137.216 15.0202C137.578 15.4377 137.762 15.9849 137.728 16.5426V27.2937C137.752 27.6761 137.67 28.0549 137.492 28.3881C137.288 28.6758 137.035 28.9248 136.742 29.1177C137.353 29.6299 137.919 30.1911 138.437 30.8014C139.037 31.4539 139.556 32.1835 139.975 32.9727C140.449 32.1203 141.076 31.3697 141.83 30.7629C142.632 30.0718 143.539 29.5141 144.514 29.1212C143.934 29.0897 143.368 28.9213 142.857 28.6337C142.464 28.3566 142.188 27.9356 142.086 27.4586C141.915 26.6729 141.844 25.8696 141.868 25.0663V15.5324C142.464 16.0164 143.198 16.2865 143.958 16.3041C144.62 16.2795 145.24 15.9884 145.694 15.4938C146.284 14.8905 146.744 14.1644 147.034 13.3646C147.375 12.4807 147.553 11.5371 147.546 10.5865L147.553 10.576ZM46.8109 16.2971C46.7802 15.6481 46.961 15.0027 47.3225 14.473C46.4938 13.9574 45.7265 13.3471 45.0342 12.649C44.359 12.0176 43.7247 11.3407 43.1415 10.6216C42.1696 11.5125 40.5122 12.4351 38.1728 13.3821C37.3066 13.6838 36.5427 14.2415 35.9834 14.9852C35.4958 15.6762 35.2537 16.6408 35.2537 17.886V28.0689C35.2264 29.0511 35.5742 30.0052 36.2187 30.7278C36.8633 31.4433 37.975 32.194 39.5505 32.9797C40.4747 31.4398 41.5319 29.9841 42.705 28.6372C42.7766 29.5071 43.046 30.3489 43.4928 31.0926C44.0145 31.8538 44.6863 32.4992 45.4639 32.9797C45.8867 32.2887 46.371 31.6363 46.903 31.0329C47.4725 30.356 48.0829 29.7176 48.7377 29.1248C48.2091 29.1563 47.6942 28.9564 47.319 28.5776C46.9576 28.1601 46.7734 27.6129 46.8075 27.0552V16.3041L46.8109 16.2971ZM40.9317 28.4267C40.4918 28.4443 40.0723 28.2408 39.8063 27.8795C39.5096 27.4481 39.363 26.9254 39.3937 26.3993V17.4336C39.3698 16.5391 39.4244 15.6411 39.5505 14.7572C39.6222 14.2942 39.8097 13.8592 40.103 13.4979L41.5626 14.7958C41.9104 15.0834 42.2037 15.4342 42.4288 15.8305C42.5993 16.2059 42.6811 16.6163 42.6641 17.0267V27.4516C42.422 27.7357 42.1423 27.9812 41.8354 28.1812C41.5592 28.346 41.2454 28.4302 40.9283 28.4232L40.9317 28.4267ZM98.9158 16.2971C98.8919 15.9147 98.9738 15.5359 99.1511 15.2027C99.3557 14.915 99.6081 14.666 99.9014 14.473C99.3148 13.982 98.7828 13.4313 98.3054 12.8314C97.7256 12.158 97.2312 11.4178 96.8253 10.6216C96.4161 11.4143 95.9182 12.1545 95.3453 12.8314C94.8611 13.4418 94.312 13.9925 93.7084 14.473C94.029 14.6204 94.3086 14.8519 94.5166 15.143C94.711 15.4938 94.7997 15.8972 94.7724 16.3006V27.4586L94.2984 27.7848C93.855 28.09 93.3333 28.2619 92.7979 28.2724C92.4398 28.2864 92.0919 28.1391 91.8498 27.8655C91.5941 27.5323 91.4679 27.1113 91.4952 26.6904V15.9393C91.5361 14.8659 91.3212 13.7996 90.8643 12.8349C90.3323 11.9229 89.5888 11.1618 88.6954 10.6251C88.3134 11.3091 87.8564 11.951 87.3347 12.5333C86.7481 13.2313 86.107 13.8837 85.4215 14.4801C85.9501 14.4485 86.4651 14.6484 86.8402 15.0273C87.2017 15.4447 87.3858 15.9919 87.3517 16.5496V26.9359C87.362 27.3709 87.321 27.8094 87.2324 28.2338C87.1539 28.553 87.0209 28.8547 86.8368 29.1248C87.4881 29.6299 88.102 30.1841 88.6715 30.7874C89.4729 31.5977 90.1379 32.3308 90.6631 32.9797L94.8065 28.5565C94.8508 29.4475 95.1168 30.3139 95.5772 31.0715C96.1058 31.8397 96.7844 32.4886 97.5688 32.9797C97.9917 32.2887 98.4759 31.6363 99.0079 31.0329C99.5774 30.356 100.188 29.7176 100.843 29.1248C100.314 29.1563 99.7991 28.9564 99.4239 28.5776C99.0625 28.1601 98.8783 27.6129 98.9124 27.0552V16.3041L98.9158 16.2971ZM123.098 12.6841L123.964 11.4669H120.138V3.80259C119.217 4.56026 117.757 5.2618 115.759 5.91073C115.923 7.4471 116.001 8.9905 115.994 10.5374V11.4704H114.852L113.986 12.6876H115.994V27.2937C116.018 27.6761 115.936 28.0549 115.759 28.3881C115.554 28.6758 115.302 28.9248 115.009 29.1177C115.619 29.6299 116.185 30.1911 116.704 30.8014C117.304 31.4539 117.822 32.1835 118.242 32.9727C118.716 32.1203 119.343 31.3697 120.097 30.7629C120.898 30.0718 121.805 29.5141 122.781 29.1212C122.201 29.0897 121.635 28.9213 121.123 28.6337C120.731 28.3566 120.455 27.9356 120.353 27.4586C120.182 26.6729 120.11 25.8696 120.134 25.0663V12.6841H123.091H123.098ZM130.672 28.6302C129.973 28.6758 129.301 28.346 128.895 27.7567C128.459 27.0201 128.254 26.1642 128.305 25.3013V22.5022L130.119 21.5691C131.777 20.7027 132.974 19.8714 133.71 19.0752C134.406 18.3736 134.805 17.4195 134.815 16.4163C134.829 15.7428 134.686 15.0764 134.403 14.4695C134.041 13.761 133.625 13.084 133.161 12.4421C132.725 11.8808 132.353 11.267 132.056 10.6181C131.163 11.4845 129.611 12.3614 127.401 13.2559C126.191 13.768 125.349 14.3573 124.878 15.0202C124.404 15.6832 124.169 16.6233 124.169 17.8404V26.2379C124.169 28.0514 124.595 29.4825 125.451 30.5384C126.307 31.5942 127.681 32.2817 129.574 32.6079C130.979 30.8821 132.612 29.3668 134.427 28.104L134.191 27.5779C133.137 28.2583 131.923 28.6231 130.682 28.6337L130.672 28.6302ZM129.032 13.5716C129.639 14.3608 130.143 15.2307 130.535 16.1532C130.836 16.8513 131.003 17.6019 131.03 18.3631C131.044 18.8577 130.911 19.3453 130.655 19.7627C130.256 20.2818 129.751 20.7062 129.175 21.0009L128.309 21.5271V16.2129C128.309 15.0167 128.5 14.1503 128.878 13.6207C128.909 13.5786 128.977 13.4979 128.977 13.4944C128.977 13.4944 129.018 13.547 129.032 13.5681V13.5716ZM213.114 28.6302C212.415 28.6758 211.743 28.346 211.337 27.7567C210.901 27.0201 210.696 26.1642 210.747 25.3013V22.5022L212.562 21.5691C214.219 20.7027 215.416 19.8714 216.153 19.0752C216.848 18.3736 217.247 17.4195 217.258 16.4163C217.271 15.7428 217.128 15.0764 216.845 14.4695C216.483 13.761 216.067 13.084 215.604 12.4421C215.167 11.8808 214.795 11.267 214.499 10.6181C213.605 11.4845 212.054 12.3614 209.844 13.2559C208.633 13.768 207.791 14.3573 207.32 15.0202C206.846 15.6832 206.611 16.6233 206.611 17.8404V26.2379C206.611 28.0514 207.037 29.4825 207.893 30.5384C208.749 31.5942 210.123 32.2817 212.016 32.6079C213.421 30.8821 215.055 29.3668 216.869 28.104L216.634 27.5779C215.58 28.2583 214.366 28.6231 213.124 28.6337L213.114 28.6302ZM211.474 13.5716C212.081 14.3608 212.586 15.2307 212.978 16.1532C213.278 16.8513 213.445 17.6019 213.472 18.3631C213.486 18.8577 213.353 19.3453 213.097 19.7627C212.698 20.2818 212.193 20.7062 211.617 21.0009L210.751 21.5271V16.2129C210.751 15.0167 210.942 14.1503 211.32 13.6207C211.351 13.5786 211.419 13.4979 211.419 13.4944C211.419 13.4944 211.46 13.547 211.474 13.5681V13.5716ZM249.089 28.6302C248.39 28.6758 247.718 28.346 247.312 27.7567C246.875 27.0201 246.671 26.1642 246.719 25.3013V22.5022L248.533 21.5691C250.19 20.7027 251.387 19.8714 252.124 19.0752C252.819 18.3736 253.218 17.4195 253.229 16.4163C253.242 15.7428 253.099 15.0764 252.816 14.4695C252.455 13.761 252.039 13.084 251.575 12.4421C251.138 11.8808 250.767 11.267 250.47 10.6181C249.576 11.4845 248.025 12.3614 245.815 13.2559C244.604 13.768 243.762 14.3573 243.291 15.0202C242.817 15.6832 242.582 16.6233 242.582 17.8404V26.2379C242.582 28.0514 243.008 29.4825 243.864 30.5384C244.72 31.5942 246.094 32.2817 247.987 32.6079C249.392 30.8821 251.026 29.3668 252.84 28.104L252.605 27.5779C251.551 28.2583 250.337 28.6231 249.096 28.6337L249.089 28.6302ZM247.448 13.5716C248.055 14.3608 248.56 15.2307 248.952 16.1532C249.252 16.8513 249.419 17.6019 249.447 18.3631C249.46 18.8577 249.327 19.3453 249.072 19.7627C248.673 20.2818 248.168 20.7062 247.592 21.0009L246.725 21.5271V16.2129C246.725 15.0167 246.916 14.1503 247.295 13.6207C247.326 13.5786 247.394 13.4979 247.394 13.4944C247.394 13.4944 247.435 13.547 247.448 13.5681V13.5716ZM180.175 1.36824C179.254 2.12591 177.794 2.82745 175.796 3.47638C175.96 5.01275 176.038 6.55615 176.031 8.10305V27.2937C176.055 27.6761 175.973 28.0549 175.796 28.3881C175.591 28.6758 175.339 28.9248 175.046 29.1177C175.632 29.6088 176.164 30.1595 176.642 30.7593C177.222 31.4328 177.719 32.173 178.122 32.9692C178.531 32.1765 179.029 31.4363 179.602 30.7593C180.086 30.149 180.635 29.5983 181.239 29.1177C180.918 28.9704 180.639 28.7389 180.431 28.4478C180.236 28.097 180.147 27.6936 180.175 27.2902V1.36824ZM188.537 1.36824C187.616 2.12591 186.156 2.82745 184.158 3.47638C184.322 5.01275 184.4 6.55615 184.393 8.10305V27.2937C184.417 27.6761 184.335 28.0549 184.158 28.3881C183.953 28.6758 183.701 28.9248 183.408 29.1177C183.994 29.6088 184.526 30.1595 185.004 30.7593C185.583 31.4328 186.081 32.173 186.484 32.9692C186.893 32.1765 187.391 31.4363 187.964 30.7593C188.448 30.149 188.997 29.5983 189.601 29.1177C189.28 28.9704 189 28.7389 188.792 28.4478C188.598 28.097 188.509 27.6936 188.537 27.2902V1.36824ZM203.446 16.2971C203.415 15.6481 203.596 15.0027 203.958 14.473C203.129 13.9574 202.362 13.3471 201.669 12.649C200.994 12.0176 200.36 11.3407 199.777 10.6216C198.805 11.5125 197.147 12.4351 194.808 13.3821C193.942 13.6838 193.178 14.2415 192.619 14.9852C192.131 15.6762 191.889 16.6408 191.889 17.886V28.0689C191.851 29.023 192.192 29.9526 192.837 30.6436C193.468 31.3065 194.586 32.0432 196.189 32.8535C197.11 31.3697 198.15 29.9736 199.306 28.6758V29.6509C199.306 30.2121 199.398 30.7664 199.582 31.2925C199.797 31.8958 200.05 32.4851 200.333 33.0569C200.622 33.6778 200.844 34.2109 201.004 34.6599C201.161 35.0949 201.24 35.5544 201.24 36.0174C201.27 36.9434 200.885 37.8344 200.193 38.4307C199.443 39.0586 198.495 39.3813 197.529 39.3427C196.162 39.3427 195.228 38.9919 194.73 38.2869C194.846 38.3185 194.965 38.3325 195.084 38.329C195.654 38.3606 196.213 38.1641 196.643 37.7818C197.032 37.3959 197.24 36.8557 197.216 36.3015C197.236 35.7263 197.011 35.172 196.605 34.7792C196.193 34.3863 195.647 34.1723 195.088 34.1899C194.501 34.1829 193.938 34.4495 193.57 34.9195C193.164 35.4036 192.946 36.0244 192.96 36.6628C192.949 37.673 193.403 38.6271 194.184 39.2375C194.999 39.9285 196.118 40.2723 197.536 40.2723C198.819 40.2933 200.08 39.9741 201.206 39.3392C202.205 38.7885 203.061 37.9958 203.692 37.0276C204.227 36.2419 204.531 35.3088 204.558 34.3512C204.565 33.9303 204.524 33.5059 204.439 33.092C204.34 32.6746 204.207 32.2677 204.043 31.8748C203.862 31.3767 203.709 30.8681 203.589 30.3525C203.487 29.8263 203.439 29.2861 203.453 28.7494V16.2971H203.446ZM197.567 28.4267C197.127 28.4443 196.708 28.2408 196.442 27.8795C196.145 27.4481 195.998 26.9254 196.029 26.3993V17.4336C196.005 16.5391 196.06 15.6411 196.186 14.7572C196.257 14.2942 196.445 13.8592 196.738 13.4979L198.553 15.1606C198.795 15.3745 198.989 15.6376 199.125 15.9323C199.258 16.2795 199.316 16.6548 199.303 17.0267V27.4516C199.061 27.7357 198.781 27.9812 198.474 28.1812C198.198 28.346 197.884 28.4302 197.567 28.4232V28.4267ZM260.008 16.2971C259.984 15.9147 260.066 15.5359 260.244 15.2027C260.448 14.915 260.701 14.666 260.994 14.473C260.407 13.982 259.872 13.4313 259.398 12.8314C258.818 12.1615 258.32 11.4178 257.918 10.6216C257.509 11.4143 257.011 12.1545 256.438 12.8314C255.953 13.4418 255.404 13.9925 254.801 14.473C255.121 14.6239 255.398 14.8519 255.609 15.143C255.803 15.4938 255.892 15.8972 255.865 16.3006V27.2937C255.889 27.6761 255.807 28.0549 255.63 28.3881C255.425 28.6758 255.173 28.9248 254.879 29.1177C255.462 29.6088 255.998 30.1595 256.475 30.7593C257.055 31.4328 257.549 32.173 257.955 32.9692C258.365 32.1765 258.862 31.4328 259.435 30.7593C259.916 30.149 260.469 29.5983 261.072 29.1177C260.752 28.9704 260.472 28.7389 260.264 28.4478C260.07 28.097 259.981 27.6936 260.008 27.2902V16.2971ZM286.359 28.6302C285.66 28.6758 284.988 28.346 284.582 27.7567C284.146 27.0201 283.941 26.1642 283.989 25.3013V22.5022L285.803 21.5691C287.461 20.7027 288.658 19.8714 289.394 19.0752C290.09 18.3736 290.489 17.4195 290.499 16.4163C290.513 15.7428 290.37 15.0764 290.086 14.4695C289.725 13.761 289.309 13.084 288.845 12.4421C288.409 11.8808 288.037 11.267 287.74 10.6181C286.847 11.4845 285.295 12.3614 283.085 13.2559C281.875 13.768 281.032 14.3573 280.562 15.0202C280.088 15.6832 279.852 16.6233 279.852 17.8404V26.2379C279.852 28.0514 280.279 29.4825 281.135 30.5384C281.991 31.5942 283.365 32.2817 285.258 32.6079C286.663 30.8821 288.296 29.3668 290.11 28.104L289.875 27.5779C288.821 28.2583 287.607 28.6231 286.366 28.6337L286.359 28.6302ZM284.719 13.5716C285.326 14.3608 285.831 15.2307 286.223 16.1532C286.523 16.8513 286.69 17.6019 286.717 18.3631C286.731 18.8577 286.598 19.3453 286.342 19.7627C285.943 20.2818 285.438 20.7062 284.862 21.0009L283.996 21.5271V16.2129C283.996 15.0167 284.187 14.1503 284.565 13.6207C284.596 13.5786 284.664 13.4979 284.664 13.4944C284.664 13.4944 284.705 13.547 284.719 13.5681V13.5716ZM22.4994 3.5325C21.5445 3.52899 20.5965 3.38517 19.6791 3.10807C18.7174 2.82394 17.4761 2.39951 15.9518 1.83126C14.2944 1.21039 12.9371 0.750885 11.8697 0.452729C10.8262 0.154574 9.74854 0.00374247 8.66068 0.00374247C7.10903 -0.0418578 5.57442 0.329959 4.20692 1.08061C3.03721 1.72954 2.07212 2.70819 1.42758 3.90081C0.820562 5.01626 0.5 6.27202 0.5 7.54883C0.5 9.11677 0.926279 10.3831 1.78225 11.3407C2.58365 12.2772 3.74313 12.8034 4.95717 12.7823C6.25306 12.8349 7.50802 12.3018 8.38786 11.3231L8.23099 11.039C7.38525 11.5652 6.42016 11.8458 5.43119 11.8493C4.43541 11.8914 3.46349 11.5125 2.75075 10.7935C2.05847 10.0709 1.68676 9.08871 1.72427 8.07498C1.72427 6.91393 2.08576 6.02648 2.80873 5.41614C3.53169 4.80931 4.52407 4.50413 5.78586 4.50413C6.768 4.51115 7.74674 4.669 8.68455 4.97066C9.67011 5.28285 10.8841 5.73534 12.3301 6.32814C13.5987 6.88236 14.8946 7.36993 16.2143 7.78735C17.2442 8.10655 18.3116 8.27142 19.3893 8.27492C20.6783 8.30298 21.9469 7.95923 23.0553 7.28224C24.0783 6.64735 24.9275 5.75288 25.5209 4.68654C26.1108 3.62019 26.4791 2.43809 26.6053 1.21741C26.2097 1.94701 25.6402 2.56086 24.9479 3.00283C24.1909 3.38868 23.3485 3.57108 22.5028 3.52899L22.4994 3.5325ZM19.8565 12.3263C19.154 12.3158 18.4685 12.5438 17.9058 12.9753C17.3431 13.4032 16.8964 13.9679 16.6031 14.6169C16.3132 15.2307 16.1564 15.9007 16.1495 16.5847C15.3243 15.8305 14.5638 15.0027 13.8817 14.1082C13.3941 13.4488 13.1383 12.642 13.152 11.8142C13.169 11.2109 13.3225 10.6181 13.6055 10.0884C13.9056 9.47807 14.2841 8.91333 14.7309 8.40471C13.8954 8.70286 13.111 9.13431 12.4051 9.68151C11.5628 10.3199 10.8466 11.1197 10.2942 12.0352C9.69739 12.9893 9.39047 14.1047 9.40752 15.2412C9.37342 16.3356 9.67011 17.4125 10.2567 18.3245C10.9796 19.3453 11.8049 20.2818 12.7223 21.1237C13.5339 21.8603 14.2705 22.6741 14.9287 23.558C15.4129 24.2701 15.6619 25.1225 15.638 25.9924C15.6312 26.8026 15.43 27.5954 15.048 28.3039C13.3668 25.9503 11.2866 24.684 8.81755 24.684C7.58305 24.677 6.36901 25.0348 5.32889 25.7188C4.24443 26.4308 3.37141 27.434 2.80532 28.6196C2.17101 29.928 1.85386 31.3767 1.87773 32.8394C1.85386 34.1829 2.18806 35.5088 2.84283 36.6733C3.47372 37.7818 4.38766 38.6938 5.48576 39.3111C6.65205 39.9601 7.96499 40.2863 9.29157 40.2652C10.5943 40.2793 11.8799 39.9881 13.0565 39.4129C14.1511 38.8832 15.1231 38.122 15.9142 37.182C16.6338 36.3401 17.1828 35.3615 17.5307 34.3021L17.1351 34.0987C16.378 35.5719 15.297 36.8417 13.9806 37.8098C12.6882 38.7429 11.1433 39.234 9.56439 39.2094C8.42537 39.2375 7.29659 38.9884 6.27352 38.4798C5.39027 38.0378 4.64343 37.3503 4.12507 36.4909C3.62718 35.6631 3.368 34.7055 3.37482 33.7339C3.33049 32.5588 3.767 31.4188 4.57863 30.591C5.39709 29.8193 6.48495 29.4159 7.59328 29.4755C8.57201 29.4334 9.5337 29.7281 10.3351 30.3069C11.2149 31.0259 11.9345 31.9309 12.446 32.9622C12.6813 32.187 13.0701 31.4714 13.5885 30.8611C14.2569 30.0929 15.0276 29.4229 15.8767 28.8722C16.9612 28.1251 17.9263 27.206 18.7345 26.1537C19.3927 25.2101 19.7337 24.0701 19.6996 22.9091C19.7201 21.8603 19.4677 20.822 18.9698 19.9065C18.4105 18.9489 17.7285 18.0755 16.9407 17.3108C16.9168 17.1494 16.9032 16.9881 16.8998 16.8232C16.8998 16.2164 17.0396 15.6166 17.3124 15.0799C17.5614 14.5642 17.9706 14.1503 18.4753 13.9048C18.1991 14.2766 18.0593 14.7361 18.0797 15.2027C18.0627 15.7499 18.2707 16.283 18.6527 16.6619C19.038 17.0442 19.5564 17.2476 20.0918 17.2301C20.6783 17.2266 21.2376 16.967 21.6298 16.5215C22.0697 16.062 22.3118 15.4412 22.3016 14.7958C22.3766 13.5049 21.4252 12.3965 20.1702 12.3193C20.0645 12.3123 19.9622 12.3123 19.8565 12.3193V12.3263ZM257.88 7.36993C258.515 7.36993 259.122 7.09633 259.558 6.61928C260.482 5.73183 260.537 4.24106 259.674 3.29047C259.637 3.24837 259.599 3.20979 259.558 3.1712C258.695 2.21711 257.246 2.16449 256.322 3.05194C256.281 3.09053 256.243 3.12911 256.206 3.1712C255.282 4.05866 255.227 5.54943 256.09 6.50002C256.127 6.54211 256.165 6.5807 256.206 6.61928C256.639 7.09633 257.246 7.36993 257.884 7.36993H257.88ZM167.236 7.3068C166.684 4.90051 165.818 3.08 164.634 1.8488C163.475 0.628115 161.875 -0.0418578 160.218 0.00374247C159.277 -0.00327295 158.349 0.224728 157.517 0.673715C156.709 1.10166 156.024 1.73655 155.526 2.51877C155.035 3.27644 154.772 4.16389 154.775 5.07589C154.728 6.05103 155.055 7.00513 155.682 7.73474C156.296 8.4012 157.159 8.76249 158.049 8.72742C158.547 8.72742 159.042 8.60816 159.488 8.38366C159.921 8.18021 160.283 7.84698 160.535 7.42956L160.337 7.18753C159.771 7.66809 159.059 7.92766 158.325 7.91714C157.64 7.93818 156.982 7.65757 156.511 7.14544C156.037 6.63332 155.781 5.9458 155.802 5.23725C155.754 4.47257 156.02 3.72192 156.532 3.1677C157.101 2.64856 157.845 2.38899 158.602 2.43809C159.594 2.43459 160.522 2.9432 161.067 3.79558C161.712 4.70057 162.271 6.08962 162.745 7.95572L156.631 25.831C155.454 25.8486 154.312 26.2379 153.357 26.9465C152.375 27.6726 151.59 28.6442 151.068 29.7667C150.516 30.9277 150.233 32.2045 150.24 33.4989C150.24 35.5544 150.912 37.196 152.252 38.4272C153.592 39.6584 155.328 40.2723 157.459 40.2723C158.673 40.2828 159.87 39.9916 160.951 39.4199C161.991 38.8727 162.909 38.115 163.652 37.189C164.348 36.3436 164.87 35.365 165.19 34.3091L164.795 34.1057C164.082 35.5544 163.062 36.8207 161.818 37.8169C160.648 38.7394 159.209 39.234 157.735 39.2164C155.867 39.2164 154.404 38.7639 153.336 37.859C152.31 37.0381 151.72 35.7684 151.74 34.4319C151.696 33.4007 152.044 32.3904 152.705 31.6152C153.336 30.9382 154.22 30.5734 155.13 30.619C155.949 30.5875 156.76 30.7839 157.476 31.1873C158.254 31.6293 158.932 32.2396 159.468 32.9727C159.703 32.0818 160.191 31.3557 160.927 30.3945C161.592 29.5071 162.373 28.7214 163.253 28.0619L162.899 27.5743L161.913 28.1426C161.466 27.5358 160.887 27.0482 160.218 26.722C159.451 26.3151 158.626 26.0415 157.773 25.9117L159.55 20.5554H165.664L167.359 28.0198C167.727 29.6158 168.154 30.7734 168.641 31.4889C169.184 32.2431 169.978 32.7693 170.872 32.9692C171.598 31.5065 172.59 30.1981 173.791 29.1142C173.276 29.2335 172.744 29.016 172.451 28.567C172.082 27.9076 171.83 27.185 171.7 26.4378L167.243 7.3068H167.236ZM163.175 9.86392L165.385 19.3417H159.942L163.175 9.86392ZM239.069 27.0482V16.6619C239.059 16.2269 239.1 15.7884 239.189 15.364C239.264 15.0448 239.4 14.7396 239.584 14.473C238.933 13.9679 238.319 13.4137 237.75 12.8104C236.948 12.0001 236.283 11.267 235.758 10.6181L231.656 14.9606C231.574 14.0767 231.246 13.2383 230.708 12.5473C230.056 11.7756 229.282 11.1267 228.419 10.6216L224.276 15.0448C224.232 14.1538 223.966 13.2874 223.505 12.5298C222.977 11.7616 222.298 11.1127 221.514 10.6216C221.087 11.3126 220.606 11.965 220.074 12.5684C219.505 13.2453 218.895 13.8838 218.24 14.4766C218.768 14.445 219.283 14.6449 219.658 15.0238C220.02 15.4412 220.204 15.9884 220.17 16.5461V27.2972C220.194 27.6796 220.112 28.0584 219.935 28.3916C219.73 28.6793 219.478 28.9283 219.184 29.1212C219.771 29.6123 220.303 30.163 220.78 30.7629C221.36 31.4363 221.855 32.1765 222.26 32.9727C222.67 32.18 223.168 31.4363 223.74 30.7629C224.225 30.1525 224.774 29.6018 225.377 29.1212C225.057 28.9739 224.777 28.7424 224.569 28.4513C224.375 28.1005 224.286 27.6971 224.313 27.2937V16.0971L224.787 15.813C225.234 15.5043 225.756 15.3359 226.295 15.3254C226.649 15.3114 226.994 15.4587 227.233 15.7323C227.488 16.0655 227.618 16.4865 227.587 16.9074V27.2937C227.611 27.6761 227.529 28.0549 227.352 28.3881C227.147 28.6758 226.895 28.9248 226.602 29.1177C227.188 29.6088 227.72 30.1595 228.198 30.7593C228.777 31.4328 229.272 32.173 229.678 32.9692C230.124 32.1659 230.67 31.4223 231.294 30.7593C231.836 30.142 232.443 29.5913 233.108 29.1177C232.713 28.9809 232.358 28.7529 232.061 28.4478C231.816 28.118 231.697 27.7076 231.727 27.2902V16.0515L232.123 15.8095C232.563 15.5078 233.074 15.3359 233.603 15.3219C233.968 15.3044 234.322 15.4517 234.575 15.7288C234.824 16.0655 234.95 16.483 234.926 16.9039V27.655C234.882 28.7284 235.1 29.7947 235.557 30.7593C236.089 31.6714 236.836 32.4325 237.726 32.9692C238.108 32.2817 238.565 31.6433 239.086 31.061C239.673 30.363 240.314 29.7105 241 29.1142C240.471 29.1458 239.956 28.9459 239.581 28.567C239.219 28.1496 239.035 27.6024 239.069 27.0447V27.0482Z" fill="#212529"/>
            </svg>