<svg width="237" height="39" viewBox="0 0 237 39" fill="none" xmlns="http://www.w3.org/2000/svg">
<path d="M58.296 6.732C59.784 6.732 61.092 7.032 62.22 7.632C63.348 8.208 64.236 8.964 64.884 9.9V7.056H69.96V27.144C69.96 28.992 69.588 30.636 68.844 32.076C68.1 33.54 66.984 34.692 65.496 35.532C64.008 36.396 62.208 36.828 60.096 36.828C57.264 36.828 54.936 36.168 53.112 34.848C51.312 33.528 50.292 31.728 50.052 29.448H55.056C55.32 30.36 55.884 31.08 56.748 31.608C57.636 32.16 58.704 32.436 59.952 32.436C61.416 32.436 62.604 31.992 63.516 31.104C64.428 30.24 64.884 28.92 64.884 27.144V24.048C64.236 24.984 63.336 25.764 62.184 26.388C61.056 27.012 59.76 27.324 58.296 27.324C56.616 27.324 55.08 26.892 53.688 26.028C52.296 25.164 51.192 23.952 50.376 22.392C49.584 20.808 49.188 18.996 49.188 16.956C49.188 14.94 49.584 13.152 50.376 11.592C51.192 10.032 52.284 8.832 53.652 7.992C55.044 7.152 56.592 6.732 58.296 6.732ZM64.884 17.028C64.884 15.804 64.644 14.76 64.164 13.896C63.684 13.008 63.036 12.336 62.22 11.88C61.404 11.4 60.528 11.16 59.592 11.16C58.656 11.16 57.792 11.388 57 11.844C56.208 12.3 55.56 12.972 55.056 13.86C54.576 14.724 54.336 15.756 54.336 16.956C54.336 18.156 54.576 19.212 55.056 20.124C55.56 21.012 56.208 21.696 57 22.176C57.816 22.656 58.68 22.896 59.592 22.896C60.528 22.896 61.404 22.668 62.22 22.212C63.036 21.732 63.684 21.06 64.164 20.196C64.644 19.308 64.884 18.252 64.884 17.028ZM81.9384 27.324C80.0184 27.324 78.2904 26.904 76.7544 26.064C75.2184 25.2 74.0064 23.988 73.1184 22.428C72.2544 20.868 71.8224 19.068 71.8224 17.028C71.8224 14.988 72.2664 13.188 73.1544 11.628C74.0664 10.068 75.3024 8.868 76.8624 8.028C78.4224 7.164 80.1624 6.732 82.0824 6.732C84.0024 6.732 85.7424 7.164 87.3024 8.028C88.8624 8.868 90.0864 10.068 90.9744 11.628C91.8864 13.188 92.3424 14.988 92.3424 17.028C92.3424 19.068 91.8744 20.868 90.9384 22.428C90.0264 23.988 88.7784 25.2 87.1944 26.064C85.6344 26.904 83.8824 27.324 81.9384 27.324ZM81.9384 22.932C82.8504 22.932 83.7024 22.716 84.4944 22.284C85.3104 21.828 85.9584 21.156 86.4384 20.268C86.9184 19.38 87.1584 18.3 87.1584 17.028C87.1584 15.132 86.6544 13.68 85.6464 12.672C84.6624 11.64 83.4504 11.124 82.0104 11.124C80.5704 11.124 79.3584 11.64 78.3744 12.672C77.4144 13.68 76.9344 15.132 76.9344 17.028C76.9344 18.924 77.4024 20.388 78.3384 21.42C79.2984 22.428 80.4984 22.932 81.9384 22.932ZM102.195 22.356L107.235 7.056H112.599L105.219 27H99.0995L91.7555 7.056H97.1555L102.195 22.356ZM121.082 6.732C122.57 6.732 123.878 7.032 125.006 7.632C126.134 8.208 127.022 8.964 127.67 9.9V7.056H132.746V27.144C132.746 28.992 132.374 30.636 131.63 32.076C130.886 33.54 129.77 34.692 128.282 35.532C126.794 36.396 124.994 36.828 122.882 36.828C120.05 36.828 117.722 36.168 115.898 34.848C114.098 33.528 113.078 31.728 112.838 29.448H117.842C118.106 30.36 118.67 31.08 119.534 31.608C120.422 32.16 121.49 32.436 122.738 32.436C124.202 32.436 125.39 31.992 126.302 31.104C127.214 30.24 127.67 28.92 127.67 27.144V24.048C127.022 24.984 126.122 25.764 124.97 26.388C123.842 27.012 122.546 27.324 121.082 27.324C119.402 27.324 117.866 26.892 116.474 26.028C115.082 25.164 113.978 23.952 113.162 22.392C112.37 20.808 111.974 18.996 111.974 16.956C111.974 14.94 112.37 13.152 113.162 11.592C113.978 10.032 115.07 8.832 116.438 7.992C117.83 7.152 119.378 6.732 121.082 6.732ZM127.67 17.028C127.67 15.804 127.43 14.76 126.95 13.896C126.47 13.008 125.822 12.336 125.006 11.88C124.19 11.4 123.314 11.16 122.378 11.16C121.442 11.16 120.578 11.388 119.786 11.844C118.994 12.3 118.346 12.972 117.842 13.86C117.362 14.724 117.122 15.756 117.122 16.956C117.122 18.156 117.362 19.212 117.842 20.124C118.346 21.012 118.994 21.696 119.786 22.176C120.602 22.656 121.466 22.896 122.378 22.896C123.314 22.896 124.19 22.668 125.006 22.212C125.822 21.732 126.47 21.06 126.95 20.196C127.43 19.308 127.67 18.252 127.67 17.028ZM154.337 7.056V27H149.261V24.48C148.613 25.344 147.761 26.028 146.705 26.532C145.673 27.012 144.545 27.252 143.321 27.252C141.761 27.252 140.381 26.928 139.181 26.28C137.981 25.608 137.033 24.636 136.337 23.364C135.665 22.068 135.329 20.532 135.329 18.756V7.056H140.369V18.036C140.369 19.62 140.765 20.844 141.557 21.708C142.349 22.548 143.429 22.968 144.797 22.968C146.189 22.968 147.281 22.548 148.073 21.708C148.865 20.844 149.261 19.62 149.261 18.036V7.056H154.337ZM162.549 10.152C163.197 9.096 164.037 8.268 165.069 7.668C166.125 7.068 167.325 6.768 168.669 6.768V12.06H167.337C165.753 12.06 164.553 12.432 163.737 13.176C162.945 13.92 162.549 15.216 162.549 17.064V27H157.509V7.056H162.549V10.152ZM189.452 7.056V27H184.376V24.48C183.728 25.344 182.876 26.028 181.82 26.532C180.788 27.012 179.66 27.252 178.436 27.252C176.876 27.252 175.496 26.928 174.296 26.28C173.096 25.608 172.148 24.636 171.452 23.364C170.78 22.068 170.444 20.532 170.444 18.756V7.056H175.484V18.036C175.484 19.62 175.88 20.844 176.672 21.708C177.464 22.548 178.544 22.968 179.912 22.968C181.304 22.968 182.396 22.548 183.188 21.708C183.98 20.844 184.376 19.62 184.376 18.036V7.056H189.452Z" fill="#414045"/>
<path d="M193.993 21.312C196.297 19.392 198.133 17.796 199.501 16.524C200.869 15.228 202.009 13.884 202.921 12.492C203.833 11.1 204.289 9.732 204.289 8.388C204.289 7.164 204.001 6.204 203.425 5.508C202.849 4.812 201.961 4.464 200.761 4.464C199.561 4.464 198.637 4.872 197.989 5.688C197.341 6.48 197.005 7.572 196.981 8.964H192.085C192.181 6.084 193.033 3.9 194.641 2.412C196.273 0.923998 198.337 0.179998 200.833 0.179998C203.569 0.179998 205.669 0.911998 207.133 2.376C208.597 3.816 209.329 5.724 209.329 8.1C209.329 9.972 208.825 11.76 207.817 13.464C206.809 15.168 205.657 16.656 204.361 17.928C203.065 19.176 201.373 20.688 199.285 22.464H209.905V26.64H192.121V22.896L193.993 21.312ZM211.065 21.888V17.928L222.837 1.08H228.705V17.496H231.873V21.888H228.705V27H223.665V21.888H211.065ZM223.989 6.48L216.609 17.496H223.989V6.48Z" fill="#42409F"/>
<g clip-path="url(#clip0_120_45)">
<path d="M19.9997 0L0 12.6601L19.9997 25.3202L32.3398 17.5086L32.6382 17.3197L34.2807 16.2802L35.9483 15.2246L36.3127 14.9944V26.8823H40V12.6608L19.9997 0Z" fill="#42409F"/>
<path d="M8.46655 20.3997V26.6997L19.999 34L31.5315 26.6997V20.4011L19.9997 27.7007L8.46655 20.3997Z" fill="#42409F"/>
</g>
<defs>
<clipPath id="clip0_120_45">
<rect width="40" height="34" fill="white"/>
</clipPath>
</defs>
</svg>
