<svg width="306" height="102" viewBox="0 0 306 102" fill="none" xmlns="http://www.w3.org/2000/svg">
<g clip-path="url(#clip0_2_86)">
<path d="M256.049 54.8755C259.318 53.6168 262.975 55.2351 264.259 58.4865C265.512 61.7679 263.9 65.4389 260.661 66.6825C257.423 67.9711 253.736 66.3529 252.482 63.0715C251.169 59.82 252.781 56.1191 256.049 54.8755Z" fill="#111111"/>
<path d="M243.721 29.7479C249.93 27.3056 256.945 30.4072 259.363 36.6404C261.766 42.8736 258.706 49.9009 252.467 52.3132C246.258 54.7556 239.243 51.654 236.825 45.4208C234.422 39.1876 237.512 32.1903 243.721 29.7479Z" fill="#111111"/>
<path d="M217.078 29.0886C220.287 27.83 223.884 29.4483 225.138 32.6398C226.392 35.8612 224.81 39.4723 221.601 40.7159C218.392 41.9745 214.795 40.3863 213.541 37.1648C212.287 33.9733 213.869 30.3323 217.078 29.0886Z" fill="#111111"/>
<path d="M283.058 17.7307C280.754 11.7596 274.038 8.82192 268.119 11.1356C262.168 13.4504 259.248 20.1751 261.55 26.109C263.853 32.0452 270.566 35.0173 276.488 32.7023C282.439 30.3874 285.358 23.6935 283.058 17.7307Z" fill="#111111" stroke="#111111" stroke-width="2"/>
<path d="M241.392 57.3178C242.556 56.8683 243.855 57.4376 244.333 58.6064C244.78 59.7751 244.213 61.0786 243.049 61.5282C241.885 61.9777 240.556 61.4083 240.109 60.2396C239.631 59.0708 240.228 57.7673 241.392 57.3178Z" fill="#111111"/>
<path d="M20.3598 56.771V80.3773H14.6309V70.6622H5.72895V80.3773H0V56.771H5.72895V66.0082H14.6309V56.771H20.3598Z" fill="#111111"/>
<path d="M40.1203 76.2187H31.3417L29.9315 80.395H23.9382L32.4523 56.7887H39.0802L47.5943 80.395H41.5305L40.1203 76.2187ZM38.6572 71.7771L35.7486 63.1415L32.8753 71.7771H38.6748H38.6572Z" fill="#111111"/>
<path d="M72.2024 80.3773H66.4734L56.9017 65.8136V80.3773H51.1727V56.771H56.9017L66.4734 71.3878V56.771H72.2024V80.3773Z" fill="#111111"/>
<path d="M91.9981 76.2187H83.2196L81.8094 80.395H75.816L84.3301 56.7887H90.9581L99.4722 80.395H93.4083L91.9981 76.2187ZM90.535 71.7771L87.6265 63.1415L84.7532 71.7771H90.5527H90.535Z" fill="#111111"/>
<path d="M116.694 80.3773L108.797 69.9544V80.3773H103.068V56.771H108.797V67.1231L116.641 56.771H123.375L114.262 68.3441L123.71 80.3773H116.712H116.694Z" fill="#111111"/>
<path d="M132.436 79.0678C130.602 78.0414 129.122 76.5904 128.046 74.75C126.971 72.9096 126.425 70.8215 126.425 68.521C126.425 66.2206 126.971 64.1325 128.046 62.3098C129.122 60.4694 130.585 59.0361 132.436 58.0097C134.269 56.9833 136.296 56.4702 138.517 56.4702C140.738 56.4702 142.748 56.9833 144.599 58.0097C146.432 59.0361 147.895 60.4694 148.953 62.3098C150.01 64.1502 150.539 66.2206 150.539 68.521C150.539 70.8215 150.01 72.9096 148.935 74.75C147.86 76.5904 146.414 78.0414 144.581 79.0678C142.748 80.0942 140.738 80.6073 138.517 80.6073C136.296 80.6073 134.287 80.0942 132.436 79.0678ZM143.03 73.4936C144.158 72.2372 144.722 70.5738 144.722 68.521C144.722 66.4683 144.158 64.7695 143.03 63.5308C141.902 62.2921 140.403 61.6727 138.517 61.6727C136.631 61.6727 135.097 62.2921 133.987 63.5131C132.859 64.7518 132.295 66.4152 132.295 68.521C132.295 70.6269 132.859 72.2726 133.987 73.5113C135.115 74.75 136.631 75.3694 138.517 75.3694C140.403 75.3694 141.902 74.75 143.03 73.4936Z" fill="#111111"/>
<path d="M176.469 80.3773L168.572 69.9544V80.3773H162.843V56.771H168.572V67.1231L176.416 56.771H183.15L174.037 68.3441L183.485 80.3773H176.487H176.469Z" fill="#111111"/>
<path d="M192.228 79.0678C190.395 78.0414 188.914 76.5904 187.839 74.75C186.764 72.9096 186.217 70.8215 186.217 68.521C186.217 66.2206 186.764 64.1325 187.839 62.3098C188.914 60.4694 190.377 59.0361 192.228 58.0097C194.062 56.9833 196.089 56.4702 198.31 56.4702C200.531 56.4702 202.54 56.9833 204.391 58.0097C206.225 59.0361 207.688 60.4694 208.745 62.3098C209.803 64.1502 210.332 66.2206 210.332 68.521C210.332 70.8215 209.803 72.9096 208.728 74.75C207.652 76.5904 206.207 78.0414 204.374 79.0678C202.54 80.0942 200.531 80.6073 198.31 80.6073C196.089 80.6073 194.079 80.0942 192.228 79.0678ZM202.805 73.4936C203.933 72.2372 204.497 70.5738 204.497 68.521C204.497 66.4683 203.933 64.7695 202.805 63.5308C201.677 62.2921 200.178 61.6727 198.292 61.6727C196.406 61.6727 194.872 62.2921 193.762 63.5131C192.634 64.7518 192.07 66.4152 192.07 68.521C192.07 70.6269 192.634 72.2726 193.762 73.5113C194.89 74.75 196.406 75.3694 198.292 75.3694C200.178 75.3694 201.677 74.75 202.805 73.4936Z" fill="#111111"/>
<path d="M220.238 56.771V80.3773H214.51V56.771H220.238Z" fill="#111111"/>
<path d="M6.38112 92.6406C7.17436 93.0476 7.7737 93.6315 8.19676 94.3748C8.61982 95.118 8.83135 96.0028 8.83135 96.9938C8.83135 97.9847 8.61982 98.8518 8.19676 99.5951C7.7737 100.338 7.15674 100.905 6.38112 101.312C5.60551 101.719 4.68888 101.913 3.64886 101.913H0.211487V92.0389H3.64886C4.68888 92.0389 5.58788 92.2336 6.38112 92.6406ZM5.97569 99.3827C6.53977 98.8164 6.82181 98.0201 6.82181 96.9938C6.82181 95.9674 6.53977 95.1534 5.97569 94.5871C5.41161 94.0032 4.61837 93.72 3.57835 93.72H2.18577V100.25H3.57835C4.61837 100.25 5.41161 99.9667 5.97569 99.4004V99.3827Z" fill="#111111"/>
<path d="M16.9753 92.0389V101.913H15.001V92.0389H16.9753Z" fill="#111111"/>
<path d="M25.5775 93.6315V96.109H28.8915V97.6839H25.5775V100.303H29.3145V101.913H23.6032V92.0212H29.3145V93.6315H25.5775Z" fill="#111111"/>
<path d="M50.5205 92.0389V93.6315H47.894V101.913H45.9197V93.6315H43.2932V92.0389H50.5205Z" fill="#111111"/>
<path d="M58.6115 93.6315V96.109H61.9255V97.6839H58.6115V100.303H62.3485V101.913H56.6372V92.0212H62.3485V93.6315H58.6115Z" fill="#111111"/>
<path d="M70.8098 92.0389V101.913H68.8355V92.0389H70.8098Z" fill="#111111"/>
<path d="M77.614 94.3571C78.0547 93.5961 78.654 92.9945 79.412 92.5521C80.17 92.1274 81.0161 91.915 81.9504 91.915C83.0433 91.915 84.0128 92.1982 84.8413 92.7644C85.6698 93.3307 86.2515 94.1093 86.5688 95.118H84.2948C84.0657 94.6402 83.7484 94.2863 83.343 94.0562C82.9375 93.8262 82.4616 93.7023 81.9328 93.7023C81.351 93.7023 80.8575 93.8439 80.3992 94.1093C79.9408 94.3748 79.6059 94.7641 79.3591 95.2419C79.1124 95.7374 78.989 96.3036 78.989 96.9761C78.989 97.6485 79.1124 98.1971 79.3591 98.6926C79.6059 99.188 79.9585 99.5774 80.3992 99.8428C80.8399 100.108 81.351 100.25 81.9328 100.25C82.4616 100.25 82.9375 100.126 83.343 99.8959C83.7484 99.6481 84.0657 99.2942 84.2948 98.8341H86.5688C86.2339 99.8428 85.6698 100.621 84.8413 101.188C84.0128 101.754 83.0609 102.037 81.9504 102.037C81.0161 102.037 80.17 101.825 79.412 101.4C78.654 100.975 78.0547 100.374 77.614 99.6127C77.1733 98.8518 76.9618 97.9847 76.9618 97.0115C76.9618 96.0382 77.1733 95.1711 77.614 94.3925V94.3571Z" fill="#111111"/>
<path d="M101.111 92.0389V101.913H99.1372V97.7016H94.9242V101.913H92.9499V92.0389H94.9242V96.109H99.1372V92.0389H101.111Z" fill="#111111"/>
<path d="M114.438 92.0389V93.6315H111.811V101.913H109.837V93.6315H107.211V92.0389H114.438Z" fill="#111111"/>
<path d="M122.529 93.6315V96.109H125.843V97.6839H122.529V100.303H126.266V101.913H120.555V92.0212H126.266V93.6315H122.529Z" fill="#111111"/>
<path d="M132.912 94.3571C133.352 93.5961 133.952 92.9945 134.71 92.5521C135.468 92.1274 136.314 91.915 137.248 91.915C138.341 91.915 139.31 92.1982 140.139 92.7644C140.967 93.3307 141.549 94.1093 141.866 95.118H139.592C139.363 94.6402 139.046 94.2863 138.641 94.0562C138.235 93.8262 137.759 93.7023 137.23 93.7023C136.649 93.7023 136.155 93.8439 135.697 94.1093C135.238 94.3748 134.903 94.7641 134.657 95.2419C134.41 95.7374 134.287 96.3036 134.287 96.9761C134.287 97.6485 134.41 98.1971 134.657 98.6926C134.903 99.188 135.256 99.5774 135.697 99.8428C136.137 100.108 136.649 100.25 137.23 100.25C137.759 100.25 138.235 100.126 138.641 99.8959C139.046 99.6481 139.363 99.2942 139.592 98.8341H141.866C141.531 99.8428 140.967 100.621 140.139 101.188C139.31 101.754 138.358 102.037 137.248 102.037C136.314 102.037 135.468 101.825 134.71 101.4C133.952 100.975 133.352 100.374 132.912 99.6127C132.471 98.8518 132.259 97.9847 132.259 97.0115C132.259 96.0382 132.471 95.1711 132.912 94.3925V94.3571Z" fill="#111111"/>
<path d="M156.409 92.0389V101.913H154.435V97.7016H150.222V101.913H148.248V92.0389H150.222V96.109H154.435V92.0389H156.409Z" fill="#111111"/>
<path d="M171.463 101.913H169.489L165.011 95.1357V101.913H163.037V92.0212H165.011L169.489 98.8164V92.0212H171.463V101.913Z" fill="#111111"/>
<path d="M180.065 92.0389V101.913H178.091V92.0389H180.065Z" fill="#111111"/>
<path d="M192.246 101.913L188.667 97.5069V101.913H186.693V92.0389H188.667V96.4629L192.246 92.0389H194.626L190.571 96.9407L194.749 101.931H192.246V101.913Z" fill="#111111"/>
<path d="M202.699 93.6315V96.109H206.013V97.6839H202.699V100.303H206.436V101.913H200.725V92.0212H206.436V93.6315H202.699Z" fill="#111111"/>
<path d="M217.982 101.913L215.814 98.0555H214.88V101.913H212.905V92.0389H216.607C217.365 92.0389 218.017 92.1805 218.546 92.4459C219.075 92.7114 219.48 93.083 219.745 93.5431C220.009 94.0032 220.15 94.5163 220.15 95.0826C220.15 95.7374 219.956 96.3213 219.586 96.8522C219.216 97.3831 218.652 97.737 217.912 97.9316L220.274 101.931H217.982V101.913ZM214.88 96.5868H216.537C217.065 96.5868 217.471 96.4629 217.735 96.1974C218 95.932 218.123 95.5781 218.123 95.118C218.123 94.6579 217.982 94.304 217.735 94.0562C217.471 93.8085 217.065 93.6846 216.537 93.6846H214.88V96.5868Z" fill="#111111"/>
</g>
<defs>
<clipPath id="clip0_2_86">
<rect width="306" height="102" fill="white"/>
</clipPath>
</defs>
</svg>


