<svg width="221" height="118" viewBox="0 0 221 118" fill="none" xmlns="http://www.w3.org/2000/svg">
<path d="M209.841 0.117373C209.52 0.248351 209.208 0.399223 208.906 0.569116C208.609 0.73549 208.145 0.998831 207.872 1.15419C206.381 2.00479 203.89 3.63328 201.767 5.14497C200.546 6.01431 197.66 8.1871 197.534 8.33144C197.502 8.3678 197.136 8.66198 196.707 9.00465C195.601 9.87618 192.263 12.7244 191.108 13.7821C185.685 18.748 181.956 22.3763 173.554 30.8746C170.492 33.9708 167.428 37.0779 166.734 37.7941C165.319 39.2485 165.457 39.2264 164.848 38.0365C164.091 36.5512 161.716 32.8138 160.157 30.6543C158.097 27.8006 156.998 26.507 154.745 24.2869C153.186 22.7443 152.083 21.7626 149.201 19.3177C147.331 17.7299 144.075 15.4294 142.04 14.2548L140.665 13.4604C140.258 13.2224 137.915 12.0644 137.53 11.9112C137.348 11.8385 136.782 11.5972 136.265 11.3725C135.748 11.1477 135.133 10.9009 134.89 10.8215C134.647 10.7422 134.054 10.5219 133.57 10.3312C132.173 9.78033 128.02 8.29287 127.41 8.1276C127.227 8.07692 126.8 7.93699 126.448 7.81138C126.096 7.68577 125.815 7.60534 125.815 7.62958C125.815 7.65382 125.551 7.58219 125.232 7.47201C124.022 7.05442 122.379 7.09189 121.745 7.55135C121.567 7.68027 121.379 8.02623 121.212 8.53306C120.961 9.29332 120.959 9.33299 121.132 9.93238C121.371 10.7654 121.932 11.3119 122.922 11.681C123.326 11.8321 123.742 11.95 124.165 12.0335C125.46 12.2264 129.038 13.0715 130.49 13.5276C134.318 14.7286 139.499 16.9873 142.425 18.7304C148.343 22.2562 153.372 26.6877 156.945 31.528C158.515 33.6545 160.365 36.7066 161.275 38.6788C162.289 40.8714 162.778 42.0074 162.778 42.1716C162.778 42.2818 161.286 44.0777 160.586 44.816C160.451 44.9581 158.187 47.6807 155.408 51.0412C154.475 52.1695 151.008 56.5393 150.066 57.7844C148.306 60.1048 143.255 67.4914 141.163 70.8189C141.032 71.0271 140.786 71.4194 140.629 71.6728C140.517 71.8402 140.419 72.0172 140.338 72.2016C140.286 72.3298 140.217 72.4502 140.133 72.5597C139.949 72.8286 138.729 74.8736 138.249 75.722C138.145 75.9038 137.468 77.0442 136.744 78.2561C135.249 80.7573 134.091 82.7306 133.413 83.9305C133.157 84.3823 132.844 84.9321 132.721 85.1425C129.1 91.3634 126.52 96.8328 123.677 104.314C123.305 105.295 122.535 107.547 122.357 108.171C122.28 108.443 122.016 109.36 121.771 110.209C121.198 112.192 120.756 114.357 120.76 115.178C120.76 115.916 121.036 116.626 121.458 116.993C121.881 117.36 123.075 117.861 123.548 117.864C124.538 117.873 125.362 116.93 125.928 115.123C126.062 114.726 126.172 114.321 126.258 113.911C126.326 113.539 126.416 113.171 126.527 112.809C126.674 112.29 126.924 111.388 127.077 110.815C127.531 109.129 128.899 104.743 129.328 103.598C129.438 103.297 129.668 102.672 129.829 102.221C130.552 100.204 131.754 97.2317 132.568 95.4445C132.99 94.5212 136.748 86.9715 137.728 85.0874C138.947 82.7405 141.13 78.752 142.372 76.6034C142.721 75.9974 143.093 75.3529 143.195 75.1711C144.029 73.7001 146.385 69.9815 147.705 68.0643C148.863 66.3785 149.129 66.0006 149.742 65.1776C150.044 64.7699 150.401 64.2763 150.542 64.0757C150.872 63.6053 155.072 58.0047 156.224 56.5062C157.611 54.6993 159.627 52.1739 161.115 50.3801C162.435 48.7935 164.601 46.4687 164.766 46.4687C164.848 46.4687 165.019 47.7248 165.206 49.7191C165.27 50.3801 165.358 53.5864 165.4 56.8258L165.477 62.7205L165.745 63.3816C166.246 64.6167 167.215 65.2338 168.623 65.2139C169.349 65.204 169.818 64.9936 170.163 64.5385C170.28 64.3809 170.747 63.1612 171.201 61.828C172.274 58.6768 172.618 57.7271 173.731 54.8425C174.071 53.9611 174.433 53.0476 174.54 52.8041L175.09 51.5371C175.288 51.0853 175.577 50.4352 175.726 50.1047C176.189 49.08 177.706 46.0059 178.015 45.477C178.173 45.2027 178.722 44.243 179.242 43.3285C179.763 42.414 180.422 41.289 180.716 40.8108C181.011 40.3327 181.25 39.9294 181.25 39.9129C181.25 39.8412 183.568 36.1997 184.476 34.8445C185.782 32.8943 185.703 33.01 186.747 31.539C187.263 30.8118 187.761 30.1067 187.853 29.9745C188.548 28.9718 191.839 24.7959 192.655 23.8814C192.898 23.6082 193.71 22.6914 194.459 21.843C196.031 20.0636 197.869 18.1575 201.05 15.0118C204.231 11.8661 205.285 10.9053 209.091 7.65381C210.334 6.59166 211.459 5.57358 211.582 5.3984C211.999 4.80782 212.193 3.87788 212.115 2.83115C212.018 1.54202 211.794 0.756436 211.412 0.374105C211.03 -0.008226 210.422 -0.102993 209.839 0.115167L209.841 0.117373ZM182.671 27.2607L181.838 28.5608C181.044 29.7971 178.053 34.9183 176.981 36.8796C176.797 37.2101 176.307 38.1026 175.881 38.8628C175.057 40.3503 174.488 41.397 173.778 42.7412L172.898 44.405C171.863 46.3552 171.31 47.4196 170.43 49.1648C169.908 50.2005 169.419 51.1294 169.337 51.2418C169.206 51.4225 169.16 51.2693 168.943 49.9196C168.688 48.3208 168.515 47.4846 167.875 44.73L167.483 43.0442L168.777 41.6008C173.229 36.6316 182.967 26.3351 183.092 26.4619C183.122 26.4916 182.93 26.8585 182.669 27.2662L182.671 27.2607Z" fill="white"/>
<path d="M122.523 42.3514C119.983 42.8538 118.772 44.5484 118.772 47.6004V48.7794H116.352V50.5423H118.772V65.3067H120.972V50.5423H126.362V65.3067H128.562V50.5423H132.082V48.7794H128.562V47.6225C128.562 45.2866 129.423 44.2145 131.499 43.9677L132.082 43.8983V42.1685H131.598C130.828 42.1685 129.342 42.4913 128.76 42.7855C127.11 43.6184 126.362 45.1213 126.362 47.5894V48.7794H120.95L121 47.4847C121.039 46.449 121.097 46.0799 121.293 45.6392C121.726 44.6652 122.556 44.1308 123.887 43.971L124.492 43.8983V42.1685L123.915 42.1795C123.447 42.2032 122.982 42.2607 122.523 42.3514Z" fill="white"/>
<path d="M85.4419 53.9315V65.3077H87.6199L87.6683 59.9309C87.72 54.3006 87.7123 54.3942 88.2304 53.1877C88.49 52.5839 89.1104 51.8281 89.7319 51.3741C91.0519 50.4001 93.2849 50.1203 95.0889 50.7009C95.7727 50.9167 96.3937 51.296 96.8983 51.8061C97.4029 52.3162 97.776 52.9416 97.9852 53.6285C98.3559 54.7799 98.4252 55.8431 98.4252 60.7021V65.3077H100.647L100.601 59.9309C100.552 54.0251 100.512 53.6075 99.8552 52.0529C99.1743 50.4398 98.0072 49.3369 96.3682 48.7584C95.4497 48.4345 95.3122 48.4158 93.6952 48.4069C91.8142 48.3959 91.4633 48.4631 90.1862 49.0746C89.3612 49.4702 88.0731 50.6172 87.9224 51.0943C87.7024 51.7939 87.6452 50.9841 87.6452 46.9735V42.6213L86.5452 42.5882L85.4452 42.5552V53.9315H85.4419Z" fill="white"/>
<path d="M106.094 42.5826L105.022 42.6212V65.3076H107.222V53.9038C107.222 47.6344 107.21 42.5099 107.194 42.522C107.179 42.5341 106.688 42.5606 106.094 42.5826Z" fill="white"/>
<path d="M31.542 53.9576V65.3064H33.742V61.8356L34.0236 62.3314C34.402 62.9925 35.535 64.1351 36.272 64.5869C37.7471 65.4926 39.594 65.8639 41.563 65.649C46.139 65.1521 49.2773 61.2627 48.9957 56.4367C48.812 53.2745 47.1169 50.5894 44.456 49.244C43.1162 48.5664 42.322 48.3956 40.562 48.4056C39.11 48.4144 38.8878 48.443 38.087 48.724C37.5223 48.9309 36.9744 49.181 36.448 49.4721C35.634 49.9448 34.4328 51.0697 34.1061 51.6658C33.9103 52.0228 33.907 51.9468 33.8795 47.3192L33.852 42.6089H31.542V53.9576ZM42.267 50.683C43.741 51.1645 44.8696 52.0052 45.6858 53.2414C46.9827 55.1983 47.1279 57.8691 46.0576 60.0947C44.9191 62.4648 42.619 63.7726 39.858 63.6206C38.021 63.5181 36.8286 63.0036 35.601 61.7827C34.7837 60.9696 34.05 59.6331 33.852 58.5974C33.7035 57.8151 33.7101 56.0941 33.8652 55.3691C34.1743 53.9257 35.1918 52.4052 36.415 51.5601C37.2792 51.0026 38.237 50.6061 39.242 50.3899C39.847 50.2798 41.508 50.4373 42.267 50.6841V50.683Z" fill="white"/>
<path d="M111.622 44.1514V45.694H112.75H113.877V44.1514V42.6089H112.75H111.622V44.1514Z" fill="white"/>
<path d="M16.5161 48.4454C14.6241 48.7164 12.5385 49.9879 11.3648 51.5779C10.6531 52.5431 10.3605 53.1094 10.0184 54.1782C9.04272 57.2302 9.66973 60.4585 11.7245 62.9707C12.8806 64.3821 14.9145 65.409 17.0111 65.6437C20.1461 65.9952 23.1491 64.7148 24.4724 62.4638L24.7771 61.946L24.8101 63.6263L24.8431 65.3065H27.1421V48.7792H24.8321V50.5157L24.8266 52.2511L24.5406 51.7002C24.1644 50.9752 23.0446 49.8899 22.1756 49.4073C20.871 48.6834 19.9756 48.4355 18.5126 48.3903C17.8484 48.3658 17.1834 48.3846 16.5216 48.4465L16.5161 48.4454ZM20.4541 50.6964C21.3341 50.9807 22.5804 51.7266 23.0853 52.272C23.6918 52.9614 24.1795 53.7471 24.5285 54.5969C24.8585 55.4078 24.8761 55.5114 24.8761 56.9327C24.8761 58.299 24.8508 58.483 24.567 59.1914C23.3999 62.1002 21.5684 63.4775 18.6721 63.6229C17.2971 63.6924 16.2521 63.461 15.0201 62.812C13.4801 62.0022 12.2701 60.2271 11.884 58.2108C11.5837 56.6058 11.874 54.9462 12.7013 53.5391C13.6143 52.0285 14.9871 51.0259 16.8021 50.5422C17.8911 50.2524 19.2551 50.3097 20.4541 50.6964Z" fill="white"/>
<path d="M55.6321 48.4927C54.7718 48.6715 53.979 49.0888 53.3441 49.697C52.8208 50.1973 52.4265 50.8172 52.195 51.5037C51.9636 52.1902 51.9019 52.9226 52.0153 53.6382C52.298 55.3868 53.4101 56.3928 55.9621 57.2004C59.0861 58.1921 59.9815 58.8234 60.2521 60.2271C60.548 61.7807 59.6471 63.2979 58.1775 63.7254C56.7585 64.1375 55.0062 63.6152 54.3132 62.563C53.9832 62.0671 53.6532 61.1692 53.6532 60.767C53.6532 60.5885 53.5432 60.5687 52.6137 60.5687C52.0417 60.5687 51.5544 60.6028 51.5313 60.6458C51.4213 60.8419 51.6743 62.1443 51.9361 62.7172C52.3607 63.6505 53.4222 64.6619 54.4892 65.15C56.7552 66.1857 59.4931 65.7638 61.1167 64.1276C61.8119 63.4268 62.1342 62.8494 62.396 61.8358C62.5593 61.2006 62.5912 60.5386 62.4899 59.8906C62.3885 59.2426 62.1559 58.6222 61.8064 58.0676C61.1156 57.0065 60.2532 56.5096 57.8332 55.7791C55.5232 55.0827 54.8632 54.7026 54.4023 53.8035C53.8644 52.7568 54.2923 51.2506 55.3032 50.6325C56.2932 50.0276 57.8849 50.0408 58.7792 50.66C59.0581 50.8393 59.293 51.0793 59.4664 51.3623C59.6397 51.6452 59.747 51.9637 59.7802 52.294L59.8462 52.8559H62.0902L61.9923 52.2279C61.8559 51.3465 61.3521 50.3207 60.7702 49.7378C59.6075 48.5732 57.5032 48.063 55.6332 48.4927H55.6321Z" fill="white"/>
<path d="M72.3411 48.4486C69.1258 48.9609 66.477 51.3794 65.5211 54.6739C65.1911 55.8308 65.1559 58.0399 65.4606 59.1362C65.9501 60.8991 66.7421 62.2213 68.0368 63.4488C69.3986 64.7357 70.9958 65.4464 72.9758 65.6524C75.0658 65.865 76.9303 65.4684 78.6078 64.4536C79.3448 64.0129 80.6604 62.7645 81.1642 62.0373C81.5305 61.5084 82.2488 60.054 82.2488 59.8337C82.2488 59.7235 81.9628 59.6905 81.1048 59.6905H79.9641L79.8541 60.021C79.6748 60.5389 78.896 61.6153 78.3845 62.0516C77.2746 62.9992 75.9315 63.5193 74.3365 63.6195C70.8275 63.8399 67.8773 61.3641 67.5297 57.9055C67.3724 56.3519 67.5715 55.1587 68.2018 53.8618C68.9278 52.3678 70.1895 51.2714 71.8615 50.6842C72.4841 50.4638 72.8625 50.4098 73.8415 50.3966C74.8865 50.3823 75.1791 50.4219 75.9865 50.6864C77.6475 51.2307 79.0357 52.4118 79.7562 53.8949L80.0455 54.4899L81.1455 54.5053C82.4435 54.5229 82.4303 54.5428 81.8825 53.355C81.3798 52.2642 80.92 51.6163 80.0455 50.7657C78.9796 49.7278 77.7245 49.0281 76.1515 48.5962C75.4662 48.4078 73.1705 48.3208 72.3455 48.4519L72.3411 48.4486Z" fill="white"/>
<path d="M111.622 57.0484V65.3176L112.722 65.2845L113.822 65.2515L113.85 57.0154L113.877 48.7793H112.75H111.622V57.0484Z" fill="white"/>
<path d="M185.135 58.744C183.947 59.0459 182.875 60.2336 182.732 61.4059C182.576 62.6841 182.886 63.6096 183.749 64.4481C185.014 65.6722 187.106 65.6733 188.347 64.4481C189.473 63.3385 189.742 61.9315 189.093 60.5432C188.397 59.0536 186.783 58.3198 185.133 58.7406L185.135 58.744ZM187.06 59.415C187.652 59.6513 188.146 60.0812 188.463 60.6347C188.725 61.082 188.765 61.2682 188.765 62.0064C188.765 62.8218 188.745 62.8879 188.335 63.4994C187.775 64.3302 187.015 64.7555 186.092 64.7555C185.555 64.7593 185.029 64.608 184.576 64.3196C184.122 64.0313 183.762 63.6182 183.537 63.1298C183.312 62.6414 183.233 62.0985 183.308 61.566C183.384 61.0336 183.611 60.5343 183.963 60.1278C184.617 59.3488 186.092 59.0095 187.06 59.415Z" fill="white"/>
<path d="M0.412109 69.7691V70.7056H140.167L140.525 70.1657C140.722 69.8682 140.986 69.4473 141.113 69.2292L141.344 68.8325H0.412109V69.7691Z" fill="white"/>
<path d="M147.873 69.3569C147.696 69.6433 147.433 70.0675 147.29 70.2934L147.031 70.7066H220.412V68.8335H148.197L147.867 69.3569H147.873Z" fill="white"/>
<path d="M184.794 61.9745L184.827 63.4895L185.13 63.5225C185.43 63.5556 185.432 63.5501 185.432 62.9441V62.3326H185.971C186.58 62.3326 186.663 62.4097 186.749 63.0487C186.8 63.4344 186.847 63.4895 187.126 63.528L187.445 63.5666L187.368 62.9881C187.338 62.7165 187.274 62.4499 187.176 62.1948C187.087 62.0296 187.1 61.937 187.232 61.7927C187.325 61.6766 187.385 61.5371 187.404 61.3894C187.423 61.2417 187.402 61.0916 187.342 60.9553C187.212 60.6181 186.69 60.4595 185.711 60.4595H184.765L184.798 61.9745H184.794ZM186.687 61.2638C186.862 61.5481 186.51 61.7817 185.905 61.7817C185.432 61.7817 185.432 61.7816 185.432 61.3905V60.9994L185.999 61.0324C186.406 61.0556 186.599 61.1217 186.687 61.2638Z" fill="white"/>
</svg>
