<svg width="150" height="50" viewBox="0 0 150 50" fill="none" xmlns="http://www.w3.org/2000/svg">
<path d="M24.9493 49.8987C38.7285 49.8987 49.8987 38.7285 49.8987 24.9493C49.8987 11.1702 38.7285 0 24.9493 0C11.1702 0 0 11.1702 0 24.9493C0 38.7285 11.1702 49.8987 24.9493 49.8987Z" fill="#C0E5D9"/>
<path d="M17.4021 37.3148C15.2347 36.0907 13.5116 34.4067 12.2407 32.247C10.9699 30.0873 10.3306 27.6625 10.3306 24.9571C10.3306 22.2517 10.9699 19.8269 12.2407 17.6672C13.5116 15.5075 15.2347 13.8313 17.4021 12.6228C19.5696 11.4143 21.9554 10.8062 24.5517 10.8062C27.148 10.8062 29.526 11.4065 31.6856 12.6228C33.8453 13.8313 35.5528 15.5153 36.8158 17.6672C38.0789 19.8269 38.7026 22.2517 38.7026 24.9571C38.7026 27.6625 38.0711 30.0873 36.8158 32.247C35.5528 34.4067 33.8375 36.0907 31.67 37.3148C29.5026 38.5389 27.1246 39.147 24.5595 39.147C21.9944 39.147 19.5774 38.5389 17.4099 37.3148H17.4021ZM28.528 29.4246C29.4636 28.3175 29.9314 26.8283 29.9314 24.9571C29.9314 23.0859 29.4636 21.5578 28.528 20.4584C27.5924 19.3513 26.2669 18.8055 24.5517 18.8055C22.8364 18.8055 21.472 19.3591 20.5364 20.4584C19.6008 21.5655 19.133 23.0625 19.133 24.9571C19.133 26.8517 19.6008 28.3175 20.5364 29.4246C21.472 30.5317 22.813 31.0775 24.5517 31.0775C26.2903 31.0775 27.5924 30.5239 28.528 29.4246Z" fill="black"/>
<path d="M74.9961 11.274V38.8742H66.3808V25.1131L62.1316 38.8742H54.7248L50.4756 25.1131V38.8742H41.8213V11.274H52.4248L58.5062 27.8419L64.4316 11.274H74.9961Z" fill="black"/>
<path d="M105.364 38.8742H96.7099L87.5488 24.9961V38.8742H78.8945V11.274H87.5488L96.7099 25.386V11.274H105.364V38.8742Z" fill="black"/>
<path d="M117.917 11.274V38.8742H109.262V11.274H117.917Z" fill="black"/>
<path d="M139.513 34.703H130.313L128.949 38.8742H119.866L129.963 11.274H139.942L150 38.8742H140.878L139.513 34.703ZM137.408 28.1928L134.913 20.513L132.419 28.1928H137.408Z" fill="black"/>
</svg>
