<svg width="121" height="42" viewBox="0 0 121 42" fill="none" xmlns="http://www.w3.org/2000/svg">
<path d="M0 41.911V7.231H3.978L4.029 11.566C5.661 8.353 8.67 6.619 12.342 6.619C20.4 6.619 23.97 13.3 23.97 20.746C23.97 28.192 20.4 34.873 12.342 34.873C8.823 34.873 5.712 33.292 4.284 30.691V41.911H0ZM11.934 30.793C16.626 30.793 19.482 27.07 19.482 20.746C19.482 14.422 16.626 10.699 11.934 10.699C7.242 10.699 4.284 14.116 4.284 20.746C4.284 27.376 7.191 30.793 11.934 30.793Z" fill="white"/>
<path d="M24.9701 34.261V30.487H35.8331V11.005H25.4801V7.231H40.1171V30.487H49.4501V34.261H24.9701ZM35.4251 2.998V0H75.9131V2.998H35.4251Z" fill="white"/>
<path d="M46.5742 34.261L56.5192 20.389L47.0842 7.231H52.0822L59.1712 17.431L66.1072 7.231H71.2072L61.8232 20.491L71.6662 34.261H66.6682L59.1712 23.347L51.6742 34.261H46.5742Z" fill="white"/>
<path d="M75.3182 41.911V38.137H78.4292C80.3162 38.137 81.0812 37.576 81.5912 36.301L82.5602 33.751H81.0812L71.0342 7.231H75.7262L83.9372 29.773L91.6382 7.231H96.3302L85.3652 37.678C84.3452 40.585 82.4582 41.911 78.8372 41.911H75.3182Z" fill="white"/>
<path d="M108.55 34.873C101.053 34.873 96.2083 29.365 96.2083 20.746C96.2083 12.127 101.053 6.619 108.55 6.619C115.996 6.619 120.892 12.127 120.892 20.746C120.892 29.365 115.996 34.873 108.55 34.873ZM108.55 30.793C113.497 30.793 116.404 27.019 116.404 20.746C116.404 14.473 113.497 10.699 108.55 10.699C103.552 10.699 100.696 14.473 100.696 20.746C100.696 27.019 103.552 30.793 108.55 30.793Z" fill="white"/>
</svg>
