<svg width="721" height="183" viewBox="0 0 721 183" fill="none" xmlns="http://www.w3.org/2000/svg">
<g clip-path="url(#clip0_166_21)">
<path d="M19.7992 109.435C19.9329 109.417 20.0666 109.399 20.2003 109.381C53.2634 105.058 58.393 54.9726 30.6601 57.0042C30.5447 57.0103 30.4353 57.0223 30.3198 57.0344C22.99 57.6855 19.0759 52.0548 21.5435 44.507C23.5248 38.4482 29.3534 32.6306 35.5406 30.5266C43.1925 27.9223 49.1122 31.4731 48.7476 38.4964C48.7476 38.6049 48.7415 38.7135 48.7354 38.822C47.7934 65.7095 98.4698 58.5898 100.919 27.1566C100.931 27.03 100.937 26.9034 100.943 26.7768C101.43 18.596 110.498 10.3007 122.295 7.97964C132.84 5.9058 143.014 9.31799 145.907 16.5463C149.614 25.8183 140.485 36.6095 126.889 39.9252C126.689 39.9734 126.501 40.0277 126.3 40.0759C86.3751 50.2643 86.217 104.473 136.413 108.796C136.675 108.82 136.936 108.838 137.197 108.856C155.443 110.195 174.472 125.977 177.378 146.384C180.07 165.302 167.057 179.487 147.9 178.312C126.999 177.028 109.641 158.912 107.173 140.591C107.137 140.338 107.1 140.072 107.064 139.813C99.7522 90.4328 44.0555 93.4773 34.8903 134.321C34.8416 134.526 34.7991 134.731 34.7565 134.936C31.7298 149.139 20.4312 159.418 10.2449 156.271C2.27694 153.812 -1.74047 143.479 0.222651 132.422C2.40457 120.166 11.0715 110.418 19.8052 109.423L19.7992 109.435Z" fill="#4780FF"/>
</g>
<path d="M205.935 96.798C206.634 100.204 207.813 103.173 209.472 105.706C211.219 108.151 213.533 110.029 216.415 111.339C219.297 112.649 222.616 113.304 226.371 113.304C229.428 113.304 232.048 112.911 234.231 112.125C236.502 111.339 238.205 110.204 239.34 108.719C240.563 107.147 241.174 105.269 241.174 103.086C241.087 99.7673 239.471 97.0163 236.327 94.833C233.271 92.6497 228.074 90.641 220.738 88.807C209.996 86.3617 201.787 82.912 196.11 78.458C190.521 74.004 187.726 68.1527 187.726 60.904C187.726 55.3147 189.167 50.4677 192.049 46.363C195.019 42.171 199.123 38.9833 204.363 36.8C209.691 34.5293 215.848 33.394 222.834 33.394C229.734 33.394 235.847 34.704 241.174 37.324C246.589 39.944 250.912 43.6557 254.143 48.459C257.375 53.175 259.34 58.677 260.038 64.965L240.126 65.751C239.777 62.607 238.816 59.856 237.244 57.498C235.672 55.0527 233.62 53.2187 231.087 51.996C228.555 50.686 225.673 50.031 222.441 50.031C218.075 50.031 214.538 51.079 211.83 53.175C209.123 55.1837 207.857 57.8473 208.031 61.166C208.119 63.524 208.948 65.489 210.52 67.061C212.18 68.633 214.188 69.8993 216.546 70.86C218.904 71.7333 222.005 72.6503 225.847 73.611L227.55 74.004C238.38 76.4493 246.72 80.03 252.571 84.746C258.51 89.3747 261.479 95.2697 261.479 102.431C261.479 108.108 259.907 113.042 256.763 117.234C253.707 121.426 249.471 124.614 244.056 126.797C238.642 128.98 232.572 130.072 225.847 130.072C218.337 130.072 211.612 128.762 205.673 126.142C199.822 123.522 195.15 119.81 191.656 115.007C188.25 110.116 186.329 104.44 185.892 97.977L205.935 96.798ZM293.193 35.49V75.183L290.18 76.886C291.315 70.074 293.891 65.1397 297.909 62.083C301.926 59.0263 306.948 57.498 312.974 57.498C320.31 57.498 326.03 59.9433 330.135 64.834C334.239 69.6373 336.292 75.969 336.292 83.829V128.5H316.511V90.772C316.511 86.7547 316.161 83.567 315.463 81.209C314.851 78.7637 313.76 76.886 312.188 75.576C310.616 74.266 308.52 73.611 305.9 73.611C301.708 73.611 298.52 75.052 296.337 77.934C294.241 80.816 293.193 85.0953 293.193 90.772V128.5H273.281V35.49H293.193ZM382.617 130.072C375.456 130.072 369.168 128.587 363.753 125.618C358.426 122.649 354.278 118.413 351.308 112.911C348.426 107.409 346.985 101.034 346.985 93.785C346.985 86.5363 348.426 80.161 351.308 74.659C354.278 69.157 358.426 64.9213 363.753 61.952C369.168 58.9827 375.456 57.498 382.617 57.498C389.779 57.498 396.023 58.9827 401.35 61.952C406.765 64.9213 410.913 69.157 413.795 74.659C416.765 80.161 418.249 86.5363 418.249 93.785C418.249 101.034 416.765 107.409 413.795 112.911C410.913 118.413 406.765 122.649 401.35 125.618C396.023 128.587 389.779 130.072 382.617 130.072ZM382.617 114.876C387.508 114.876 391.263 113.042 393.883 109.374C396.591 105.706 397.944 100.51 397.944 93.785C397.944 87.0603 396.591 81.864 393.883 78.196C391.263 74.528 387.508 72.694 382.617 72.694C377.727 72.694 373.928 74.528 371.22 78.196C368.6 81.864 367.29 87.0603 367.29 93.785C367.29 100.51 368.6 105.706 371.22 109.374C373.928 113.042 377.727 114.876 382.617 114.876ZM429.293 59.07H448.288L448.812 73.48L447.371 72.301C449.118 67.4977 451.869 63.8297 455.624 61.297C459.38 58.7643 463.965 57.498 469.379 57.498C475.667 57.498 481.038 59.1137 485.492 62.345C490.034 65.489 493.396 69.812 495.579 75.314C497.85 80.7287 498.985 86.8857 498.985 93.785C498.985 100.684 497.85 106.885 495.579 112.387C493.396 117.802 490.034 122.125 485.492 125.356C481.038 128.5 475.667 130.072 469.379 130.072C465.886 130.072 462.698 129.504 459.816 128.369C456.934 127.234 454.445 125.574 452.349 123.391C450.253 121.12 448.638 118.369 447.502 115.138L449.205 114.09V148.15H429.293V59.07ZM447.895 93.785C447.895 97.715 448.463 101.296 449.598 104.527C450.734 107.671 452.437 110.204 454.707 112.125C457.065 114.046 459.904 115.007 463.222 115.007C468.2 115.007 471.999 112.998 474.619 108.981C477.327 104.964 478.68 99.8983 478.68 93.785C478.68 87.759 477.327 82.7373 474.619 78.72C471.999 74.6153 468.2 72.563 463.222 72.563C459.904 72.563 457.065 73.5673 454.707 75.576C452.437 77.4973 450.734 80.0737 449.598 83.305C448.463 86.449 447.895 89.9423 447.895 93.785ZM535.842 43.35V105.706C535.842 108.326 536.497 110.335 537.807 111.732C539.117 113.042 540.995 113.697 543.44 113.697H554.182V128.5H539.248C531.563 128.5 525.755 126.622 521.825 122.867C517.895 119.024 515.93 113.304 515.93 105.706V43.35H535.842ZM554.051 59.07V73.742H504.664V59.07H554.051ZM585.261 59.07V128.5H565.349V59.07H585.261ZM585.523 35.49V50.031H565.087V35.49H585.523ZM646.349 85.663C645.738 81.5583 644.166 78.3707 641.633 76.1C639.188 73.8293 636.218 72.694 632.725 72.694C627.834 72.694 624.035 74.528 621.328 78.196C618.708 81.864 617.398 87.0603 617.398 93.785C617.398 100.51 618.708 105.706 621.328 109.374C624.035 113.042 627.834 114.876 632.725 114.876C636.48 114.876 639.581 113.741 642.026 111.47C644.471 109.112 646 105.706 646.611 101.252L667.047 102.038C666.436 107.715 664.558 112.693 661.414 116.972C658.357 121.164 654.34 124.395 649.362 126.666C644.384 128.937 638.838 130.072 632.725 130.072C625.564 130.072 619.276 128.587 613.861 125.618C608.534 122.649 604.385 118.413 601.416 112.911C598.534 107.409 597.093 101.034 597.093 93.785C597.093 86.5363 598.534 80.161 601.416 74.659C604.385 69.157 608.534 64.9213 613.861 61.952C619.276 58.9827 625.564 57.498 632.725 57.498C638.664 57.498 644.078 58.6333 648.969 60.904C653.947 63.0873 657.964 66.2313 661.021 70.336C664.165 74.4407 666.043 79.244 666.654 84.746L646.349 85.663Z" fill="#050A16"/>
<defs>
<clipPath id="clip0_166_21">
<rect width="200" height="183" fill="white"/>
</clipPath>
</defs>
</svg>
